<svg width="574" height="412" viewBox="0 0 574 412" fill="none" xmlns="http://www.w3.org/2000/svg">
<path d="M573 90.9142C573 58.6896 444.954 32.5664 287 32.5664C129.047 32.5664 1 58.6896 1 90.9142" stroke="#131313" stroke-width="2"/>
<path d="M573 125.347C573 92.5944 444.954 66.043 287 66.043C129.047 66.043 1 92.5944 1 125.347" stroke="#131313" stroke-width="2"/>
<path d="M573 158.824C573 126.6 444.954 100.477 287 100.477C129.047 100.477 1 126.6 1 158.824" stroke="#131313" stroke-width="2"/>
<path d="M573 192.305C573 160.08 444.954 133.957 287 133.957C129.047 133.957 1 160.08 1 192.305" stroke="#131313" stroke-width="2"/>
<path d="M573 225.782C573 194.086 444.954 168.391 287 168.391C129.047 168.391 1 194.086 1 225.782" stroke="#131313" stroke-width="2"/>
<path d="M573 259.262C573 227.566 444.954 201.871 287 201.871C129.047 201.871 1 227.566 1 259.262" stroke="#131313" stroke-width="2"/>
<path d="M573 293.696C573 262 444.954 236.305 287 236.305C129.047 236.305 1 262 1 293.696" stroke="#131313" stroke-width="2"/>
<path d="M271.609 365.317C296.735 371.39 322.271 369.004 343.54 358.642C364.833 348.248 380.55 330.519 387.86 308.739C395.331 286.916 393.777 262.566 383.328 240.326C372.777 218.105 353.99 199.524 330.412 188.1C306.643 176.735 279.688 173.297 254.804 178.391C230.546 183.317 210.327 196.363 197.43 215.217C184.172 234.151 178.901 257.663 182.892 281.244C187.177 304.746 201.949 326.308 223.09 342.237C224.691 353.692 226.312 365.141 227.953 376.584C228.15 377.998 228.755 379.392 229.711 380.611C230.667 381.829 231.938 382.83 233.389 383.518C234.831 384.2 236.407 384.548 237.95 384.524C239.48 384.487 240.927 384.075 242.125 383.323C251.944 377.329 261.772 371.327 271.609 365.317Z" fill="#F6F6F6" stroke="#131313" stroke-width="2" stroke-linecap="round" stroke-linejoin="round"/>
<path d="M268.589 381.866C293.715 387.939 319.25 385.553 340.519 375.191C361.813 364.797 377.53 347.068 384.839 325.288C392.311 303.465 390.756 279.115 380.307 256.875C369.756 234.654 350.97 216.073 327.391 204.648C303.622 193.283 276.667 189.846 251.783 194.94C227.525 199.866 207.306 212.912 194.409 231.766C181.152 250.7 175.88 274.212 179.871 297.793C184.156 321.295 198.929 342.857 220.07 358.786C221.67 370.24 223.291 381.689 224.933 393.133C225.129 394.546 225.735 395.941 226.691 397.16C227.647 398.378 228.917 399.379 230.369 400.067C231.811 400.749 233.387 401.097 234.929 401.073C236.46 401.036 237.907 400.623 239.105 399.872C248.924 393.878 258.752 387.876 268.589 381.866Z" fill="#E2FF8A" stroke="#131313" stroke-width="2" stroke-linecap="round" stroke-linejoin="round"/>
<path d="M250.224 30.1127C272.922 17.7435 298.204 13.439 321.431 17.9435C344.689 22.4719 364.459 35.5293 377.156 54.6752C390.022 73.8211 394.822 97.7436 390.486 121.93C386.045 146.124 372.708 168.935 352.89 186.072C332.872 203.202 307.725 213.499 282.371 215.019C257.664 216.54 234.758 209.171 217.42 194.297C199.714 179.44 188.537 158.094 186.289 134.283C184.345 110.473 193.034 85.8223 209.331 64.9642C207.913 53.4857 206.515 42.0072 205.139 30.5287C204.963 29.1126 205.187 27.6084 205.795 26.1843C206.403 24.7602 207.371 23.464 208.595 22.4239C209.811 21.3918 211.244 20.6477 212.74 20.2717C214.228 19.9117 215.732 19.9357 217.084 20.3517C228.12 23.6 239.166 26.8537 250.224 30.1127Z" fill="#F6F6F6" stroke="#131313" stroke-width="2" stroke-linecap="round" stroke-linejoin="round"/>
<path d="M243.023 14.9097C265.721 2.5405 291.004 -1.76394 314.23 2.74052C337.488 7.26898 357.258 20.3263 369.956 39.4722C382.821 58.6182 387.621 82.5406 383.285 106.727C378.845 130.921 365.507 153.732 345.689 170.87C325.671 187.999 300.525 198.296 275.17 199.816C250.464 201.337 227.557 193.968 210.22 179.094C192.514 164.237 181.337 142.891 179.088 119.08C177.144 95.2699 185.833 70.6194 202.131 49.7613C200.712 38.2828 199.314 26.8043 197.938 15.3258C197.762 13.9096 197.986 12.4055 198.594 10.9814C199.202 9.55721 200.171 8.26107 201.395 7.22097C202.611 6.18886 204.043 5.44479 205.539 5.06875C207.027 4.70871 208.531 4.73272 209.883 5.14876C220.919 8.39709 231.966 11.6508 243.023 14.9097Z" fill="#E2FF8A" stroke="#131313" stroke-width="2" stroke-linecap="round" stroke-linejoin="round"/>
<path d="M573 90.9141C573 122.61 444.954 148.305 287 148.305C129.047 148.305 1 122.61 1 90.9141" stroke="#131313" stroke-width="2"/>
<path d="M573 125.347C573 157.044 444.954 182.739 287 182.739C129.047 182.739 1 157.044 1 125.347" stroke="#131313" stroke-width="2"/>
<path d="M573 158.826C573 190.523 444.954 216.217 287 216.217C129.047 216.217 1 190.523 1 158.826" stroke="#131313" stroke-width="2"/>
<path d="M573 192.305C573 224.529 444.954 250.653 287 250.653C129.047 250.653 1 224.529 1 192.305" stroke="#131313" stroke-width="2"/>
<path d="M573 293.695C573 325.92 444.954 352.043 287 352.043C129.047 352.043 1 325.92 1 293.695" stroke="#131313" stroke-width="2"/>
<path d="M573 259.262C573 292.015 444.954 318.566 287 318.566C129.047 318.566 1 292.015 1 259.262" stroke="#131313" stroke-width="2"/>
<path d="M573 225.781C573 258.006 444.954 284.129 287 284.129C129.047 284.129 1 258.006 1 225.781" stroke="#131313" stroke-width="2"/>
</svg>
