<svg width="245" height="48" viewBox="0 0 245 48" fill="none" xmlns="http://www.w3.org/2000/svg">
<path d="M0 46.4H13.824C26.752 46.4 34.56 36.16 34.56 22.72C34.56 9.28 26.816 1.6 13.824 1.6H0V46.4ZM10.24 2.368H13.824C21.888 2.368 24.32 10.176 24.32 22.656C24.32 35.136 21.888 45.632 13.824 45.632H12.8C10.944 45.632 10.24 45.568 10.24 42.88V2.368Z" fill="#131313"/>
<path d="M46.2155 24.256C44.2315 29.504 35.5915 47.424 48.8395 47.424C54.3435 47.424 57.5435 43.52 62.7275 37.184L65.8635 46.4H76.2315L60.8075 1.6H54.8555L46.2155 24.256ZM62.4075 36.288C60.2955 38.592 58.2475 39.744 54.7915 39.744C48.3275 39.744 46.2155 26.496 49.6075 17.536L52.9355 8.76801L62.4075 36.288Z" fill="#131313"/>
<path d="M99.561 0.960003C86.569 0.960003 79.465 10.56 79.465 24C79.465 37.44 86.633 47.04 99.561 47.04C112.489 47.04 119.657 37.44 119.657 24C119.657 10.56 112.553 0.960003 99.561 0.960003ZM99.561 46.272C90.857 46.272 89.705 35.136 89.705 23.936C89.705 12.736 90.857 1.728 99.561 1.728C108.265 1.728 109.417 12.736 109.417 23.936C109.417 35.136 108.265 46.272 99.561 46.272Z" fill="#131313"/>
<path d="M154.854 23.744C156.837 18.496 164.198 0.576004 152.23 0.576004C146.726 0.576004 143.526 4.48 138.342 10.816L135.206 1.6H124.838L140.262 46.4H146.214L154.854 23.744ZM138.661 11.712C140.773 9.408 142.822 8.256 146.277 8.256C152.742 8.256 154.854 21.504 151.462 30.464L148.133 39.232L138.661 11.712Z" fill="#131313"/>
<path d="M187.306 0.960003C174.314 0.960003 167.21 10.56 167.21 24C167.21 37.44 174.378 47.04 187.306 47.04C200.234 47.04 207.402 37.44 207.402 24C207.402 10.56 200.298 0.960003 187.306 0.960003ZM187.306 46.272C178.602 46.272 177.45 35.136 177.45 23.936C177.45 12.736 178.602 1.728 187.306 1.728C196.01 1.728 197.162 12.736 197.162 23.936C197.162 35.136 196.01 46.272 187.306 46.272Z" fill="#131313"/>
<path d="M230.665 47.104C237.257 47.104 244.424 43.84 244.424 36.032C244.424 20.224 222.473 19.648 222.473 9.408C222.473 3.648 225.609 1.664 229.129 1.664C233.673 1.664 235.208 7.68 237.257 10.048C237.833 10.752 238.409 11.072 238.921 11.072C239.561 11.072 240.073 10.56 240.585 9.66401L243.529 4.16C239.689 2.112 233.289 0.896004 228.937 0.896004C222.025 0.896004 214.665 4.48 214.601 12.352C214.473 27.648 236.424 28.096 236.424 38.528C236.424 43.712 233.801 46.336 229.641 46.336C224.456 46.336 221.577 39.808 219.529 37.44C218.952 36.736 218.376 36.416 217.865 36.416C217.225 36.416 216.648 36.928 216.201 37.824L213.193 43.712C217.609 46.272 226.312 47.104 230.665 47.104Z" fill="#131313"/>
</svg>
