<svg width="64" height="65" viewBox="0 0 64 65" fill="none" xmlns="http://www.w3.org/2000/svg">
<path d="M25.3002 26.5C26.4244 26.1477 27.5734 25.8874 28.7361 25.7207C29.8155 25.5659 30.9065 25.4919 32.0002 25.5C33.0937 25.4919 34.1845 25.5659 35.2637 25.7206C36.4265 25.8873 37.5759 26.1476 38.7002 26.5" fill="#F6F6F6"/>
<path d="M38.7002 38.5C36.5324 39.1794 34.272 39.5168 32.0002 39.5C29.7285 39.5168 27.468 39.1794 25.3002 38.5" fill="#F6F6F6"/>
<path d="M28.6249 39.2623L27.1124 42.2623C27.0151 42.4669 26.8496 42.6312 26.6443 42.727C26.439 42.8228 26.2067 42.8441 25.9874 42.7873C22.9249 42.0373 20.2749 40.7373 18.3499 39.0623C18.2048 38.9342 18.0994 38.7673 18.0462 38.5812C17.9931 38.3951 17.9943 38.1977 18.0499 38.0123L22.2874 23.8623C22.3286 23.7175 22.4033 23.5844 22.5053 23.4736C22.6074 23.3629 22.7339 23.2777 22.8749 23.2248C24.0721 22.7336 25.3102 22.3488 26.5749 22.0748C26.8179 22.0215 27.0721 22.0597 27.2888 22.1819C27.5055 22.3041 27.6697 22.5018 27.7499 22.7373L28.7361 25.7207L28.7374 25.7248" fill="#F6F6F6"/>
<path d="M28.7361 25.7207C29.8155 25.5659 30.9065 25.4919 32.0002 25.5C33.0937 25.4919 34.1845 25.5659 35.2637 25.7206L36.2498 22.7373C36.33 22.5018 36.4942 22.3041 36.7109 22.1819C36.9276 22.0597 37.1817 22.0215 37.4248 22.0748C38.6895 22.3488 39.9276 22.7336 41.1248 23.2248C41.2657 23.2777 41.3923 23.3629 41.4944 23.4736C41.5964 23.5844 41.671 23.7175 41.7123 23.8623L45.9498 38.0123C46.0054 38.1977 46.0066 38.3951 45.9535 38.5812C45.9003 38.7673 45.7949 38.9342 45.6498 39.0623C43.7248 40.7373 41.0748 42.0373 38.0123 42.7873C37.793 42.8441 37.5607 42.8228 37.3554 42.727C37.1501 42.6312 36.9846 42.4669 36.8873 42.2623L35.3748 39.2623C34.2593 39.428 33.1314 39.5084 32.0002 39.5C30.8688 39.5084 29.7407 39.4281 28.6249 39.2623L27.1124 42.2623C27.0151 42.4669 26.8496 42.6312 26.6443 42.727C26.439 42.8228 26.2067 42.8441 25.9874 42.7873C22.9249 42.0373 20.2749 40.7373 18.3499 39.0623C18.2048 38.9342 18.0994 38.7673 18.0462 38.5812C17.9931 38.3951 17.9943 38.1977 18.0499 38.0123L22.2874 23.8623C22.3286 23.7175 22.4033 23.5844 22.5053 23.4736C22.6074 23.3629 22.7339 23.2777 22.8749 23.2248C24.0721 22.7336 25.3102 22.3488 26.5749 22.0748C26.8179 22.0215 27.0721 22.0597 27.2888 22.1819C27.5055 22.3041 27.6697 22.5018 27.7499 22.7373L28.7361 25.7207Z" fill="#F6F6F6"/>
<path d="M25.3002 26.5C26.4244 26.1477 27.5734 25.8874 28.7361 25.7207M38.7002 26.5C37.5759 26.1476 36.4265 25.8873 35.2637 25.7206M38.7002 38.5C36.5324 39.1794 34.272 39.5168 32.0002 39.5M32.0002 39.5C29.7285 39.5168 27.468 39.1794 25.3002 38.5M32.0002 39.5C33.1314 39.5084 34.2593 39.428 35.3748 39.2623L36.8873 42.2623C36.9846 42.4669 37.1501 42.6312 37.3554 42.727C37.5607 42.8228 37.793 42.8441 38.0123 42.7873C41.0748 42.0373 43.7248 40.7373 45.6498 39.0623C45.7949 38.9342 45.9003 38.7673 45.9535 38.5812C46.0066 38.3951 46.0054 38.1977 45.9498 38.0123L41.7123 23.8623C41.671 23.7175 41.5964 23.5844 41.4944 23.4736C41.3923 23.3629 41.2657 23.2777 41.1248 23.2248C39.9276 22.7336 38.6895 22.3488 37.4248 22.0748C37.1817 22.0215 36.9276 22.0597 36.7109 22.1819C36.4942 22.3041 36.33 22.5018 36.2498 22.7373L35.2637 25.7206M32.0002 39.5C30.8688 39.5084 29.7407 39.4281 28.6249 39.2623L27.1124 42.2623C27.0151 42.4669 26.8496 42.6312 26.6443 42.727C26.439 42.8228 26.2067 42.8441 25.9874 42.7873C22.9249 42.0373 20.2749 40.7373 18.3499 39.0623C18.2048 38.9342 18.0994 38.7673 18.0462 38.5812C17.9931 38.3951 17.9943 38.1977 18.0499 38.0123L22.2874 23.8623C22.3286 23.7175 22.4033 23.5844 22.5053 23.4736C22.6074 23.3629 22.7339 23.2777 22.8749 23.2248C24.0721 22.7336 25.3102 22.3488 26.5749 22.0748C26.8179 22.0215 27.0721 22.0597 27.2888 22.1819C27.5055 22.3041 27.6697 22.5018 27.7499 22.7373L28.7361 25.7207M35.2623 25.7248L35.2637 25.7206M28.7374 25.7248L28.7361 25.7207M28.7361 25.7207C29.8155 25.5659 30.9065 25.4919 32.0002 25.5C33.0937 25.4919 34.1845 25.5659 35.2637 25.7206" stroke="#131313" stroke-width="2" stroke-linecap="round" stroke-linejoin="round"/>
<path d="M28 36C28.8284 36 29.5 35.3284 29.5 34.5C29.5 33.6716 28.8284 33 28 33C27.1716 33 26.5 33.6716 26.5 34.5C26.5 35.3284 27.1716 36 28 36Z" fill="#131313"/>
<path d="M36 36C36.8284 36 37.5 35.3284 37.5 34.5C37.5 33.6716 36.8284 33 36 33C35.1716 33 34.5 33.6716 34.5 34.5C34.5 35.3284 35.1716 36 36 36Z" fill="#131313"/>
<rect x="1" y="1.5" width="62" height="62" rx="31" stroke="#131313" stroke-width="2"/>
</svg>
