<svg width="64" height="65" viewBox="0 0 64 65" fill="none" xmlns="http://www.w3.org/2000/svg">
<path d="M27.0004 33.3623L38.2379 43.2498C38.3678 43.3647 38.5253 43.4439 38.6951 43.4796C38.8648 43.5153 39.0409 43.5062 39.2061 43.4533C39.3712 43.4003 39.5198 43.3053 39.6371 43.1776C39.7545 43.0499 39.8366 42.8938 39.8754 42.7248L44.5754 22.1998C44.6148 22.023 44.6055 21.8389 44.5484 21.667C44.4913 21.4951 44.3887 21.342 44.2513 21.2239C44.114 21.1058 43.9472 21.0273 43.7687 20.9966C43.5902 20.9659 43.4068 20.9843 43.2379 21.0498L20.1629 30.1123C19.2379 30.4748 19.3629 31.8248 20.3379 32.0248L27.0004 33.3623Z" fill="#F6F6F6"/>
<path d="M32.6125 38.3002L28.7125 42.2002C28.5734 42.3415 28.3954 42.4382 28.2011 42.4781C28.0069 42.518 27.8052 42.4992 27.6216 42.4242C27.4381 42.3492 27.281 42.2213 27.1703 42.0568C27.0596 41.8922 27.0003 41.6985 27 41.5002L27.0004 33.3623" fill="#F6F6F6"/>
<path d="M27.0004 33.3623L38.2379 43.2498C38.3678 43.3647 38.5253 43.4439 38.6951 43.4796C38.8648 43.5153 39.0409 43.5062 39.2061 43.4533C39.3712 43.4003 39.5198 43.3053 39.6371 43.1776C39.7545 43.0499 39.8366 42.8938 39.8754 42.7248L44.5754 22.1998C44.6148 22.023 44.6055 21.8389 44.5484 21.667C44.4913 21.4951 44.3887 21.342 44.2513 21.2239C44.114 21.1058 43.9472 21.0273 43.7687 20.9966C43.5902 20.9659 43.4068 20.9843 43.2379 21.0498L20.1629 30.1123C19.2379 30.4748 19.3629 31.8248 20.3379 32.0248L27.0004 33.3623ZM27.0004 33.3623L44.0125 21.0748M27.0004 33.3623L27 41.5002C27.0003 41.6985 27.0596 41.8922 27.1703 42.0568C27.281 42.2213 27.4381 42.3492 27.6216 42.4242C27.8052 42.4992 28.0069 42.518 28.2011 42.4781C28.3954 42.4382 28.5734 42.3415 28.7125 42.2002L32.6125 38.3002" stroke="#131313" stroke-width="2" stroke-linecap="round" stroke-linejoin="round"/>
<rect x="1" y="1.5" width="62" height="62" rx="31" stroke="#131313" stroke-width="2"/>
</svg>
