<svg width="1421" height="998" viewBox="0 0 1421 998" fill="none" xmlns="http://www.w3.org/2000/svg">
<rect y="480" width="510" height="154" fill="#E2FF8A"/>
<rect y="656" width="395" height="154" fill="#E2FF8A"/>
<path d="M74.56 517.744L75.584 517.36C78.144 516.464 79.808 517.744 79.808 520.432V598H89.664V508.4L74.56 516.464V517.744ZM157.407 508.4H113.503L103.775 544.752H105.055C106.463 541.552 115.679 539.504 119.135 539.632C137.055 540.016 146.015 551.152 145.503 566.128C144.991 579.184 135.903 592.112 120.031 592.112C111.711 592.112 104.927 586.992 101.215 580.336L99.935 580.72C104.287 591.856 113.503 599.28 126.175 599.28C143.071 599.28 154.591 584.176 154.591 567.536C154.591 547.44 139.359 538.48 122.463 538.096C116.831 537.968 111.071 539.248 105.823 541.936L112.479 517.232H153.439L157.407 508.4ZM190.818 559.472V557.552H165.09V559.472H190.818ZM197.185 517.744L198.209 517.36C200.769 516.464 202.433 517.744 202.433 520.432V598H212.289V508.4L197.185 516.464V517.744ZM268.512 517.232L240.352 598H253.536C256.352 562.416 261.344 543.6 272.736 508.4H226.784L222.56 517.232H268.512ZM309.78 594.544C314.516 596.72 321.94 599.408 328.724 599.408C341.652 599.408 348.18 591.088 348.18 572.4V508.4H338.452V572.4C338.452 590.704 335.892 598 327.956 598C323.604 598 321.94 594.032 318.612 589.808C317.46 588.528 316.308 587.888 315.156 587.888C313.748 587.888 312.34 588.912 311.444 590.832L309.78 594.544ZM411.683 591.6V559.344C411.683 541.808 406.307 532.72 388.899 532.72C378.659 532.72 365.091 536.816 365.091 549.36C365.091 556.016 369.699 561.648 376.099 563.312C365.475 567.664 360.995 576.752 360.995 584.176C360.995 592.24 366.499 599.28 376.227 599.28C388.259 599.28 397.603 586.992 402.723 575.856V598H405.667C409.507 598 411.683 595.44 411.683 591.6ZM402.723 560.24H387.875C363.427 560.24 362.019 534.512 385.955 534.512C401.315 534.512 402.723 547.056 402.723 559.344V560.24ZM402.723 573.04C397.987 583.664 389.283 596.464 379.939 596.464C365.603 596.464 364.323 561.52 390.307 561.52H402.723V573.04ZM427.055 534V598H430.127C433.967 598 436.015 595.44 436.015 591.6V562.032C442.287 546.928 454.319 535.152 463.151 535.152C472.111 535.152 473.007 542.576 473.007 566V598H476.079C479.919 598 481.967 595.44 481.967 591.6V566C481.967 545.264 482.351 532.72 467.247 532.72C456.751 532.72 444.847 541.168 436.015 558.832V534H427.055ZM84.16 781.424C102.208 762.608 126.912 737.264 126.4 719.472C125.888 706.544 117.824 698.864 102.592 698.864C90.304 698.864 80.576 706.16 76.224 717.424H77.504C82.24 709.104 90.56 704.624 98.88 704.88C108.864 705.264 117.184 712.432 117.184 724.592C117.184 746.864 87.104 775.664 74.56 790H123.456L128.192 781.424H84.16ZM170.046 699.12C124.478 699.12 124.606 791.28 170.046 791.28C215.486 791.28 215.614 699.12 170.046 699.12ZM170.046 790C137.15 790 136.894 700.4 170.046 700.4C203.07 700.4 202.814 790 170.046 790ZM221.535 781.424C239.583 762.608 264.287 737.264 263.775 719.472C263.263 706.544 255.199 698.864 239.967 698.864C227.679 698.864 217.951 706.16 213.599 717.424H214.879C219.615 709.104 227.935 704.624 236.255 704.88C246.239 705.264 254.559 712.432 254.559 724.592C254.559 746.864 224.479 775.664 211.935 790H260.831L265.567 781.424H221.535ZM316.381 708.976L295.901 736.752H297.565L298.973 734.832C327.005 740.336 318.941 782.576 292.061 784.112C284.509 784.624 276.829 781.168 271.965 772.336L270.685 772.72C275.037 783.856 284.253 791.28 296.925 791.28C327.517 791.28 339.549 738.416 299.613 733.808L324.317 700.4H278.621L273.629 708.976H316.381Z" fill="black"/>
<mask id="path-4-inside-1_0_1" fill="white">
<path d="M1764.47 648.005C1747.43 654.631 1737.75 673.17 1742.59 691.24C1743.86 695.951 1745.99 700.196 1748.77 703.848C1750.72 706.404 1749.75 710.472 1746.64 711.303L1718.43 718.864C1715.32 719.696 1712.45 716.66 1712.85 713.472C1713.44 708.918 1713.16 704.175 1711.9 699.464C1706.71 680.091 1686.8 668.594 1667.42 673.785C1648.05 678.976 1636.55 698.89 1641.74 718.263C1643.01 722.974 1645.14 727.218 1647.92 730.871C1649.87 733.427 1648.9 737.495 1645.79 738.326L1617.57 745.887C1614.47 746.719 1611.59 743.683 1612 740.495C1612.59 735.94 1612.31 731.198 1611.05 726.487C1605.86 707.114 1585.95 695.617 1566.57 700.808C1547.2 705.999 1535.7 725.913 1540.89 745.286C1542.16 749.996 1544.29 754.241 1547.07 757.894C1549.02 760.45 1548.05 764.517 1544.94 765.349L1516.72 772.91C1513.62 773.742 1510.74 770.706 1511.15 767.518C1511.74 762.963 1511.46 758.221 1510.2 753.51C1505.01 734.137 1485.09 722.64 1465.72 727.831C1446.35 733.022 1434.85 752.936 1440.04 772.309C1441.3 777.019 1443.44 781.264 1446.22 784.917C1448.17 787.473 1447.2 791.54 1444.09 792.372L1415.87 799.933C1412.77 800.765 1409.89 797.729 1410.3 794.541C1410.89 789.986 1410.61 785.244 1409.35 780.533C1404.16 761.16 1384.24 749.663 1364.87 754.854C1345.5 760.045 1334 779.958 1339.19 799.332C1340.45 804.042 1342.59 808.287 1345.37 811.94C1347.32 814.496 1346.34 818.563 1343.24 819.395L1315.02 826.956C1311.92 827.788 1309.04 824.751 1309.45 821.564C1310.04 817.009 1309.76 812.267 1308.5 807.556C1303.31 788.183 1283.39 776.686 1264.02 781.877C1244.65 787.068 1233.15 806.981 1238.34 826.355C1239.6 831.065 1241.74 835.31 1244.52 838.963C1246.47 841.518 1245.49 845.586 1242.39 846.418L1214.17 853.979C1211.07 854.811 1208.19 851.774 1208.6 848.587C1209.18 844.032 1208.91 839.29 1207.65 834.579C1202.46 815.206 1182.54 803.709 1163.17 808.9C1143.8 814.091 1132.3 834.004 1137.49 853.378C1138.75 858.088 1140.88 862.333 1143.67 865.986C1145.62 868.541 1144.64 872.609 1141.54 873.441L1113.32 881.002C1110.22 881.834 1107.34 878.797 1107.75 875.61C1108.33 871.055 1108.06 866.312 1106.8 861.602C1101.6 842.229 1081.69 830.731 1062.32 835.923C1042.94 841.114 1031.45 861.027 1036.64 880.401C1037.9 885.111 1040.03 889.356 1042.82 893.009C1044.76 895.564 1043.79 899.632 1040.69 900.464L1012.47 908.025C1009.37 908.857 1006.49 905.82 1006.9 902.633C1007.48 898.078 1007.21 893.335 1005.94 888.625C1000.75 869.252 980.84 857.754 961.467 862.945C942.094 868.137 930.597 888.05 935.788 907.423C937.05 912.134 939.182 916.379 941.966 920.031C943.914 922.587 942.941 926.655 939.837 927.487L911.619 935.048C908.515 935.879 905.639 932.843 906.047 929.656C906.632 925.101 906.356 920.358 905.094 915.648C899.903 896.274 879.989 884.777 860.616 889.968C841.243 895.159 829.746 915.073 834.937 934.446C836.199 939.157 838.332 943.402 841.115 947.054C843.063 949.61 842.09 953.678 838.986 954.51L810.768 962.071C807.664 962.902 804.788 959.866 805.197 956.679C805.781 952.124 805.505 947.381 804.243 942.671C799.052 923.297 779.139 911.8 759.765 916.991C740.392 922.182 728.895 942.096 734.086 961.469C735.348 966.18 737.481 970.425 740.264 974.077C742.212 976.633 741.239 980.701 738.135 981.532L709.917 989.094C706.813 989.925 703.937 986.889 704.346 983.702C704.93 979.147 704.654 974.404 703.392 969.694C698.914 952.982 683.481 942.131 666.889 942.797C664.873 942.878 662.98 941.648 662.458 939.699L505.528 354.029C505.006 352.08 506.03 350.068 507.817 349.13C522.519 341.411 530.459 324.297 525.981 307.585C524.719 302.875 522.586 298.63 519.803 294.977C517.855 292.422 518.827 288.354 521.931 287.522L550.15 279.961C553.254 279.129 556.13 282.166 555.721 285.353C555.137 289.908 555.412 294.651 556.675 299.361C561.866 318.734 581.779 330.231 601.152 325.04C620.526 319.849 632.023 299.936 626.832 280.563C625.57 275.852 623.437 271.607 620.653 267.954C618.706 265.399 619.678 261.331 622.782 260.499L651.001 252.938C654.105 252.106 656.981 255.143 656.572 258.33C655.988 262.885 656.263 267.628 657.526 272.338C662.717 291.712 682.63 303.209 702.003 298.017C721.377 292.826 732.874 272.913 727.683 253.54C726.42 248.829 724.288 244.584 721.504 240.932C719.557 238.376 720.529 234.308 723.633 233.476L751.852 225.915C754.956 225.083 757.832 228.12 757.423 231.307C756.839 235.862 757.114 240.605 758.376 245.315C763.567 264.689 783.481 276.186 802.854 270.995C822.228 265.803 833.725 245.89 828.534 226.517C827.271 221.806 825.139 217.561 822.355 213.909C820.407 211.353 821.38 207.285 824.484 206.453L852.703 198.892C855.807 198.061 858.683 201.097 858.274 204.284C857.69 208.839 857.965 213.582 859.227 218.292C864.418 237.666 884.332 249.163 903.705 243.972C923.079 238.781 934.576 218.867 929.384 199.494C928.122 194.783 925.99 190.538 923.206 186.886C921.258 184.33 922.231 180.262 925.335 179.431L953.554 171.869C956.657 171.038 959.534 174.074 959.125 177.261C958.54 181.816 958.816 186.559 960.078 191.269C965.269 210.643 985.183 222.14 1004.56 216.949C1023.93 211.758 1035.43 191.844 1030.24 172.471C1028.97 167.76 1026.84 163.515 1024.06 159.863C1022.11 157.307 1023.08 153.239 1026.19 152.408L1054.4 144.846C1057.51 144.015 1060.38 147.051 1059.98 150.238C1059.39 154.793 1059.67 159.536 1060.93 164.247C1066.12 183.62 1086.03 195.117 1105.41 189.926C1124.78 184.735 1136.28 164.821 1131.09 145.448C1129.82 140.737 1127.69 136.492 1124.91 132.84C1122.96 130.284 1123.93 126.216 1127.04 125.385L1155.26 117.823C1158.36 116.992 1161.24 120.028 1160.83 123.216C1160.24 127.771 1160.52 132.513 1161.78 137.224C1166.97 156.597 1186.88 168.094 1206.26 162.903C1225.63 157.712 1237.13 137.798 1231.94 118.425C1230.67 113.714 1228.54 109.47 1225.76 105.817C1223.81 103.261 1224.78 99.1934 1227.89 98.3618L1256.11 90.8006C1259.21 89.9689 1262.09 93.0054 1261.68 96.1926C1261.09 100.748 1261.37 105.49 1262.63 110.201C1267.82 129.574 1287.74 141.071 1307.11 135.88C1326.48 130.689 1337.98 110.775 1332.79 91.4021C1331.53 86.6916 1329.39 82.4466 1326.61 78.794C1324.66 76.2383 1325.63 72.1705 1328.74 71.3388L1356.96 63.7777C1360.06 62.946 1362.94 65.9824 1362.53 69.1697C1361.94 73.7247 1362.22 78.4672 1363.48 83.1778C1368.67 102.551 1388.59 114.048 1407.96 108.857C1427.33 103.666 1438.83 83.7526 1433.64 64.3792C1432.38 59.6686 1430.24 55.4237 1427.46 51.7711C1425.51 49.2153 1426.49 45.1476 1429.59 44.3159L1457.81 36.7547C1460.91 35.9231 1463.79 38.9595 1463.38 42.1467C1462.79 46.7018 1463.07 51.4443 1464.33 56.1548C1469.52 75.5282 1489.44 87.0252 1508.81 81.8342C1528.18 76.6431 1539.68 56.7297 1534.49 37.3563C1533.23 32.6457 1531.1 28.4008 1528.31 24.7482C1526.36 22.1924 1527.34 18.1247 1530.44 17.293L1558.66 9.73182C1561.76 8.90017 1564.64 11.9366 1564.23 15.1239C1563.65 19.6789 1563.92 24.4214 1565.18 29.1319C1570.03 47.2016 1587.67 58.4193 1605.75 55.6352C1607.93 55.2988 1610.12 56.5411 1610.7 58.6749L1767.24 642.898C1767.81 645.032 1766.53 647.205 1764.47 648.005Z"/>
</mask>
<path d="M1764.47 648.005C1747.43 654.631 1737.75 673.17 1742.59 691.24C1743.86 695.951 1745.99 700.196 1748.77 703.848C1750.72 706.404 1749.75 710.472 1746.64 711.303L1718.43 718.864C1715.32 719.696 1712.45 716.66 1712.85 713.472C1713.44 708.918 1713.16 704.175 1711.9 699.464C1706.71 680.091 1686.8 668.594 1667.42 673.785C1648.05 678.976 1636.55 698.89 1641.74 718.263C1643.01 722.974 1645.14 727.218 1647.92 730.871C1649.87 733.427 1648.9 737.495 1645.79 738.326L1617.57 745.887C1614.47 746.719 1611.59 743.683 1612 740.495C1612.59 735.94 1612.31 731.198 1611.05 726.487C1605.86 707.114 1585.95 695.617 1566.57 700.808C1547.2 705.999 1535.7 725.913 1540.89 745.286C1542.16 749.996 1544.29 754.241 1547.07 757.894C1549.02 760.45 1548.05 764.517 1544.94 765.349L1516.72 772.91C1513.62 773.742 1510.74 770.706 1511.15 767.518C1511.74 762.963 1511.46 758.221 1510.2 753.51C1505.01 734.137 1485.09 722.64 1465.72 727.831C1446.35 733.022 1434.85 752.936 1440.04 772.309C1441.3 777.019 1443.44 781.264 1446.22 784.917C1448.17 787.473 1447.2 791.54 1444.09 792.372L1415.87 799.933C1412.77 800.765 1409.89 797.729 1410.3 794.541C1410.89 789.986 1410.61 785.244 1409.35 780.533C1404.16 761.16 1384.24 749.663 1364.87 754.854C1345.5 760.045 1334 779.958 1339.19 799.332C1340.45 804.042 1342.59 808.287 1345.37 811.94C1347.32 814.496 1346.34 818.563 1343.24 819.395L1315.02 826.956C1311.92 827.788 1309.04 824.751 1309.45 821.564C1310.04 817.009 1309.76 812.267 1308.5 807.556C1303.31 788.183 1283.39 776.686 1264.02 781.877C1244.65 787.068 1233.15 806.981 1238.34 826.355C1239.6 831.065 1241.74 835.31 1244.52 838.963C1246.47 841.518 1245.49 845.586 1242.39 846.418L1214.17 853.979C1211.07 854.811 1208.19 851.774 1208.6 848.587C1209.18 844.032 1208.91 839.29 1207.65 834.579C1202.46 815.206 1182.54 803.709 1163.17 808.9C1143.8 814.091 1132.3 834.004 1137.49 853.378C1138.75 858.088 1140.88 862.333 1143.67 865.986C1145.62 868.541 1144.64 872.609 1141.54 873.441L1113.32 881.002C1110.22 881.834 1107.34 878.797 1107.75 875.61C1108.33 871.055 1108.06 866.312 1106.8 861.602C1101.6 842.229 1081.69 830.731 1062.32 835.923C1042.94 841.114 1031.45 861.027 1036.64 880.401C1037.9 885.111 1040.03 889.356 1042.82 893.009C1044.76 895.564 1043.79 899.632 1040.69 900.464L1012.47 908.025C1009.37 908.857 1006.49 905.82 1006.9 902.633C1007.48 898.078 1007.21 893.335 1005.94 888.625C1000.75 869.252 980.84 857.754 961.467 862.945C942.094 868.137 930.597 888.05 935.788 907.423C937.05 912.134 939.182 916.379 941.966 920.031C943.914 922.587 942.941 926.655 939.837 927.487L911.619 935.048C908.515 935.879 905.639 932.843 906.047 929.656C906.632 925.101 906.356 920.358 905.094 915.648C899.903 896.274 879.989 884.777 860.616 889.968C841.243 895.159 829.746 915.073 834.937 934.446C836.199 939.157 838.332 943.402 841.115 947.054C843.063 949.61 842.09 953.678 838.986 954.51L810.768 962.071C807.664 962.902 804.788 959.866 805.197 956.679C805.781 952.124 805.505 947.381 804.243 942.671C799.052 923.297 779.139 911.8 759.765 916.991C740.392 922.182 728.895 942.096 734.086 961.469C735.348 966.18 737.481 970.425 740.264 974.077C742.212 976.633 741.239 980.701 738.135 981.532L709.917 989.094C706.813 989.925 703.937 986.889 704.346 983.702C704.93 979.147 704.654 974.404 703.392 969.694C698.914 952.982 683.481 942.131 666.889 942.797C664.873 942.878 662.98 941.648 662.458 939.699L505.528 354.029C505.006 352.08 506.03 350.068 507.817 349.13C522.519 341.411 530.459 324.297 525.981 307.585C524.719 302.875 522.586 298.63 519.803 294.977C517.855 292.422 518.827 288.354 521.931 287.522L550.15 279.961C553.254 279.129 556.13 282.166 555.721 285.353C555.137 289.908 555.412 294.651 556.675 299.361C561.866 318.734 581.779 330.231 601.152 325.04C620.526 319.849 632.023 299.936 626.832 280.563C625.57 275.852 623.437 271.607 620.653 267.954C618.706 265.399 619.678 261.331 622.782 260.499L651.001 252.938C654.105 252.106 656.981 255.143 656.572 258.33C655.988 262.885 656.263 267.628 657.526 272.338C662.717 291.712 682.63 303.209 702.003 298.017C721.377 292.826 732.874 272.913 727.683 253.54C726.42 248.829 724.288 244.584 721.504 240.932C719.557 238.376 720.529 234.308 723.633 233.476L751.852 225.915C754.956 225.083 757.832 228.12 757.423 231.307C756.839 235.862 757.114 240.605 758.376 245.315C763.567 264.689 783.481 276.186 802.854 270.995C822.228 265.803 833.725 245.89 828.534 226.517C827.271 221.806 825.139 217.561 822.355 213.909C820.407 211.353 821.38 207.285 824.484 206.453L852.703 198.892C855.807 198.061 858.683 201.097 858.274 204.284C857.69 208.839 857.965 213.582 859.227 218.292C864.418 237.666 884.332 249.163 903.705 243.972C923.079 238.781 934.576 218.867 929.384 199.494C928.122 194.783 925.99 190.538 923.206 186.886C921.258 184.33 922.231 180.262 925.335 179.431L953.554 171.869C956.657 171.038 959.534 174.074 959.125 177.261C958.54 181.816 958.816 186.559 960.078 191.269C965.269 210.643 985.183 222.14 1004.56 216.949C1023.93 211.758 1035.43 191.844 1030.24 172.471C1028.97 167.76 1026.84 163.515 1024.06 159.863C1022.11 157.307 1023.08 153.239 1026.19 152.408L1054.4 144.846C1057.51 144.015 1060.38 147.051 1059.98 150.238C1059.39 154.793 1059.67 159.536 1060.93 164.247C1066.12 183.62 1086.03 195.117 1105.41 189.926C1124.78 184.735 1136.28 164.821 1131.09 145.448C1129.82 140.737 1127.69 136.492 1124.91 132.84C1122.96 130.284 1123.93 126.216 1127.04 125.385L1155.26 117.823C1158.36 116.992 1161.24 120.028 1160.83 123.216C1160.24 127.771 1160.52 132.513 1161.78 137.224C1166.97 156.597 1186.88 168.094 1206.26 162.903C1225.63 157.712 1237.13 137.798 1231.94 118.425C1230.67 113.714 1228.54 109.47 1225.76 105.817C1223.81 103.261 1224.78 99.1934 1227.89 98.3618L1256.11 90.8006C1259.21 89.9689 1262.09 93.0054 1261.68 96.1926C1261.09 100.748 1261.37 105.49 1262.63 110.201C1267.82 129.574 1287.74 141.071 1307.11 135.88C1326.48 130.689 1337.98 110.775 1332.79 91.4021C1331.53 86.6916 1329.39 82.4466 1326.61 78.794C1324.66 76.2383 1325.63 72.1705 1328.74 71.3388L1356.96 63.7777C1360.06 62.946 1362.94 65.9824 1362.53 69.1697C1361.94 73.7247 1362.22 78.4672 1363.48 83.1778C1368.67 102.551 1388.59 114.048 1407.96 108.857C1427.33 103.666 1438.83 83.7526 1433.64 64.3792C1432.38 59.6686 1430.24 55.4237 1427.46 51.7711C1425.51 49.2153 1426.49 45.1476 1429.59 44.3159L1457.81 36.7547C1460.91 35.9231 1463.79 38.9595 1463.38 42.1467C1462.79 46.7018 1463.07 51.4443 1464.33 56.1548C1469.52 75.5282 1489.44 87.0252 1508.81 81.8342C1528.18 76.6431 1539.68 56.7297 1534.49 37.3563C1533.23 32.6457 1531.1 28.4008 1528.31 24.7482C1526.36 22.1924 1527.34 18.1247 1530.44 17.293L1558.66 9.73182C1561.76 8.90017 1564.64 11.9366 1564.23 15.1239C1563.65 19.6789 1563.92 24.4214 1565.18 29.1319C1570.03 47.2016 1587.67 58.4193 1605.75 55.6352C1607.93 55.2988 1610.12 56.5411 1610.7 58.6749L1767.24 642.898C1767.81 645.032 1766.53 647.205 1764.47 648.005Z" fill="#F6F6F6" stroke="#131313" stroke-width="4" stroke-linejoin="round" mask="url(#path-4-inside-1_0_1)"/>
<path d="M742.777 642.079C773.965 634.219 790.318 644.248 801.538 653.665L794.084 625.847L672.377 658.458L679.831 686.277C684.839 672.511 693.987 655.649 724.927 646.862L767.787 806.819L785.637 802.036L742.777 642.079ZM815.462 631.051C817.015 636.846 822.012 639.731 827.808 638.179C833.603 636.626 836.488 631.629 834.935 625.833C833.445 620.269 828.386 617.153 822.59 618.705C816.794 620.258 813.972 625.487 815.462 631.051ZM843.003 662.432L826.775 666.78L857.834 782.691L863.397 781.201C870.352 779.337 872.819 773.707 870.955 766.752L843.003 662.432ZM984.04 718.562C979.807 733.362 969.264 746.871 954.195 750.908C898.558 765.816 874.322 654.04 921.846 641.306C931.583 638.697 940.028 642.398 945.94 647.771C948.602 650.287 951.061 651.119 952.684 650.684C954.539 650.187 955.958 648.068 956.542 644.681L958.048 637.321C947.471 634.937 933.511 635.696 921.225 638.988C849.128 658.306 884.211 778.108 947.498 761.151C963.726 756.802 980.358 741.91 985.912 719.054L984.04 718.562ZM1024.86 725.513L1012.19 678.221L1014.57 667.644C1063.1 707.812 1083.07 724.825 1096.28 721.284C1101.38 719.918 1105.78 715.012 1105.59 706.865C1095.57 710.293 1072.31 697.644 1033.23 662.149C1050.85 657.428 1082.91 642.626 1076.03 617.883C1073.36 607.914 1063.58 601.093 1051.76 604.261C1025.56 611.28 1016.75 647.93 1010.82 673.121L981.38 563.238L965.153 567.586L1011.74 741.452L1017.07 740.024C1024.03 738.16 1026.73 732.468 1024.86 725.513ZM1015.34 664.953C1019.93 646.829 1027.58 620.677 1046.82 615.521C1054.47 613.472 1060.75 616.51 1063.49 626.71C1069.76 650.124 1032.27 660.419 1015.34 664.953ZM1182.32 602.321C1178.64 587.654 1161.02 574.736 1139.23 580.575C1102.37 590.451 1093.81 625.292 1101.89 655.429C1109.78 684.871 1132.52 711.326 1165.9 702.381C1218.76 688.219 1206.38 613.269 1156.98 611.597L1192.91 601.969L1192.29 599.65L1182.32 602.321ZM1167.02 606.421L1114.4 620.522C1115.78 602.509 1123.85 587.179 1139.85 582.893C1155.15 578.793 1164.9 591.087 1167.02 606.421ZM1114.33 623.026L1145.85 614.578C1199.55 605.408 1216.66 681.326 1172.91 693.298C1136.74 702.988 1113.18 658.616 1114.33 623.026ZM1189.31 569.639L1189.93 571.957L1202.22 568.665L1226.45 659.075C1231.73 678.78 1241.5 681.876 1251.24 679.267C1261.9 676.41 1267.31 666.014 1271.15 651.57L1269.04 651.14C1267.29 657.573 1263.61 667.008 1256.19 668.996C1246.45 671.605 1244.16 660.291 1239.01 641.05L1218.45 564.317L1236.76 559.409L1236.14 557.091L1206 565.166C1216.34 556.435 1216.17 542.815 1213 530.992L1191.21 536.831C1198.55 541.074 1209.99 559.627 1201.6 566.347L1189.31 569.639ZM1279.81 665.152C1293.55 665.444 1307.51 664.685 1324.43 660.151C1344.6 654.747 1355.56 638.145 1352.39 622.597C1345.25 585.749 1280.61 602.322 1271.92 569.867C1268.13 555.726 1277.92 545.897 1289.57 543.023C1300 540.228 1309.78 543.324 1316.26 548.047C1318.8 550.1 1320.96 550.762 1322.59 550.327C1324.44 549.83 1325.63 547.772 1326.21 544.386L1327.72 537.025C1313.15 536.455 1305.41 536.295 1287.56 541.078C1269.71 545.861 1254.02 565.22 1262.32 584.117C1273.48 610.942 1332.06 601.457 1340.01 631.13C1343.93 645.735 1336.16 654.772 1324.51 657.646C1313.32 660.396 1301.78 656.282 1293.27 652.35C1290.16 650.947 1287.77 650.347 1285.68 650.906C1283.36 651.527 1281.94 653.647 1281.19 657.327L1279.81 665.152Z" fill="#131313"/>
<path d="M650.509 586.693L698.728 573.773C745.556 561.226 762.244 515.012 749.696 468.184C737.086 421.124 702.306 398.888 655.246 411.498L607.027 424.418L650.509 586.693ZM640.629 418.147L655.93 414.048C685.835 406.035 704.218 432.913 716.02 476.959C727.822 521.005 727.888 562.978 697.983 570.991L693.114 572.296C686.391 574.097 682.62 574.859 680.011 565.123L640.629 418.147ZM784.635 464.785C782.542 485.72 769.566 558.768 815.93 546.344C837.489 540.568 846.848 518.928 856.739 490.934L879.615 525.305L912.997 516.36L813.878 368.992L793.941 374.334L784.635 464.785ZM854.648 487.767C850.862 501.454 842.14 512.487 827.072 516.525C799.717 523.854 786.854 472.141 789.815 440.538L794.171 398.374L854.648 487.767ZM945.08 331.352C898.02 343.962 882.736 387.067 895.346 434.126C907.893 480.955 942.976 510.812 989.804 498.264C1036.63 485.717 1052.32 442.256 1039.77 395.428C1027.16 348.368 992.14 318.743 945.08 331.352ZM989.059 495.482C957.531 503.93 939.073 465.643 928.202 425.074C917.332 384.505 914.236 342.35 945.764 333.902C977.291 325.454 995.688 363.51 1006.56 404.079C1017.43 444.648 1020.59 487.034 989.059 495.482ZM1154.98 363.564C1157.07 342.629 1166.57 270.513 1123.22 282.129C1101.89 287.844 1093.18 310.054 1083.29 338.048L1060 303.044L1026.62 311.989L1125.74 459.357L1145.67 454.015L1154.98 363.564ZM1085.38 341.215C1089.46 327.698 1097.01 315.986 1112.08 311.949C1139.9 304.495 1152.76 356.208 1149.8 387.811L1145.44 429.975L1085.38 341.215ZM1240.52 252.19C1193.46 264.8 1178.17 307.904 1190.78 354.964C1203.33 401.792 1238.41 431.649 1285.24 419.102C1332.07 406.554 1347.76 363.094 1335.21 316.266C1322.6 269.206 1287.58 239.58 1240.52 252.19ZM1284.5 416.32C1252.97 424.768 1234.51 386.481 1223.64 345.912C1212.77 305.343 1209.67 263.188 1241.2 254.74C1272.73 246.292 1291.13 284.348 1302 324.916C1312.87 365.485 1316.02 407.872 1284.5 416.32ZM1432.62 379.86C1456.5 373.462 1478.41 354.173 1471.02 326.586C1456.3 271.644 1373.68 291.547 1363.12 252.137C1357.34 230.578 1369.97 220.236 1383.19 216.695C1399.65 212.285 1410.41 229.278 1420.42 236.037C1423.19 238.028 1425.59 238.628 1427.67 238.069C1429.99 237.448 1431.81 234.972 1432.51 231.06L1437.07 211.946C1421.18 208.255 1397.28 209.938 1381.51 214.162C1356.48 220.87 1333.99 240.809 1341.4 269.386C1354.93 322.659 1436.73 302.479 1447.48 342.584C1452.64 361.826 1443.93 373.848 1428.86 377.886C1410.78 382.731 1393.72 365.436 1382.49 358.756C1379.85 357.228 1377.68 356.566 1375.83 357.063C1373.28 357.746 1371.75 360.392 1371 364.072L1366.46 385.165C1388.65 389.158 1416.86 384.084 1432.62 379.86Z" fill="#131313"/>
</svg>
