<svg width="1070" height="64" viewBox="0 0 1070 64" fill="none" xmlns="http://www.w3.org/2000/svg">
<path d="M11.168 28.856C9.184 34.104 0.544 52.024 13.792 52.024C19.296 52.024 22.496 48.12 27.68 41.784L30.816 51H41.184L25.76 6.2H19.808L11.168 28.856ZM27.36 40.888C25.248 43.192 23.2 44.344 19.744 44.344C13.28 44.344 11.168 31.096 14.56 22.136L17.888 13.368L27.36 40.888ZM62.6085 5.56C50.7685 5.56 42.5125 14.584 42.5125 28.6C42.5125 41.4 49.6805 51.64 62.6085 51.64C77.0725 51.64 81.8725 34.424 73.0405 28.728H78.6085V27.96H63.1845V28.728C70.6085 30.904 70.9925 50.872 62.6085 50.872C52.3685 50.872 52.7525 35.448 52.7525 28.664C52.7525 17.464 54.7365 6.328 62.6085 6.328C67.1525 6.328 66.7685 11.832 68.8165 14.2C69.3925 14.904 69.9685 15.224 70.4805 15.224C71.1205 15.224 71.6325 14.712 72.1445 13.816L75.0885 8.312C71.2485 6.776 66.9605 5.56 62.6085 5.56ZM95.092 6.968C101.236 6.968 110.388 11.448 114.484 16.44V6.2H83.7V51H114.484V40.76C110.388 45.752 101.236 50.232 95.092 50.232H93.94V41.464C95.668 32.952 99.764 30.648 103.732 30.648C105.076 30.648 106.484 30.968 107.7 31.352V22.328C102.58 22.328 97.012 28.856 93.94 38.264V6.968H95.092ZM151.526 32.568V41.08L127.206 6.2H116.39L120.102 12.472V51H127.398C129.318 51 129.894 49.912 128.998 48.248C126.118 43.064 120.806 33.784 120.806 24.632V13.496C125.798 20.6 141.99 43.832 146.982 51H152.23V6.2H144.934C143.014 6.2 142.438 7.288 143.334 8.952C146.214 14.136 151.526 23.416 151.526 32.568ZM158.638 51H172.462C185.39 51 193.198 40.76 193.198 27.32C193.198 13.88 185.454 6.2 172.462 6.2H158.638V51ZM168.878 6.968H172.462C180.526 6.968 182.958 14.776 182.958 27.256C182.958 39.736 180.526 50.232 172.462 50.232H171.438C169.582 50.232 168.878 50.168 168.878 47.48V6.968ZM202.293 28.856C200.309 34.104 191.669 52.024 204.917 52.024C210.421 52.024 213.621 48.12 218.805 41.784L221.941 51H232.309L216.885 6.2H210.933L202.293 28.856ZM218.485 40.888C216.373 43.192 214.325 44.344 210.869 44.344C204.405 44.344 202.293 31.096 205.685 22.136L209.013 13.368L218.485 40.888Z" fill="#131313"/>
<path d="M299 0V64" stroke="black" stroke-width="2"/>
<path d="M370.168 28.856C368.184 34.104 359.544 52.024 372.792 52.024C378.296 52.024 381.496 48.12 386.68 41.784L389.816 51H400.184L384.76 6.2H378.808L370.168 28.856ZM386.36 40.888C384.248 43.192 382.2 44.344 378.744 44.344C372.28 44.344 370.168 31.096 373.56 22.136L376.888 13.368L386.36 40.888ZM421.609 5.56C409.769 5.56 401.513 14.584 401.513 28.6C401.513 41.4 408.681 51.64 421.609 51.64C436.073 51.64 440.873 34.424 432.041 28.728H437.609V27.96H422.185V28.728C429.609 30.904 429.993 50.872 421.609 50.872C411.369 50.872 411.753 35.448 411.753 28.664C411.753 17.464 413.737 6.328 421.609 6.328C426.153 6.328 425.769 11.832 427.817 14.2C428.393 14.904 428.969 15.224 429.481 15.224C430.121 15.224 430.632 14.712 431.145 13.816L434.089 8.312C430.249 6.776 425.961 5.56 421.609 5.56ZM454.092 6.968C460.236 6.968 469.388 11.448 473.484 16.44V6.2H442.7V51H473.484V40.76C469.388 45.752 460.236 50.232 454.092 50.232H452.94V41.464C454.668 32.952 458.764 30.648 462.732 30.648C464.076 30.648 465.484 30.968 466.7 31.352V22.328C461.58 22.328 456.012 28.856 452.94 38.264V6.968H454.092ZM510.526 32.568V41.08L486.206 6.2H475.39L479.102 12.472V51H486.398C488.318 51 488.894 49.912 487.998 48.248C485.118 43.064 479.806 33.784 479.806 24.632V13.496C484.798 20.6 500.99 43.832 505.982 51H511.23V6.2H503.934C502.014 6.2 501.438 7.288 502.334 8.952C505.214 14.136 510.526 23.416 510.526 32.568ZM517.638 51H531.462C544.39 51 552.198 40.76 552.198 27.32C552.198 13.88 544.454 6.2 531.462 6.2H517.638V51ZM527.878 6.968H531.462C539.526 6.968 541.958 14.776 541.958 27.256C541.958 39.736 539.526 50.232 531.462 50.232H530.438C528.582 50.232 527.878 50.168 527.878 47.48V6.968ZM561.293 28.856C559.309 34.104 550.669 52.024 563.917 52.024C569.421 52.024 572.621 48.12 577.805 41.784L580.941 51H591.309L575.885 6.2H569.933L561.293 28.856ZM577.485 40.888C575.373 43.192 573.325 44.344 569.869 44.344C563.405 44.344 561.293 31.096 564.685 22.136L568.013 13.368L577.485 40.888Z" fill="#131313"/>
<path d="M658 0V64" stroke="black" stroke-width="2"/>
<path d="M729.168 28.856C727.184 34.104 718.544 52.024 731.792 52.024C737.296 52.024 740.496 48.12 745.68 41.784L748.816 51H759.184L743.76 6.2H737.808L729.168 28.856ZM745.36 40.888C743.248 43.192 741.2 44.344 737.744 44.344C731.28 44.344 729.168 31.096 732.56 22.136L735.888 13.368L745.36 40.888ZM780.609 5.56C768.769 5.56 760.513 14.584 760.513 28.6C760.513 41.4 767.681 51.64 780.609 51.64C795.073 51.64 799.873 34.424 791.041 28.728H796.609V27.96H781.185V28.728C788.609 30.904 788.993 50.872 780.609 50.872C770.369 50.872 770.753 35.448 770.753 28.664C770.753 17.464 772.737 6.328 780.609 6.328C785.153 6.328 784.769 11.832 786.817 14.2C787.393 14.904 787.969 15.224 788.481 15.224C789.121 15.224 789.632 14.712 790.145 13.816L793.089 8.312C789.249 6.776 784.961 5.56 780.609 5.56ZM813.092 6.968C819.236 6.968 828.388 11.448 832.484 16.44V6.2H801.7V51H832.484V40.76C828.388 45.752 819.236 50.232 813.092 50.232H811.94V41.464C813.668 32.952 817.764 30.648 821.732 30.648C823.076 30.648 824.484 30.968 825.7 31.352V22.328C820.58 22.328 815.012 28.856 811.94 38.264V6.968H813.092ZM869.526 32.568V41.08L845.206 6.2H834.39L838.102 12.472V51H845.398C847.318 51 847.894 49.912 846.998 48.248C844.118 43.064 838.806 33.784 838.806 24.632V13.496C843.798 20.6 859.99 43.832 864.982 51H870.23V6.2H862.934C861.014 6.2 860.438 7.288 861.334 8.952C864.214 14.136 869.526 23.416 869.526 32.568ZM876.638 51H890.462C903.39 51 911.198 40.76 911.198 27.32C911.198 13.88 903.454 6.2 890.462 6.2H876.638V51ZM886.878 6.968H890.462C898.526 6.968 900.958 14.776 900.958 27.256C900.958 39.736 898.526 50.232 890.462 50.232H889.438C887.582 50.232 886.878 50.168 886.878 47.48V6.968ZM920.293 28.856C918.309 34.104 909.669 52.024 922.917 52.024C928.421 52.024 931.621 48.12 936.805 41.784L939.941 51H950.309L934.885 6.2H928.933L920.293 28.856ZM936.485 40.888C934.373 43.192 932.325 44.344 928.869 44.344C922.405 44.344 920.293 31.096 923.685 22.136L927.013 13.368L936.485 40.888Z" fill="#131313"/>
<path d="M1017 0V64" stroke="black" stroke-width="2"/>
</svg>
