<svg width="223" height="64" viewBox="0 0 223 64" fill="none" xmlns="http://www.w3.org/2000/svg">
  <path d="M221.992 62.5H63C29.0923 62.5 1.54207 35.2805 1.0079 1.5H160C193.908 1.5 221.458 28.7195 221.992 62.5Z" fill="#E2FF8A"/>
  <rect x="3" y="3.5" width="217" height="57" rx="28.5" fill="#F6F6F6"/>
  <path d="M37.04 38.5C36.52 38.5 36.12 38.36 35.84 38.08C35.56 37.8 35.42 37.4 35.42 36.88V26.02C35.42 25.5 35.56 25.1 35.84 24.82C36.12 24.54 36.52 24.4 37.04 24.4H41.88C42.88 24.4 43.7333 24.5467 44.44 24.84C45.1467 25.1333 45.68 25.5533 46.04 26.1C46.4133 26.6467 46.6 27.3 46.6 28.06C46.6 28.9 46.36 29.6133 45.88 30.2C45.4 30.7867 44.74 31.18 43.9 31.38V31.06C44.8733 31.2333 45.6267 31.62 46.16 32.22C46.7067 32.8067 46.98 33.5733 46.98 34.52C46.98 35.7733 46.5467 36.7533 45.68 37.46C44.8133 38.1533 43.62 38.5 42.1 38.5H37.04ZM38.38 36.2H41.68C42.48 36.2 43.0667 36.0467 43.44 35.74C43.8133 35.42 44 34.9533 44 34.34C44 33.7267 43.8133 33.2667 43.44 32.96C43.0667 32.6533 42.48 32.5 41.68 32.5H38.38V36.2ZM38.38 30.2H41.34C42.1133 30.2 42.6867 30.0533 43.06 29.76C43.4333 29.4667 43.62 29.0267 43.62 28.44C43.62 27.8667 43.4333 27.4333 43.06 27.14C42.6867 26.8467 42.1133 26.7 41.34 26.7H38.38V30.2ZM54.5863 38.72C53.5329 38.72 52.6129 38.5133 51.8263 38.1C51.0529 37.6867 50.4529 37.0933 50.0263 36.32C49.5996 35.5467 49.3863 34.6333 49.3863 33.58C49.3863 32.7933 49.5063 32.0867 49.7463 31.46C49.9863 30.8333 50.3329 30.3 50.7863 29.86C51.2529 29.4067 51.8063 29.0667 52.4463 28.84C53.0863 28.6 53.7996 28.48 54.5863 28.48C55.6396 28.48 56.5529 28.6867 57.3263 29.1C58.1129 29.5133 58.7196 30.1 59.1463 30.86C59.5863 31.62 59.8063 32.5267 59.8063 33.58C59.8063 34.38 59.6796 35.0933 59.4263 35.72C59.1863 36.3467 58.8396 36.8867 58.3863 37.34C57.9329 37.7933 57.3796 38.14 56.7263 38.38C56.0863 38.6067 55.3729 38.72 54.5863 38.72ZM54.5863 36.46C55.0263 36.46 55.4063 36.3533 55.7263 36.14C56.0463 35.9267 56.2996 35.6133 56.4863 35.2C56.6729 34.7733 56.7663 34.2333 56.7663 33.58C56.7663 32.6067 56.5663 31.8933 56.1663 31.44C55.7663 30.9733 55.2396 30.74 54.5863 30.74C54.1596 30.74 53.7796 30.84 53.4463 31.04C53.1263 31.24 52.8729 31.5533 52.6863 31.98C52.5129 32.3933 52.4263 32.9267 52.4263 33.58C52.4263 34.5533 52.6263 35.28 53.0263 35.76C53.4263 36.2267 53.9463 36.46 54.5863 36.46ZM67.1636 38.72C66.1103 38.72 65.1903 38.5133 64.4036 38.1C63.6303 37.6867 63.0303 37.0933 62.6036 36.32C62.1769 35.5467 61.9636 34.6333 61.9636 33.58C61.9636 32.7933 62.0836 32.0867 62.3236 31.46C62.5636 30.8333 62.9103 30.3 63.3636 29.86C63.8303 29.4067 64.3836 29.0667 65.0236 28.84C65.6636 28.6 66.3769 28.48 67.1636 28.48C68.2169 28.48 69.1303 28.6867 69.9036 29.1C70.6903 29.5133 71.2969 30.1 71.7236 30.86C72.1636 31.62 72.3836 32.5267 72.3836 33.58C72.3836 34.38 72.2569 35.0933 72.0036 35.72C71.7636 36.3467 71.4169 36.8867 70.9636 37.34C70.5103 37.7933 69.9569 38.14 69.3036 38.38C68.6636 38.6067 67.9503 38.72 67.1636 38.72ZM67.1636 36.46C67.6036 36.46 67.9836 36.3533 68.3036 36.14C68.6236 35.9267 68.8769 35.6133 69.0636 35.2C69.2503 34.7733 69.3436 34.2333 69.3436 33.58C69.3436 32.6067 69.1436 31.8933 68.7436 31.44C68.3436 30.9733 67.8169 30.74 67.1636 30.74C66.7369 30.74 66.3569 30.84 66.0236 31.04C65.7036 31.24 65.4503 31.5533 65.2636 31.98C65.0903 32.3933 65.0036 32.9267 65.0036 33.58C65.0036 34.5533 65.2036 35.28 65.6036 35.76C66.0036 36.2267 66.5236 36.46 67.1636 36.46ZM76.5409 38.68C76.0476 38.68 75.6676 38.5467 75.4009 38.28C75.1476 38.0133 75.0209 37.6333 75.0209 37.14V25.76C75.0209 25.2533 75.1476 24.8733 75.4009 24.62C75.6676 24.3533 76.0476 24.22 76.5409 24.22C77.0209 24.22 77.3876 24.3533 77.6409 24.62C77.9076 24.8733 78.0409 25.2533 78.0409 25.76V32.74H78.0809L80.9809 29.52C81.2743 29.1867 81.5409 28.94 81.7809 28.78C82.0343 28.6067 82.3676 28.52 82.7809 28.52C83.1943 28.52 83.5076 28.6267 83.7209 28.84C83.9476 29.0533 84.0609 29.3133 84.0609 29.62C84.0743 29.9133 83.9476 30.2133 83.6809 30.52L80.6209 33.94V32.8L84.0209 36.72C84.2743 37.0267 84.3809 37.3333 84.3409 37.64C84.3143 37.9467 84.1809 38.2 83.9409 38.4C83.7009 38.5867 83.3943 38.68 83.0209 38.68C82.5676 38.68 82.2009 38.5933 81.9209 38.42C81.6543 38.2467 81.3809 37.98 81.1009 37.62L78.0809 34.26H78.0409V37.14C78.0409 38.1667 77.5409 38.68 76.5409 38.68ZM96.0392 42.28C95.6926 42.28 95.4059 42.1867 95.1792 42C94.9526 41.8133 94.8192 41.5667 94.7792 41.26C94.7392 40.9667 94.7926 40.6533 94.9392 40.32L96.2792 37.36V38.6L92.7392 30.48C92.6059 30.1333 92.5592 29.8133 92.5992 29.52C92.6526 29.2133 92.7992 28.9733 93.0392 28.8C93.2926 28.6133 93.6392 28.52 94.0792 28.52C94.4392 28.52 94.7259 28.6067 94.9392 28.78C95.1659 28.94 95.3726 29.2533 95.5592 29.72L97.9192 35.72H97.2792L99.7192 29.7C99.9059 29.2467 100.113 28.94 100.339 28.78C100.579 28.6067 100.899 28.52 101.299 28.52C101.646 28.52 101.919 28.6133 102.119 28.8C102.333 28.9733 102.459 29.2067 102.499 29.5C102.553 29.7933 102.499 30.1133 102.339 30.46L97.6392 41.12C97.4392 41.5733 97.2126 41.88 96.9592 42.04C96.7192 42.2 96.4126 42.28 96.0392 42.28ZM109.309 38.72C108.256 38.72 107.336 38.5133 106.549 38.1C105.776 37.6867 105.176 37.0933 104.749 36.32C104.322 35.5467 104.109 34.6333 104.109 33.58C104.109 32.7933 104.229 32.0867 104.469 31.46C104.709 30.8333 105.056 30.3 105.509 29.86C105.976 29.4067 106.529 29.0667 107.169 28.84C107.809 28.6 108.522 28.48 109.309 28.48C110.362 28.48 111.276 28.6867 112.049 29.1C112.836 29.5133 113.442 30.1 113.869 30.86C114.309 31.62 114.529 32.5267 114.529 33.58C114.529 34.38 114.402 35.0933 114.149 35.72C113.909 36.3467 113.562 36.8867 113.109 37.34C112.656 37.7933 112.102 38.14 111.449 38.38C110.809 38.6067 110.096 38.72 109.309 38.72ZM109.309 36.46C109.749 36.46 110.129 36.3533 110.449 36.14C110.769 35.9267 111.022 35.6133 111.209 35.2C111.396 34.7733 111.489 34.2333 111.489 33.58C111.489 32.6067 111.289 31.8933 110.889 31.44C110.489 30.9733 109.962 30.74 109.309 30.74C108.882 30.74 108.502 30.84 108.169 31.04C107.849 31.24 107.596 31.5533 107.409 31.98C107.236 32.3933 107.149 32.9267 107.149 33.58C107.149 34.5533 107.349 35.28 107.749 35.76C108.149 36.2267 108.669 36.46 109.309 36.46ZM120.786 38.72C119.96 38.72 119.273 38.5667 118.726 38.26C118.18 37.9533 117.773 37.4933 117.506 36.88C117.253 36.2533 117.126 35.48 117.126 34.56V30.04C117.126 29.5333 117.253 29.1533 117.506 28.9C117.773 28.6467 118.146 28.52 118.626 28.52C119.106 28.52 119.48 28.6467 119.746 28.9C120.013 29.1533 120.146 29.5333 120.146 30.04V34.64C120.146 35.2267 120.266 35.6667 120.506 35.96C120.746 36.24 121.126 36.38 121.646 36.38C122.22 36.38 122.686 36.18 123.046 35.78C123.42 35.3667 123.606 34.8267 123.606 34.16V30.04C123.606 29.5333 123.733 29.1533 123.986 28.9C124.253 28.6467 124.626 28.52 125.106 28.52C125.6 28.52 125.973 28.6467 126.226 28.9C126.493 29.1533 126.626 29.5333 126.626 30.04V37.14C126.626 38.1667 126.14 38.68 125.166 38.68C124.686 38.68 124.32 38.5467 124.066 38.28C123.813 38.0133 123.686 37.6333 123.686 37.14V35.8L123.986 36.58C123.693 37.26 123.273 37.7867 122.726 38.16C122.18 38.5333 121.533 38.72 120.786 38.72ZM131.323 38.68C130.816 38.68 130.43 38.5467 130.163 38.28C129.896 38.0133 129.763 37.6333 129.763 37.14V30.04C129.763 29.5467 129.89 29.1733 130.143 28.92C130.41 28.6533 130.776 28.52 131.243 28.52C131.723 28.52 132.09 28.6533 132.343 28.92C132.596 29.1733 132.723 29.5467 132.723 30.04V31.08H132.523C132.683 30.28 133.036 29.66 133.583 29.22C134.13 28.78 134.836 28.5333 135.703 28.48C136.036 28.4533 136.29 28.54 136.463 28.74C136.65 28.9267 136.75 29.24 136.763 29.68C136.79 30.0933 136.703 30.42 136.503 30.66C136.316 30.9 135.996 31.0467 135.543 31.1L135.083 31.14C134.323 31.2067 133.756 31.4267 133.383 31.8C133.023 32.1733 132.843 32.7133 132.843 33.42V37.14C132.843 37.6333 132.71 38.0133 132.443 38.28C132.19 38.5467 131.816 38.68 131.323 38.68ZM148.951 38.72C148.365 38.72 147.758 38.6667 147.131 38.56C146.518 38.4533 145.958 38.2733 145.451 38.02C145.185 37.8867 144.991 37.72 144.871 37.52C144.765 37.3067 144.718 37.0933 144.731 36.88C144.745 36.6667 144.811 36.4733 144.931 36.3C145.065 36.1267 145.231 36.0133 145.431 35.96C145.645 35.8933 145.878 35.9133 146.131 36.02C146.678 36.2467 147.178 36.4067 147.631 36.5C148.085 36.5933 148.531 36.64 148.971 36.64C149.545 36.64 149.958 36.5533 150.211 36.38C150.478 36.1933 150.611 35.9533 150.611 35.66C150.611 35.3933 150.525 35.1933 150.351 35.06C150.178 34.9267 149.925 34.8333 149.591 34.78L147.491 34.4C146.665 34.2533 146.025 33.9533 145.571 33.5C145.131 33.0333 144.911 32.44 144.911 31.72C144.911 31.0533 145.098 30.48 145.471 30C145.845 29.5067 146.358 29.1333 147.011 28.88C147.678 28.6133 148.431 28.48 149.271 28.48C149.871 28.48 150.425 28.5333 150.931 28.64C151.438 28.7467 151.925 28.92 152.391 29.16C152.631 29.28 152.798 29.44 152.891 29.64C152.998 29.84 153.031 30.0467 152.991 30.26C152.965 30.4733 152.885 30.6667 152.751 30.84C152.618 31.0133 152.445 31.1267 152.231 31.18C152.031 31.2333 151.798 31.2067 151.531 31.1C151.105 30.9 150.711 30.76 150.351 30.68C149.991 30.5867 149.645 30.54 149.311 30.54C148.711 30.54 148.278 30.64 148.011 30.84C147.745 31.0267 147.611 31.2667 147.611 31.56C147.611 31.7867 147.685 31.98 147.831 32.14C147.991 32.2867 148.231 32.3867 148.551 32.44L150.651 32.82C151.518 32.9667 152.178 33.26 152.631 33.7C153.085 34.1267 153.311 34.7133 153.311 35.46C153.311 36.4733 152.911 37.2733 152.111 37.86C151.325 38.4333 150.271 38.72 148.951 38.72ZM157.355 42.28C156.862 42.28 156.482 42.1467 156.215 41.88C155.962 41.6267 155.835 41.2467 155.835 40.74V30.04C155.835 29.5467 155.962 29.1733 156.215 28.92C156.482 28.6533 156.848 28.52 157.315 28.52C157.808 28.52 158.182 28.6533 158.435 28.92C158.688 29.1733 158.815 29.5467 158.815 30.04V31.4L158.595 30.62C158.795 29.98 159.195 29.4667 159.795 29.08C160.408 28.68 161.108 28.48 161.895 28.48C162.748 28.48 163.495 28.6867 164.135 29.1C164.788 29.5133 165.295 30.1 165.655 30.86C166.015 31.62 166.195 32.5267 166.195 33.58C166.195 34.6333 166.015 35.5467 165.655 36.32C165.295 37.0933 164.795 37.6867 164.155 38.1C163.515 38.5133 162.762 38.72 161.895 38.72C161.122 38.72 160.435 38.5333 159.835 38.16C159.235 37.7733 158.828 37.2733 158.615 36.66H158.855V40.74C158.855 41.2467 158.722 41.6267 158.455 41.88C158.202 42.1467 157.835 42.28 157.355 42.28ZM160.995 36.46C161.422 36.46 161.795 36.3533 162.115 36.14C162.448 35.9267 162.702 35.6133 162.875 35.2C163.062 34.7733 163.155 34.2333 163.155 33.58C163.155 32.6067 162.955 31.8933 162.555 31.44C162.155 30.9733 161.635 30.74 160.995 30.74C160.568 30.74 160.188 30.84 159.855 31.04C159.535 31.24 159.282 31.5533 159.095 31.98C158.908 32.3933 158.815 32.9267 158.815 33.58C158.815 34.5533 159.015 35.28 159.415 35.76C159.815 36.2267 160.342 36.46 160.995 36.46ZM173.562 38.72C172.509 38.72 171.589 38.5133 170.802 38.1C170.029 37.6867 169.429 37.0933 169.002 36.32C168.575 35.5467 168.362 34.6333 168.362 33.58C168.362 32.7933 168.482 32.0867 168.722 31.46C168.962 30.8333 169.309 30.3 169.762 29.86C170.229 29.4067 170.782 29.0667 171.422 28.84C172.062 28.6 172.775 28.48 173.562 28.48C174.615 28.48 175.529 28.6867 176.302 29.1C177.089 29.5133 177.695 30.1 178.122 30.86C178.562 31.62 178.782 32.5267 178.782 33.58C178.782 34.38 178.655 35.0933 178.402 35.72C178.162 36.3467 177.815 36.8867 177.362 37.34C176.909 37.7933 176.355 38.14 175.702 38.38C175.062 38.6067 174.349 38.72 173.562 38.72ZM173.562 36.46C174.002 36.46 174.382 36.3533 174.702 36.14C175.022 35.9267 175.275 35.6133 175.462 35.2C175.649 34.7733 175.742 34.2333 175.742 33.58C175.742 32.6067 175.542 31.8933 175.142 31.44C174.742 30.9733 174.215 30.74 173.562 30.74C173.135 30.74 172.755 30.84 172.422 31.04C172.102 31.24 171.849 31.5533 171.662 31.98C171.489 32.3933 171.402 32.9267 171.402 33.58C171.402 34.5533 171.602 35.28 172.002 35.76C172.402 36.2267 172.922 36.46 173.562 36.46ZM186.142 38.72C185.222 38.72 184.448 38.5667 183.822 38.26C183.208 37.9533 182.748 37.5067 182.442 36.92C182.148 36.3333 182.002 35.5933 182.002 34.7V30.94H181.162C180.788 30.94 180.495 30.84 180.282 30.64C180.082 30.44 179.982 30.1667 179.982 29.82C179.982 29.4467 180.082 29.1667 180.282 28.98C180.495 28.78 180.788 28.68 181.162 28.68H182.002V27.16C182.002 26.6533 182.135 26.2733 182.402 26.02C182.668 25.7533 183.042 25.62 183.522 25.62C184.015 25.62 184.388 25.7533 184.642 26.02C184.895 26.2733 185.022 26.6533 185.022 27.16V28.68H186.922C187.295 28.68 187.582 28.78 187.782 28.98C187.982 29.1667 188.082 29.4467 188.082 29.82C188.082 30.1667 187.982 30.44 187.782 30.64C187.582 30.84 187.295 30.94 186.922 30.94H185.022V34.58C185.022 35.14 185.148 35.56 185.402 35.84C185.668 36.12 186.088 36.26 186.662 36.26C186.862 36.26 187.048 36.24 187.222 36.2C187.395 36.16 187.555 36.1333 187.702 36.12C187.888 36.1067 188.042 36.1667 188.162 36.3C188.282 36.42 188.342 36.6933 188.342 37.12C188.342 37.44 188.288 37.72 188.182 37.96C188.075 38.2 187.888 38.3733 187.622 38.48C187.448 38.5467 187.208 38.6 186.902 38.64C186.608 38.6933 186.355 38.72 186.142 38.72Z" fill="#131313"/>
  <rect x="3" y="3.5" width="217" height="57" rx="28.5" stroke="#131313" stroke-width="2"/>
</svg>