<svg width="164" height="163" viewBox="0 0 164 163" fill="none" xmlns="http://www.w3.org/2000/svg">
<path fill-rule="evenodd" clip-rule="evenodd" d="M162 93.8521C162 61.0796 125.429 20.4982 77.4286 20.4982C29.4286 20.4982 2 61.0797 2 93.8521C2 126.625 82.5571 162 82.5571 162C82.5571 162 162 126.625 162 93.8521ZM4.74286 93.8521C4.74286 65.3255 32.6286 56.7224 77.2 56.7224C121.771 56.7224 159.257 65.3255 159.257 93.8521C159.257 122.379 82.5571 159.347 82.5571 159.347C82.5571 159.347 4.74286 122.379 4.74286 93.8521Z" fill="black"/>
<path d="M77.2 56.7224C32.6286 56.7224 4.74286 65.3255 4.74286 93.8521C4.74286 122.379 82.5571 159.347 82.5571 159.347C82.5571 159.347 159.257 122.379 159.257 93.8521C159.257 65.3255 121.771 56.7224 77.2 56.7224Z" fill="black"/>
<path d="M82.5571 159.347C82.5571 159.347 159.257 122.379 159.257 93.8521C159.257 65.3255 121.771 56.7224 77.2 56.7224C32.6286 56.7224 4.74286 65.3255 4.74286 93.8521C4.74286 122.379 82.5571 159.347 82.5571 159.347ZM82.5571 159.347L82.5571 162M82.5571 162C82.5571 162 162 126.625 162 93.8521C162 61.0796 125.429 20.4982 77.4286 20.4982C29.4286 20.4982 2 61.0797 2 93.8521C2 126.625 82.5571 162 82.5571 162Z" stroke="black" stroke-width="1.37932"/>
<path d="M77.2012 56.7193C32.6298 56.7194 4.74414 65.3224 4.74414 93.849C4.74414 122.376 82.5584 159.344 82.5584 159.344C82.5584 159.344 159.258 122.376 159.258 93.849C159.258 65.3224 121.773 56.7193 77.2012 56.7193Z" fill="#E2FF8A" stroke="black" stroke-width="1.37932"/>
<path d="M82.5571 143.967L82.2798 144.598L82.5591 144.721L82.8377 144.597L82.5571 143.967ZM82.5571 143.967C82.8377 144.597 82.8381 144.597 82.8388 144.596L82.8417 144.595L82.853 144.59L82.897 144.57C82.9357 144.553 82.9933 144.527 83.069 144.493C83.2206 144.424 83.4448 144.322 83.737 144.188C84.3214 143.92 85.1775 143.523 86.2665 143.006C88.4443 141.972 91.5542 140.459 95.2854 138.541C102.746 134.705 112.699 129.247 122.655 122.76C132.606 116.276 142.588 108.748 150.09 100.765C157.573 92.802 162.69 84.2808 162.69 75.8189C162.69 42.6914 131.192 1.30962 82.7857 1.30963C58.5799 1.30963 38.2124 11.6613 23.9024 26.1346C9.60368 40.5964 1.31034 59.218 1.31034 75.8189C1.31034 84.2844 6.50037 92.8067 14.0878 100.769C21.6942 108.751 31.8153 116.279 41.9057 122.763C52.0013 129.25 62.0929 134.707 69.6582 138.542C73.4416 140.46 76.5949 141.973 78.8033 143.007C79.9074 143.524 80.7755 143.922 81.368 144.19C81.6643 144.324 81.8917 144.426 82.0453 144.494C82.1221 144.528 82.1804 144.554 82.2197 144.572L82.2643 144.591L82.2757 144.596L82.2787 144.598C82.2794 144.598 82.2798 144.598 82.5571 143.967ZM5.43252 75.8189C5.43252 68.8319 7.46423 63.0685 11.1762 58.3356C14.896 53.5925 20.3343 49.8456 27.2029 46.9595C40.9553 41.181 60.2965 38.9132 82.5571 38.9131C104.819 38.9131 123.878 41.1813 137.35 46.9576C144.077 49.8421 149.376 53.5869 152.992 58.3282C156.602 63.0605 158.567 68.8263 158.567 75.8189C158.567 82.6659 153.944 90.1545 146.776 97.6091C139.635 105.035 130.094 112.298 120.524 118.69C110.959 125.079 101.391 130.581 94.2119 134.486C90.623 136.438 87.6326 137.991 85.5402 139.055C84.494 139.587 83.6724 139.997 83.1129 140.273C82.881 140.388 82.6942 140.48 82.5549 140.548C82.4133 140.479 82.2225 140.387 81.9853 140.272C81.4176 139.995 80.584 139.585 79.5226 139.053C77.3997 137.989 74.3658 136.436 70.7245 134.484C63.4408 130.578 53.7332 125.077 44.0292 118.688C34.3202 112.295 24.6401 105.032 17.395 97.6055C10.1208 90.1496 5.43252 82.6621 5.43252 75.8189Z" fill="black" stroke="black" stroke-width="1.37932"/>
<path d="M77.1719 38.5313C32.3182 38.5313 4.25586 47.1372 4.25586 75.6732C4.25586 104.209 82.563 141.189 82.563 141.189C82.563 141.189 159.749 104.209 159.749 75.6732C159.749 47.1372 122.026 38.5313 77.1719 38.5313Z" fill="white"/>
<path d="M125.982 67.5245C101.693 53.6554 62.3118 53.6554 38.0223 67.5245C25.8775 74.4591 19.8052 83.548 19.8051 92.6368M49.0173 73.8026C58.1258 68.6017 70.0641 66.0012 82.0023 66.0012C93.9405 66.0012 105.879 68.6017 114.987 73.8026C124.096 79.0035 128.65 85.8202 128.65 92.6368M82.0023 74.8798C74.0435 74.8798 66.0847 76.6134 60.0123 80.0807C53.9399 83.548 50.9037 88.0924 50.9037 92.6368M4.25586 92.6368C4.25586 81.2758 11.8463 69.9147 27.0273 61.2465C42.2082 52.5783 62.1053 48.2441 82.0023 48.2441C101.899 48.2441 121.796 52.5782 136.977 61.2465C152.158 69.9147 159.749 81.2758 159.749 92.6368" stroke="black" stroke-width="5.51728"/>
</svg>
