<svg width="394" height="394" viewBox="0 0 394 394" fill="none" xmlns="http://www.w3.org/2000/svg">
<path d="M118.05 276.657C74.2516 232.859 74.2516 161.848 118.05 118.05C161.848 74.2516 232.859 74.2516 276.657 118.05C320.455 161.848 320.455 232.859 276.657 276.657C232.859 320.455 161.848 320.455 118.05 276.657Z" fill="#E2FF8A"/>
<path d="M105.783 288.217C55.4056 237.839 55.4056 156.161 105.783 105.783C156.161 55.4056 237.839 55.4056 288.217 105.783C338.594 156.161 338.594 237.839 288.217 288.217C237.839 338.594 156.161 338.594 105.783 288.217Z" stroke="#131313" stroke-width="4"/>
<path d="M59.1142 334.886C-17.0381 258.734 -17.0381 135.266 59.1142 59.1142C135.266 -17.0381 258.734 -17.0381 334.886 59.1142C411.038 135.266 411.038 258.734 334.886 334.886C258.734 411.038 135.266 411.038 59.1142 334.886Z" stroke="#131313" stroke-width="4"/>
<path d="M92.7269 300.183L86.8097 293.055C80.6165 285.595 70.5773 287.254 63.6709 292.987C56.7276 298.751 54.733 307.019 60.9568 314.516L66.874 321.645L92.7269 300.183ZM63.9628 317.386L61.3261 314.21C57.2178 309.261 60.5426 302.82 67.1904 297.302C73.8383 291.783 82.2951 288.443 86.4034 293.392L87.3538 294.537C88.2429 295.608 89.0032 296.599 87.452 297.887L63.9628 317.386Z" fill="#131313"/>
<path d="M63.4569 262.459L52.8966 268.357C47.0297 271.634 45.4207 275.447 48.604 281.146C50.8745 285.211 54.8348 288.167 58.5644 286.084C60.7435 284.867 61.7965 282.519 61.4088 280.152C64.6359 282.583 68.1371 282.551 70.5677 281.194C73.4592 279.579 74.4914 276.308 72.7593 273.207C70.5122 269.184 65.2993 268.907 60.8108 269.435L67.8929 265.479L66.7226 263.384C66.0204 262.126 64.7141 261.756 63.4569 262.459ZM55.5306 272.384L57.7309 276.323C61.8505 283.699 53.7784 289.032 49.7291 281.782C47.3181 277.466 51.2143 274.795 55.2373 272.548L55.5306 272.384ZM59.4698 270.184C63.1005 269.695 68.6808 269.547 70.1788 272.229C72.4493 276.294 61.895 282.794 57.7052 275.293L55.9497 272.15L59.4698 270.184Z" fill="#131313"/>
<path d="M33.8882 245.919L34.9737 248.946C35.4435 250.256 36.6226 250.7 37.8323 249.808C41.5065 247.114 47.6183 246.809 53.5111 246.889L56.4267 246.914L39.4612 261.462L41.0813 265.98L60.5787 249.25L59.5905 246.494L33.8882 245.919Z" fill="#131313"/>
<path d="M29.3327 227.718C30.4771 234.34 35.747 238.057 43.5513 236.708C51.3556 235.359 55.0725 230.09 53.9282 223.468C52.7838 216.846 47.5139 213.129 39.7096 214.478C31.9053 215.826 28.1884 221.096 29.3327 227.718ZM53.4079 223.558C54.0454 227.247 49.9625 230.68 42.7257 231.931C35.489 233.182 30.4433 231.326 29.8057 227.636C29.1682 223.947 33.2984 220.505 40.5352 219.255C47.7719 218.004 52.7703 219.868 53.4079 223.558Z" fill="#131313"/>
<path d="M50.3893 208.991C51.2106 206.051 51.6508 203.308 51.5964 199.565C51.5364 195.437 48.8527 192.452 45.3957 192.406C37.567 192.136 37.5146 205.05 31.1793 205.142C28.5396 205.18 27.1643 203.04 27.1809 200.879C27.1934 198.431 28.9524 197.253 30.2809 196.178C30.8506 195.738 31.085 195.35 31.0801 195.014C31.0738 194.582 30.733 194.251 30.0562 193.925L27.9304 192.996C27.107 195.792 26.6515 197.479 26.7052 201.174C26.7596 204.918 29.6485 208.812 33.7218 208.321C40.0988 207.796 41.2725 196.066 46.9839 195.983C49.7196 195.943 51.1351 197.555 51.1192 199.763C51.1075 202.26 48.6828 203.879 47.5511 205.288C47.1262 205.774 46.9405 206.209 46.9467 206.641C46.9544 207.169 47.3447 207.595 48.0215 207.921L50.3893 208.991Z" fill="#131313"/>
<path d="M49.4437 188.347C50.9739 188.481 52.039 187.321 52.1728 185.791C52.1937 185.552 52.1668 185.308 52.1399 185.065L56.1351 186.764L56.1978 186.046C52.7227 183.912 51.5069 182.938 49.9289 182.8C48.4466 182.67 47.0946 183.805 46.9607 185.335C46.8269 186.865 47.9614 188.217 49.4437 188.347Z" fill="#131313"/>
<path d="M58.0662 154.243C59.5087 149.514 58.3024 143.927 53.0685 142.33C43.1057 139.291 37.4266 156.428 28.7034 153.767C24.2041 152.394 24.3067 148.11 25.189 145.217C26.1694 142.003 29.0267 141.52 31.3674 140.427C31.9525 140.154 32.3081 139.811 32.4342 139.398C32.6022 138.847 32.3431 138.216 31.7665 137.638L30.0226 135.952C27.7131 138.259 25.5383 142.262 24.586 145.384C23.0734 150.343 24.1459 156.04 29.779 157.808C39.3325 160.873 44.7797 144.167 53.6406 146.87C57.6808 148.103 58.4054 151.486 57.4951 154.47C56.5007 157.729 52.8458 159.676 50.2172 161.383C49.7978 161.606 49.5481 161.932 49.45 162.253C49.282 162.804 49.5411 163.435 50.1317 163.967L52.3425 166.096C55.7538 161.165 57.1139 157.365 58.0662 154.243Z" fill="#131313"/>
<path d="M64.6145 135.497L66.0187 132.818L59.1172 125.514L68.8048 127.504L70.2091 124.826L52.7649 106.412L51.2715 109.261C50.6252 110.493 51.1411 111.577 52.6393 111.82C57.134 112.551 61.6071 116.631 65.5638 120.765L67.3732 122.689L46.5017 118.358L44.3174 122.524L58.2405 125.326L63.3529 130.77L41.7318 127.455L39.5252 131.664L64.6145 135.497Z" fill="#131313"/>
<path d="M51.8828 96.0945C53.2815 97.1091 54.7914 96.6626 55.6651 95.4581C56.5106 94.2924 56.4945 92.6797 55.0957 91.6651C53.7358 90.6787 52.1977 91.1641 51.3522 92.3297C50.4785 93.5342 50.5229 95.1081 51.8828 96.0945ZM60.5323 96.0237L57.714 99.9092L77.1413 114.001L78.5505 112.058C79.396 110.893 79.1826 109.552 78.0169 108.706L60.5323 96.0237Z" fill="#131313"/>
<path d="M64.0753 91.2081L64.4375 91.5231L66.1072 89.6037L80.2308 101.89C83.5987 104.82 85.8116 103.374 87.0088 101.997C88.584 100.187 88.5673 97.5 87.6876 94.6352L87.223 94.8036C87.6148 96.0352 88.0176 97.9125 87.0094 99.0714C85.7178 100.556 84.2503 99.0251 81.2446 96.4102L69.2576 85.9823L71.6835 83.1938L71.3213 82.8788L66.5011 88.4195C67.6939 85.5127 66.6567 82.8289 64.6287 81.0647L60.7221 85.5553C62.4104 85.3698 66.4385 87.029 65.8396 89.1801L64.0753 91.2081Z" fill="#131313"/>
<path d="M104.964 83.7866L101.616 80.0842C101.134 82.9146 98.8069 88.643 96.7421 90.5104L95.3181 91.7983C92.615 82.0111 91.028 76.3921 89.0081 65.8576L76.548 77.1264L79.8964 80.8288C80.414 77.9662 82.4236 72.4598 84.4884 70.5924L85.1648 69.9806C87.9391 79.7034 89.5617 85.2902 91.685 95.7959L104.964 83.7866Z" fill="#131313"/>
<path d="M112.881 56.2311C110.957 53.5903 106.913 52.5283 103.152 55.0215C96.7512 59.2654 97.2654 66.469 100.714 71.6697C104.082 76.7505 110.197 80.2407 115.958 76.4212C125.439 70.135 118.271 56.8039 108.652 59.6684L114.893 55.5306L114.601 55.0906L112.881 56.2311ZM109.48 58.4856L101.879 63.5252C100.783 60.2209 101.097 56.96 103.417 55.4216C105.738 53.8832 108.09 55.4335 109.48 58.4856ZM102.091 64.0183L106.772 60.915C116.689 55.8946 124.164 68.9069 116.91 73.7743C111.149 77.5938 104.444 70.521 102.091 64.0183Z" fill="#131313"/>
<path d="M128.262 68.2542L130.44 67.2451C131.747 66.6397 132.214 65.365 131.608 64.0585L129.025 58.484C127.171 51.5137 127.989 47.114 132.605 44.9747C133.955 44.3491 133.611 42.9215 133.026 41.6585L132.017 39.4809C127.183 41.7211 127.055 50.3505 127.915 56.0886L122.527 44.4605L118.172 46.4786L128.262 68.2542Z" fill="#131313"/>
<path d="M140.041 24.4517L135.493 25.9876L147.012 60.0949L149.286 59.3269C150.65 58.8662 151.253 57.6495 150.792 56.2852L140.041 24.4517Z" fill="#131313"/>
<path d="M175.64 50.2285L173.232 38.3746C171.895 31.789 168.752 29.0968 162.354 30.3963C157.792 31.3231 153.771 34.1969 154.622 38.3835C155.118 40.8295 157.035 42.5464 159.408 42.897C156.111 45.2321 155.076 48.577 155.63 51.3053C156.289 54.551 159.091 56.5289 162.572 55.8218C167.088 54.9045 168.937 50.0227 169.799 45.5863L171.414 53.5359L173.766 53.0582C175.177 52.7715 175.927 51.6397 175.64 50.2285ZM168.595 39.6593L164.174 40.5575C155.895 42.2392 153.269 32.9276 161.406 31.2746C166.251 30.2904 167.611 34.8143 168.528 39.3301L168.595 39.6593ZM169.493 44.081C168.855 47.6884 167.299 53.0494 164.288 53.6609C159.725 54.5878 156.743 42.5567 165.163 40.8464L168.691 40.1297L169.493 44.081Z" fill="#131313"/>
<path d="M181.17 27.6677L181.78 51.66L184.18 51.5989C185.619 51.5623 186.554 50.5782 186.518 49.1387L186.233 37.9583C188.441 32.2363 191.612 28.5545 194.539 28.48C197.178 28.4129 197.627 30.9463 197.838 39.2476L198.143 51.2437L200.542 51.1827C201.982 51.1461 202.917 50.162 202.88 48.7224L202.636 39.1255C202.439 31.352 202.367 26.6483 196.561 26.796C192.578 26.8974 189.15 29.9135 186.202 36.7107L185.968 27.5457L181.17 27.6677Z" fill="#131313"/>
<path d="M226.92 31.4979C225.749 29.9576 223.804 29.0266 221.527 28.6758C214.695 27.6234 210.151 33.4797 209.062 40.5483C208.302 45.4821 209.173 52.1242 214.628 52.9646C219.42 53.7028 222.811 48.3973 224.991 44.0221L223.507 53.6525L225.879 54.018C227.302 54.2372 228.397 53.4346 228.616 52.0114L233.732 18.8031L228.988 18.0723L226.92 31.4979ZM226.35 35.1982L225.268 42.2194C223.731 45.5765 220.329 51.9002 216.723 51.3447C213.64 50.8697 213.177 45.359 213.93 40.4727C214.617 36.0133 216.954 28.4085 222.111 29.3C224.712 29.7494 226.369 32.2386 226.35 35.1982Z" fill="#131313"/>
<path d="M233.72 53.9641C233.299 55.4413 234.236 56.7066 235.713 57.1275C235.944 57.1933 236.188 57.2129 236.432 57.2325L234.008 60.8342L234.701 61.0315C237.455 58.023 238.641 57.0134 239.075 55.4901C239.483 54.0591 238.624 52.5168 237.147 52.0959C235.67 51.6749 234.128 52.5331 233.72 53.9641Z" fill="#131313"/>
<path d="M254.749 61.4216C255.944 62.9937 258.018 65.0631 260.289 66.2102C264.616 68.3964 268.893 67.1691 272.096 60.8284L282.918 39.407L278.334 37.091L267.512 58.5124C264.417 64.6389 262.669 66.8212 260.312 65.6307C258.77 64.8515 259.659 62.6657 259.302 60.8181C259.133 60.1948 258.856 59.7858 258.427 59.5694C257.913 59.3096 257.269 59.4143 256.644 59.9054L254.749 61.4216Z" fill="#131313"/>
<path d="M289.811 81.1371L296.838 71.2916C300.742 65.8218 300.568 61.6872 295.254 57.8948C291.465 55.19 286.621 54.2097 284.139 57.6869C282.689 59.7185 282.74 62.2908 284.102 64.2656C280.146 63.4468 276.994 64.9712 275.377 67.2373C273.452 69.9331 273.917 73.331 276.808 75.3945C280.559 78.0715 285.39 76.0945 289.223 73.6993L284.51 80.302L286.464 81.6963C287.636 82.5328 288.975 82.3091 289.811 81.1371ZM292.736 68.7765L289.064 66.1553C282.187 61.2476 287.206 52.9763 293.965 57.8004C297.989 60.6726 295.608 64.7524 292.931 68.503L292.736 68.7765ZM290.115 72.4491C287.041 74.4422 282.059 76.9606 279.559 75.1759C275.769 72.4711 282.534 62.0844 289.527 67.0758L292.457 69.1672L290.115 72.4491Z" fill="#131313"/>
<path d="M310.529 70.1555L293.363 86.9284L295.04 88.645C296.046 89.675 297.404 89.6907 298.434 88.6843L306.433 80.8682C312.128 78.592 316.984 78.4106 319.031 80.5049C320.876 82.3932 319.324 84.4457 313.385 90.2492L304.802 98.6356L306.479 100.352C307.486 101.382 308.843 101.398 309.873 100.392L316.739 93.6823C322.301 88.2479 325.699 84.9948 321.64 80.8406C318.856 77.9911 314.313 77.5311 307.326 79.996L313.883 73.5887L310.529 70.1555Z" fill="#131313"/>
<path d="M328.197 114.228L320.635 119.325L321.976 121.315C322.781 122.51 324.114 122.769 325.308 121.964L343.219 109.891L340.536 105.911L329.232 113.53C323.288 114.759 318.559 114.184 316.976 111.835C315.554 109.726 317.475 108.025 324.361 103.384L334.312 96.6768L331.629 92.6966L321.678 99.4038C315.23 103.75 311.357 106.419 314.496 111.076C316.669 114.3 320.975 115.45 328.197 114.228Z" fill="#131313"/>
<path d="M335.945 144.207L346.995 139.286C353.133 136.553 355.08 132.901 352.425 126.937C350.531 122.684 346.854 119.382 342.951 121.12C340.671 122.135 339.41 124.378 339.583 126.771C336.588 124.058 333.098 123.773 330.555 124.906C327.53 126.253 326.206 129.417 327.651 132.662C329.526 136.871 334.692 137.618 339.21 137.498L331.799 140.798L332.776 142.99C333.362 144.306 334.629 144.792 335.945 144.207ZM344.735 135.038L342.9 130.916C339.463 123.199 347.984 118.616 351.362 126.202C353.373 130.719 349.251 133.027 345.042 134.901L344.735 135.038ZM340.613 136.873C336.953 137.032 331.382 136.675 330.133 133.869C328.239 129.615 339.337 124.095 342.832 131.944L344.297 135.233L340.613 136.873Z" fill="#131313"/>
<path d="M335.928 151.264L336.551 153.581C336.926 154.972 338.102 155.649 339.493 155.275L345.426 153.679C352.61 153.038 356.806 154.593 358.128 159.506C358.515 160.943 359.98 160.847 361.324 160.485L363.642 159.862C362.257 154.717 353.776 153.122 347.975 152.993L360.351 149.663L359.103 145.027L335.928 151.264Z" fill="#131313"/>
<path d="M342.166 177.045C341.214 170.149 337.423 167.064 333.704 167.499C331.654 167.738 329.426 169.352 329.749 172.117C330.446 178.077 337.375 179.055 342.099 180.194L367.007 186.561L366.633 183.367C366.471 181.984 365.429 181.333 364.043 181.881C359.342 183.832 353.833 182.592 348.11 181.183L345.27 180.451L365.089 170.16L364.532 165.393L342.166 177.045ZM341.826 177.858L342.043 179.717C338.216 178.811 334 176.646 333.638 172.726C333.519 171.29 334.678 170.043 336.156 169.87C338.635 169.58 341.185 172.375 341.826 177.858Z" fill="#131313"/>
<path d="M347.403 210.302C353.483 218.171 360.524 227.571 366.951 228.03C371.891 228.39 375.131 225.477 375.87 219.861C376.472 215.293 374.433 211.296 370.28 209.006L370.211 209.53C372.853 211.524 373.905 214.567 373.392 217.356C372.767 221.002 369.631 223.493 365.157 222.904C357.026 221.785 348.171 210.354 343.379 204.833L340.94 223.346L345.353 225.863L347.403 210.302Z" fill="#131313"/>
<path d="M369.077 250.864C374.525 233.91 341.607 223.384 336.174 240.292C330.741 257.201 363.63 267.819 369.077 250.864ZM336.631 240.439C340.023 229.883 372.042 240.07 368.621 250.717C365.214 261.32 333.254 250.95 336.631 240.439Z" fill="#131313"/>
<path d="M333.135 262.647C336.023 272.164 339.264 283.452 345.108 286.165C349.597 288.257 353.661 286.685 356.348 281.698C358.534 277.642 358.048 273.181 354.98 269.565L354.729 270.03C356.491 272.833 356.392 276.051 354.922 278.476C353.042 281.662 349.225 282.876 345.253 280.736C338.05 276.8 333.834 262.969 331.317 256.106L322.46 272.543L325.69 276.465L333.135 262.647Z" fill="#131313"/>
<path d="M333.696 306.709L330.577 296.028L330.168 296.561L330.409 297.351C323.355 303.313 313.17 291.749 318.334 283.913C319.78 281.635 322.254 280.145 325.57 280.632L325.71 280.134C321.403 278.887 317.07 280.04 314.178 283.81C306.961 293.217 319.885 308.94 330.576 297.843L334.878 312.819L345.366 299.146L342.929 294.675L333.696 306.709Z" fill="#131313"/>
<path fill-rule="evenodd" clip-rule="evenodd" d="M277 208.851C277 176.079 240.429 135.498 192.429 135.498C144.429 135.498 117 176.079 117 208.851C117 241.623 197.557 276.998 197.557 276.998C197.557 276.998 277 241.623 277 208.851ZM119.743 208.851C119.743 180.325 147.629 171.722 192.2 171.722C236.771 171.722 274.257 180.325 274.257 208.851C274.257 237.377 197.557 274.345 197.557 274.345C197.557 274.345 119.743 237.377 119.743 208.851Z" fill="black"/>
<path d="M192.2 171.722C147.629 171.722 119.743 180.325 119.743 208.851C119.743 237.377 197.557 274.345 197.557 274.345C197.557 274.345 274.257 237.377 274.257 208.851C274.257 180.325 236.771 171.722 192.2 171.722Z" fill="black"/>
<path d="M197.557 274.345C197.557 274.345 274.257 237.377 274.257 208.851C274.257 180.325 236.771 171.722 192.2 171.722C147.629 171.722 119.743 180.325 119.743 208.851C119.743 237.377 197.557 274.345 197.557 274.345ZM197.557 274.345L197.557 276.998M197.557 276.998C197.557 276.998 277 241.623 277 208.851C277 176.079 240.429 135.498 192.429 135.498C144.429 135.498 117 176.079 117 208.851C117 241.623 197.557 276.998 197.557 276.998Z" stroke="black"/>
<path d="M192.199 171.723C147.628 171.723 119.742 180.326 119.742 208.852C119.742 237.378 197.556 274.346 197.556 274.346C197.556 274.346 274.256 237.378 274.256 208.852C274.256 180.326 236.771 171.723 192.199 171.723Z" fill="#E2FF8A" stroke="black"/>
<path d="M197.557 258.965L197.356 259.423L197.559 259.512L197.761 259.422L197.557 258.965ZM197.557 258.965C197.761 259.422 197.761 259.421 197.762 259.421L197.764 259.42L197.776 259.415L197.819 259.395C197.858 259.378 197.915 259.352 197.991 259.318C198.142 259.25 198.366 259.148 198.658 259.014C199.242 258.746 200.097 258.349 201.185 257.832C203.361 256.799 206.469 255.287 210.199 253.37C217.656 249.537 227.602 244.082 237.552 237.6C247.497 231.12 257.465 223.6 264.951 215.634C272.425 207.681 277.5 199.206 277.5 190.818C277.5 157.789 246.08 116.499 197.786 116.499C173.637 116.499 153.316 126.826 139.037 141.268C124.767 155.701 116.5 174.276 116.5 190.818C116.5 199.208 121.647 207.685 129.225 215.637C136.817 223.603 146.924 231.122 157.008 237.602C167.097 244.084 177.182 249.538 184.744 253.371C188.525 255.288 191.677 256.8 193.884 257.834C194.987 258.35 195.854 258.747 196.446 259.015C196.742 259.149 196.969 259.251 197.123 259.319C197.199 259.353 197.257 259.379 197.296 259.396L197.341 259.416L197.352 259.421L197.355 259.422C197.356 259.422 197.356 259.423 197.557 258.965ZM120.243 190.818C120.243 183.791 122.287 177.986 126.027 173.218C129.772 168.442 135.241 164.679 142.129 161.784C155.917 155.991 175.29 153.723 197.557 153.723C219.825 153.723 238.917 155.991 252.424 161.783C259.172 164.676 264.501 168.438 268.143 173.213C271.78 177.98 273.757 183.787 273.757 190.818C273.757 197.743 269.087 205.279 261.912 212.739C254.758 220.179 245.204 227.451 235.629 233.846C226.058 240.239 216.485 245.744 209.303 249.651C205.712 251.604 202.72 253.157 200.626 254.222C199.579 254.754 198.757 255.164 198.197 255.441C197.917 255.58 197.702 255.685 197.558 255.755L197.556 255.757L197.551 255.754C197.404 255.684 197.186 255.579 196.902 255.44C196.334 255.163 195.5 254.753 194.438 254.221C192.313 253.156 189.278 251.602 185.635 249.649C178.348 245.742 168.635 240.237 158.925 233.845C149.211 227.449 139.518 220.177 132.259 212.737C124.979 205.275 120.243 197.74 120.243 190.818Z" fill="black" stroke="black"/>
<path d="M192.17 153.535C147.316 153.535 119.254 162.141 119.254 190.676C119.254 219.212 197.561 256.191 197.561 256.191C197.561 256.191 274.747 219.212 274.747 190.676C274.747 162.141 237.024 153.535 192.17 153.535Z" fill="white"/>
<path d="M240.98 182.524C216.691 168.655 177.31 168.655 153.02 182.524C140.876 189.459 134.803 198.547 134.803 207.636M164.015 188.802C173.124 183.601 185.062 181.001 197 181.001C208.939 181.001 220.877 183.601 229.985 188.802C239.094 194.003 243.648 200.82 243.648 207.636M197 189.879C189.042 189.879 181.083 191.613 175.01 195.08C168.938 198.547 165.902 203.092 165.902 207.636M119.254 207.636C119.254 196.275 126.844 184.914 142.025 176.246C157.206 167.578 177.103 163.244 197 163.244C216.897 163.244 236.794 167.578 251.975 176.246C267.156 184.914 274.747 196.275 274.747 207.636" stroke="black" stroke-width="4"/>
</svg>
