<svg width="394" height="395" viewBox="0 0 394 395" fill="none" xmlns="http://www.w3.org/2000/svg">
<path d="M118.05 277.157C74.2521 233.359 74.2521 162.348 118.05 118.55C161.848 74.7516 232.859 74.7516 276.657 118.55C320.456 162.348 320.456 233.359 276.657 277.157C232.859 320.955 161.848 320.955 118.05 277.157Z" fill="#E2FF8A"/>
<path d="M105.783 288.717C55.4056 238.339 55.4056 156.661 105.783 106.283C156.161 55.9056 237.839 55.9056 288.217 106.283C338.594 156.661 338.594 238.339 288.217 288.717C237.839 339.094 156.161 339.094 105.783 288.717Z" stroke="#131313" stroke-width="4"/>
<path d="M59.1142 335.386C-17.0381 259.234 -17.0381 135.766 59.1142 59.6142C135.266 -16.5381 258.734 -16.5381 334.886 59.6142C411.038 135.766 411.038 259.234 334.886 335.386C258.734 411.538 135.266 411.538 59.1142 335.386Z" stroke="#131313" stroke-width="4"/>
<path d="M92.7264 300.683L86.8092 293.555C80.616 286.095 70.5768 287.754 63.6704 293.487C56.7271 299.251 54.7325 307.519 60.9563 315.016L66.8735 322.145L92.7264 300.683ZM63.9623 317.886L61.3257 314.71C57.2173 309.761 60.5421 303.32 67.19 297.802C73.8378 292.283 82.2946 288.943 86.4029 293.892L87.3533 295.037C88.2425 296.108 89.0027 297.099 87.4515 298.387L63.9623 317.886Z" fill="#131313"/>
<path d="M63.4564 262.959L52.8961 268.857C47.0292 272.134 45.4202 275.947 48.6035 281.646C50.874 285.711 54.8343 288.667 58.5639 286.584C60.743 285.367 61.796 283.019 61.4083 280.652C64.6354 283.083 68.1366 283.051 70.5672 281.694C73.4587 280.079 74.4909 276.808 72.7588 273.707C70.5117 269.684 65.2988 269.407 60.8103 269.935L67.8924 265.979L66.7221 263.884C66.0199 262.626 64.7136 262.256 63.4564 262.959ZM55.5301 272.884L57.7304 276.823C61.85 284.199 53.7779 289.532 49.7286 282.282C47.3177 277.966 51.2138 275.295 55.2368 273.048L55.5301 272.884ZM59.4693 270.684C63.1 270.195 68.6803 270.047 70.1784 272.729C72.4488 276.794 61.8945 283.294 57.7047 275.793L55.9492 272.65L59.4693 270.684Z" fill="#131313"/>
<path d="M33.8877 246.419L34.9732 249.446C35.443 250.756 36.6221 251.2 37.8318 250.308C41.5061 247.614 47.6179 247.309 53.5106 247.389L56.4262 247.414L39.4607 261.962L41.0808 266.48L60.5782 249.75L59.59 246.994L33.8877 246.419Z" fill="#131313"/>
<path d="M29.3322 228.218C30.4766 234.84 35.7465 238.557 43.5508 237.208C51.3551 235.859 55.072 230.59 53.9277 223.968C52.7833 217.346 47.5134 213.629 39.7091 214.978C31.9048 216.326 28.1879 221.596 29.3322 228.218ZM53.4074 224.058C54.045 227.747 49.962 231.18 42.7253 232.431C35.4885 233.682 30.4428 231.826 29.8052 228.136C29.1677 224.447 33.2979 221.005 40.5347 219.755C47.7714 218.504 52.7698 220.368 53.4074 224.058Z" fill="#131313"/>
<path d="M50.3888 209.491C51.2101 206.551 51.6503 203.808 51.5959 200.065C51.5359 195.937 48.8523 192.952 45.3952 192.906C37.5665 192.636 37.5141 205.55 31.1788 205.642C28.5391 205.68 27.1638 203.54 27.1804 201.379C27.1929 198.931 28.9519 197.753 30.2804 196.678C30.8501 196.238 31.0845 195.85 31.0796 195.514C31.0733 195.082 30.7325 194.751 30.0557 194.425L27.93 193.496C27.1065 196.292 26.651 197.979 26.7047 201.674C26.7591 205.418 29.648 209.312 33.7213 208.821C40.0983 208.296 41.272 196.566 46.9834 196.483C49.7191 196.443 51.1347 198.055 51.1188 200.263C51.107 202.76 48.6823 204.379 47.5507 205.788C47.1257 206.274 46.94 206.709 46.9463 207.141C46.9539 207.669 47.3442 208.095 48.021 208.421L50.3888 209.491Z" fill="#131313"/>
<path d="M49.4432 188.847C50.9734 188.981 52.0385 187.821 52.1723 186.291C52.1932 186.052 52.1663 185.808 52.1394 185.565L56.1346 187.264L56.1974 186.546C52.7222 184.412 51.5064 183.438 49.9284 183.3C48.4461 183.17 47.0941 184.305 46.9602 185.835C46.8264 187.365 47.9609 188.717 49.4432 188.847Z" fill="#131313"/>
<path d="M58.0657 154.743C59.5083 150.014 58.3019 144.427 53.068 142.83C43.1053 139.791 37.4261 156.928 28.703 154.267C24.2036 152.894 24.3062 148.61 25.1885 145.717C26.1689 142.503 29.0262 142.02 31.3669 140.927C31.952 140.654 32.3077 140.311 32.4337 139.898C32.6018 139.347 32.3426 138.716 31.766 138.138L30.0221 136.452C27.7126 138.759 25.5378 142.762 24.5855 145.884C23.0729 150.843 24.1454 156.54 29.7785 158.308C39.332 161.373 44.7792 144.667 53.6401 147.37C57.6803 148.603 58.4049 151.986 57.4946 154.97C56.5002 158.229 52.8453 160.176 50.2168 161.883C49.7973 162.106 49.5476 162.432 49.4495 162.753C49.2815 163.304 49.5406 163.935 50.1313 164.467L52.3421 166.596C55.7533 161.665 57.1134 157.865 58.0657 154.743Z" fill="#131313"/>
<path d="M64.614 135.997L66.0182 133.318L59.1167 126.014L68.8044 128.004L70.2086 125.326L52.7644 106.912L51.2711 109.761C50.6247 110.993 51.1406 112.077 52.6388 112.32C57.1335 113.051 61.6066 117.131 65.5634 121.265L67.3727 123.189L46.5012 118.858L44.3169 123.024L58.24 125.826L63.3524 131.27L41.7313 127.955L39.5247 132.164L64.614 135.997Z" fill="#131313"/>
<path d="M51.8823 96.5945C53.281 97.6091 54.7909 97.1626 55.6646 95.9581C56.5101 94.7924 56.494 93.1797 55.0952 92.1651C53.7353 91.1787 52.1972 91.6641 51.3517 92.8297C50.478 94.0342 50.5224 95.6081 51.8823 96.5945ZM60.5318 96.5237L57.7135 100.409L77.1408 114.501L78.55 112.558C79.3955 111.393 79.1821 110.052 78.0164 109.206L60.5318 96.5237Z" fill="#131313"/>
<path d="M64.0748 91.7081L64.437 92.0231L66.1067 90.1037L80.2303 102.39C83.5982 105.32 85.8112 103.874 87.0083 102.497C88.5835 100.687 88.5668 98 87.6871 95.1352L87.2225 95.3036C87.6143 96.5352 88.0171 98.4125 87.0089 99.5714C85.7173 101.056 84.2499 99.5251 81.2441 96.9102L69.2571 86.4823L71.683 83.6938L71.3208 83.3788L66.5007 88.9195C67.6934 86.0127 66.6562 83.3289 64.6282 81.5647L60.7216 86.0553C62.4099 85.8698 66.438 87.529 65.8391 89.6801L64.0748 91.7081Z" fill="#131313"/>
<path d="M104.963 84.2866L101.615 80.5842C101.133 83.4146 98.8064 89.143 96.7416 91.0104L95.3176 92.2983C92.6145 82.5111 91.0275 76.8921 89.0076 66.3576L76.5475 77.6264L79.8959 81.3288C80.4135 78.4662 82.4231 72.9598 84.4879 71.0924L85.1643 70.4806C87.9386 80.2034 89.5612 85.7902 91.6845 96.2959L104.963 84.2866Z" fill="#131313"/>
<path d="M112.88 56.7311C110.957 54.0903 106.912 53.0283 103.152 55.5215C96.7507 59.7654 97.2649 66.969 100.713 72.1697C104.082 77.2505 110.197 80.7407 115.958 76.9212C125.439 70.635 118.27 57.3039 108.651 60.1684L114.892 56.0306L114.6 55.5906L112.88 56.7311ZM109.48 58.9856L101.879 64.0252C100.782 60.7209 101.097 57.46 103.417 55.9216C105.737 54.3832 108.09 55.9335 109.48 58.9856ZM102.09 64.5183L106.771 61.415C116.689 56.3946 124.164 69.4069 116.909 74.2743C111.149 78.0938 104.444 71.021 102.09 64.5183Z" fill="#131313"/>
<path d="M128.262 68.7542L130.44 67.7451C131.746 67.1397 132.213 65.865 131.608 64.5585L129.025 58.984C127.17 52.0137 127.988 47.614 132.605 45.4747C133.955 44.8491 133.611 43.4215 133.025 42.1585L132.016 39.9809C127.182 42.2211 127.054 50.8505 127.915 56.5886L122.526 44.9605L118.171 46.9786L128.262 68.7542Z" fill="#131313"/>
<path d="M140.04 24.9517L135.492 26.4876L147.012 60.5949L149.286 59.8269C150.65 59.3662 151.252 58.1495 150.791 56.7852L140.04 24.9517Z" fill="#131313"/>
<path d="M175.64 50.7285L173.232 38.8746C171.894 32.289 168.751 29.5968 162.354 30.8963C157.791 31.8231 153.771 34.6969 154.621 38.8835C155.118 41.3295 157.034 43.0464 159.407 43.397C156.11 45.7321 155.075 49.077 155.63 51.8053C156.289 55.051 159.091 57.0289 162.572 56.3218C167.087 55.4045 168.937 50.5227 169.799 46.0863L171.414 54.0359L173.766 53.5582C175.177 53.2715 175.926 52.1397 175.64 50.7285ZM168.595 40.1593L164.173 41.0575C155.894 42.7392 153.268 33.4276 161.406 31.7746C166.251 30.7904 167.611 35.3143 168.528 39.8301L168.595 40.1593ZM169.493 44.581C168.854 48.1884 167.298 53.5494 164.288 54.1609C159.725 55.0878 156.742 43.0567 165.162 41.3464L168.69 40.6297L169.493 44.581Z" fill="#131313"/>
<path d="M181.17 28.1677L181.78 52.16L184.179 52.0989C185.619 52.0623 186.554 51.0782 186.517 49.6387L186.233 38.4583C188.44 32.7363 191.611 29.0545 194.539 28.98C197.178 28.9129 197.626 31.4463 197.837 39.7476L198.143 51.7437L200.542 51.6827C201.981 51.6461 202.917 50.662 202.88 49.2224L202.636 39.6255C202.438 31.852 202.366 27.1483 196.56 27.296C192.578 27.3974 189.149 30.4135 186.201 37.2107L185.968 28.0457L181.17 28.1677Z" fill="#131313"/>
<path d="M226.919 31.9979C225.748 30.4576 223.803 29.5266 221.526 29.1758C214.695 28.1234 210.15 33.9797 209.061 41.0483C208.301 45.9821 209.172 52.6242 214.628 53.4646C219.419 54.2028 222.81 48.8973 224.99 44.5221L223.506 54.1525L225.878 54.518C227.302 54.7372 228.397 53.9346 228.616 52.5114L233.732 19.3031L228.988 18.5723L226.919 31.9979ZM226.349 35.6982L225.268 42.7194C223.731 46.0765 220.328 52.4002 216.723 51.8447C213.639 51.3697 213.177 45.859 213.93 40.9727C214.617 36.5133 216.954 28.9085 222.11 29.8C224.712 30.2494 226.368 32.7386 226.349 35.6982Z" fill="#131313"/>
<path d="M233.72 54.4641C233.299 55.9413 234.236 57.2066 235.713 57.6275C235.944 57.6933 236.188 57.7129 236.432 57.7325L234.008 61.3342L234.7 61.5315C237.454 58.523 238.64 57.5134 239.074 55.9901C239.482 54.5591 238.624 53.0168 237.147 52.5959C235.67 52.1749 234.127 53.0331 233.72 54.4641Z" fill="#131313"/>
<path d="M254.748 61.9216C255.944 63.4937 258.017 65.5631 260.288 66.7102C264.615 68.8964 268.892 67.6691 272.096 61.3284L282.918 39.907L278.334 37.591L267.511 59.0124C264.416 65.1389 262.668 67.3212 260.312 66.1307C258.77 65.3515 259.659 63.1657 259.302 61.3181C259.133 60.6948 258.855 60.2858 258.427 60.0694C257.913 59.8096 257.268 59.9143 256.644 60.4054L254.748 61.9216Z" fill="#131313"/>
<path d="M289.811 81.6371L296.838 71.7916C300.742 66.3218 300.567 62.1872 295.254 58.3948C291.464 55.69 286.62 54.7097 284.139 58.1869C282.689 60.2185 282.74 62.7908 284.102 64.7656C280.145 63.9468 276.993 65.4712 275.376 67.7373C273.452 70.4331 273.916 73.831 276.807 75.8945C280.558 78.5715 285.39 76.5945 289.222 74.1993L284.51 80.802L286.463 82.1963C287.635 83.0328 288.974 82.8091 289.811 81.6371ZM292.736 69.2765L289.063 66.6553C282.187 61.7476 287.206 53.4763 293.965 58.3004C297.989 61.1726 295.608 65.2524 292.931 69.003L292.736 69.2765ZM290.114 72.9491C287.041 74.9422 282.059 77.4606 279.558 75.6759C275.769 72.9711 282.533 62.5844 289.527 67.5758L292.457 69.6672L290.114 72.9491Z" fill="#131313"/>
<path d="M310.528 70.6555L293.362 87.4284L295.04 89.145C296.046 90.175 297.404 90.1907 298.434 89.1843L306.433 81.3682C312.128 79.092 316.984 78.9106 319.03 81.0049C320.875 82.8931 319.324 84.9457 313.384 90.7492L304.801 99.1356L306.479 100.852C307.485 101.882 308.843 101.898 309.873 100.892L316.739 94.1823C322.301 88.7479 325.699 85.4948 321.64 81.3406C318.855 78.4911 314.312 78.0311 307.325 80.496L313.883 74.0887L310.528 70.6555Z" fill="#131313"/>
<path d="M328.197 114.728L320.635 119.825L321.976 121.815C322.781 123.01 324.113 123.269 325.308 122.464L343.218 110.391L340.536 106.411L329.232 114.03C323.287 115.259 318.558 114.684 316.975 112.335C315.553 110.226 317.475 108.525 324.361 103.884L334.311 97.1768L331.628 93.1966L321.678 99.9038C315.23 104.25 311.356 106.919 314.495 111.576C316.668 114.8 320.974 115.95 328.197 114.728Z" fill="#131313"/>
<path d="M335.944 144.707L346.994 139.786C353.133 137.053 355.08 133.401 352.424 127.437C350.53 123.184 346.853 119.882 342.951 121.62C340.671 122.635 339.41 124.878 339.582 127.271C336.588 124.558 333.098 124.273 330.555 125.406C327.529 126.753 326.206 129.917 327.651 133.162C329.525 137.371 334.692 138.118 339.21 137.998L331.799 141.298L332.775 143.49C333.361 144.806 334.629 145.292 335.944 144.707ZM344.735 135.538L342.899 131.416C339.463 123.699 347.983 119.116 351.361 126.702C353.372 131.219 349.251 133.527 345.041 135.401L344.735 135.538ZM340.613 137.373C336.953 137.532 331.382 137.175 330.132 134.369C328.238 130.115 339.337 124.595 342.832 132.444L344.296 135.733L340.613 137.373Z" fill="#131313"/>
<path d="M335.927 151.764L336.551 154.081C336.925 155.472 338.102 156.149 339.492 155.775L345.425 154.179C352.609 153.538 356.806 155.093 358.128 160.006C358.514 161.443 359.98 161.347 361.324 160.985L363.641 160.362C362.257 155.217 353.775 153.622 347.974 153.493L360.35 150.163L359.103 145.527L335.927 151.764Z" fill="#131313"/>
<path d="M342.165 177.545C341.214 170.649 337.422 167.564 333.703 167.999C331.653 168.238 329.426 169.852 329.749 172.617C330.446 178.577 337.374 179.555 342.098 180.694L367.006 187.061L366.633 183.867C366.471 182.484 365.428 181.833 364.043 182.381C359.341 184.332 353.832 183.092 348.11 181.683L345.27 180.951L365.089 170.66L364.531 165.893L342.165 177.545ZM341.825 178.358L342.043 180.217C338.215 179.311 334 177.146 333.638 173.226C333.518 171.79 334.677 170.543 336.155 170.37C338.634 170.08 341.184 172.875 341.825 178.358Z" fill="#131313"/>
<path d="M347.402 210.802C353.483 218.671 360.524 228.071 366.951 228.53C371.89 228.89 375.13 225.977 375.87 220.361C376.472 215.793 374.432 211.796 370.28 209.506L370.211 210.03C372.853 212.024 373.904 215.067 373.392 217.856C372.766 221.502 369.63 223.993 365.157 223.404C357.025 222.285 348.17 210.854 343.378 205.333L340.94 223.846L345.353 226.363L347.402 210.802Z" fill="#131313"/>
<path d="M369.077 251.364C374.524 234.41 341.606 223.884 336.174 240.792C330.741 257.701 363.63 268.319 369.077 251.364ZM336.631 240.939C340.022 230.383 372.041 240.57 368.62 251.217C365.214 261.82 333.254 251.45 336.631 240.939Z" fill="#131313"/>
<path d="M333.135 263.147C336.022 272.664 339.263 283.952 345.108 286.665C349.597 288.757 353.661 287.185 356.348 282.198C358.534 278.142 358.047 273.681 354.979 270.065L354.729 270.53C356.49 273.333 356.392 276.551 354.921 278.976C353.041 282.162 349.224 283.376 345.252 281.236C338.049 277.3 333.834 263.469 331.316 256.606L322.459 273.043L325.689 276.965L333.135 263.147Z" fill="#131313"/>
<path d="M333.696 307.209L330.577 296.528L330.168 297.061L330.409 297.851C323.354 303.813 313.169 292.249 318.333 284.413C319.779 282.135 322.253 280.645 325.57 281.132L325.709 280.634C321.403 279.387 317.07 280.54 314.178 284.31C306.961 293.717 319.885 309.44 330.576 298.343L334.877 313.319L345.366 299.646L342.928 295.175L333.696 307.209Z" fill="#131313"/>
<rect x="130.333" y="160.833" width="133.333" height="6.66667" rx="3.33333" stroke="#131313" stroke-width="2"/>
<rect x="122" y="150.833" width="150" height="5" rx="2.5" stroke="#131313" stroke-width="2"/>
<path d="M142.084 150.833C139.566 150.833 138.982 147.311 141.364 146.498L193.334 128.752C195.711 127.94 198.289 127.94 200.666 128.752L253.018 146.628C255.329 147.417 254.762 150.833 252.32 150.833V150.833C252.108 150.833 251.897 150.802 251.694 150.74L201.658 135.578C198.621 134.658 195.38 134.661 192.345 135.588L142.735 150.736C142.524 150.801 142.305 150.833 142.084 150.833V150.833Z" stroke="#131313" stroke-width="2"/>
<path d="M129.591 159.72C128.484 158.059 129.675 155.833 131.671 155.833H262.329C264.325 155.833 265.516 158.059 264.409 159.72V159.72C263.945 160.416 263.165 160.833 262.329 160.833H131.671C130.835 160.833 130.055 160.416 129.591 159.72V159.72Z" stroke="#131313" stroke-width="2"/>
<rect x="130.333" y="260.833" width="133.333" height="6.66667" rx="3.33333" stroke="#131313" stroke-width="2"/>
<rect x="139.5" y="172.5" width="5" height="83.3333" rx="2.5" stroke="#131313" stroke-width="2"/>
<rect x="172.834" y="172.5" width="5" height="83.3333" rx="2.5" stroke="#131313" stroke-width="2"/>
<rect x="206.167" y="172.5" width="5" height="83.3333" rx="2.5" stroke="#131313" stroke-width="2"/>
<rect x="239.5" y="172.5" width="5" height="83.3333" rx="2.5" stroke="#131313" stroke-width="2"/>
<rect x="144.5" y="172.5" width="5" height="83.3333" rx="2.5" stroke="#131313" stroke-width="2"/>
<rect x="177.834" y="172.5" width="5" height="83.3333" rx="2.5" stroke="#131313" stroke-width="2"/>
<rect x="211.167" y="172.5" width="5" height="83.3333" rx="2.5" stroke="#131313" stroke-width="2"/>
<rect x="244.5" y="172.5" width="5" height="83.3333" rx="2.5" stroke="#131313" stroke-width="2"/>
<rect x="149.5" y="172.5" width="5" height="83.3333" rx="2.5" stroke="#131313" stroke-width="2"/>
<rect x="182.833" y="172.5" width="5" height="83.3333" rx="2.5" stroke="#131313" stroke-width="2"/>
<rect x="216.167" y="172.5" width="5" height="83.3333" rx="2.5" stroke="#131313" stroke-width="2"/>
<rect x="249.5" y="172.5" width="5" height="83.3333" rx="2.5" stroke="#131313" stroke-width="2"/>
<rect x="135.333" y="167.5" width="23.3333" height="5" rx="2.5" stroke="#131313" stroke-width="2"/>
<rect x="168.667" y="167.5" width="23.3333" height="5" rx="2.5" stroke="#131313" stroke-width="2"/>
<rect x="202" y="167.5" width="23.3333" height="5" rx="2.5" stroke="#131313" stroke-width="2"/>
<rect x="235.333" y="167.5" width="23.3333" height="5" rx="2.5" stroke="#131313" stroke-width="2"/>
<rect x="135.334" y="255.833" width="23.3333" height="5" rx="2.5" stroke="#131313" stroke-width="2"/>
<rect x="168.667" y="255.833" width="23.3333" height="5" rx="2.5" stroke="#131313" stroke-width="2"/>
<rect x="202" y="255.833" width="23.3333" height="5" rx="2.5" stroke="#131313" stroke-width="2"/>
<rect x="235.333" y="255.833" width="23.3333" height="5" rx="2.5" stroke="#131313" stroke-width="2"/>
</svg>