<svg width="64" height="65" viewBox="0 0 64 65" fill="none" xmlns="http://www.w3.org/2000/svg">
<path d="M32.0001 27.4999C32.0001 24.7499 34.3126 22.4624 37.0626 22.4999C38.0257 22.511 38.965 22.8001 39.7678 23.3322C40.5705 23.8644 41.2024 24.6172 41.5876 25.4999H46.0001L41.9626 29.5374C41.7021 33.5931 39.9067 37.3974 36.9416 40.1767C33.9765 42.9561 30.0642 44.5019 26.0001 44.4999C22.0001 44.4999 21.0001 42.9999 21.0001 42.9999C21.0001 42.9999 25.0001 41.4999 27.0001 38.4999C27.0001 38.4999 19.0001 34.4999 21.0001 23.4999C21.0001 23.4999 26.0001 28.4999 32.0001 29.4999V27.4999Z" fill="#F6F6F6" stroke="#131313" stroke-width="2" stroke-linecap="round" stroke-linejoin="round"/>
<rect x="1" y="1.5" width="62" height="62" rx="31" stroke="#131313" stroke-width="2"/>
</svg>
