<svg width="470" height="189" viewBox="0 0 470 189" fill="none" xmlns="http://www.w3.org/2000/svg">
<path d="M164.08 91.5154L222.752 158.595H204.393L153.297 99.9449L133.041 114.868V158.595H119.057V0.5H133.041V97.517L198.83 49.3678H221.19L164.08 91.5154ZM65.7991 0.5H55.1257L54.8095 1.18627C41.7032 29.6731 24.7508 44.9135 1.46152 49.0959L0.5 49.2707V62.407L1.84225 62.2063C22.8278 58.9692 41.8516 48.3708 51.5313 34.6971L51.4087 146.89H0.5V158.595H105.686V146.89H65.7991V0.5ZM314.651 5.92544L315.671 5.47872L313.799 0.623011L312.721 1.01794C264.052 18.8287 228.734 67.3598 228.734 116.39C228.734 145.524 243.021 172.237 266.956 187.904L267.859 188.5L271.318 183.968L270.46 183.243C254.017 169.388 244.202 145.103 244.202 118.28C244.202 69.6582 272.512 24.5001 314.651 5.92544ZM431.278 1.10858L430.375 0.519423L426.916 5.05141L427.774 5.77006C444.217 19.625 454.032 43.91 454.032 70.7329C454.032 119.381 425.722 164.539 383.583 183.107L382.564 183.56L384.435 188.442L385.513 188.047C434.182 170.191 469.5 121.692 469.5 72.6234C469.5 43.5151 455.213 16.8087 431.278 1.10858ZM317.058 143.543C309.869 149.02 309.869 125.991 297.286 126.625C272.202 127.745 278.055 162.176 301.693 159.372C312.212 158.621 322.853 151.571 341.948 122.514L338.889 114.428C330.668 127.182 322.924 138.363 317.058 143.536V143.543ZM404.724 113.334L398.4 110.362C392.004 122.378 385.951 139.38 374.942 139.729C366.618 139.988 364.617 126.871 360.623 117.872C360.623 117.872 359.623 115.198 358.042 110.971H358.003C358.003 110.971 338.411 59.7526 337.146 57.4412C322.24 31.3564 302.054 79.7322 293.207 95.3546L299.531 98.3198C305.984 86.5237 320.181 56.1529 331.152 75.5433C333.01 79.1689 350.356 125.525 350.408 125.641C358.487 144.261 362.623 159.042 370.541 159.042C383.803 159.042 394.824 131.118 404.201 114.37L404.724 113.334ZM384.719 62.7437C389.539 58.5613 391.172 59.9403 393.424 65.3981C395.276 69.5093 397.593 74.624 403.646 74.7729C411.08 75.0772 417.791 68.5705 416.959 61.0409C416.075 51.7698 408.331 46.8493 398.909 47.9694C387.649 48.9599 377.485 55.7385 356.603 88.1487L359.687 96.3193C370.561 79.0265 378.079 68.946 384.745 62.7372L384.719 62.7437ZM358.003 110.971C355.867 105.319 357.964 110.971 357.964 110.971H358.003Z" fill="black"/>
</svg>
