<svg width="152" height="152" viewBox="0 0 152 152" fill="none" xmlns="http://www.w3.org/2000/svg">
<path d="M69.0374 116.798C68.9502 116.839 68.863 116.87 68.7759 116.906C68.6016 116.983 68.4221 117.055 68.2427 117.121C68.0889 117.178 67.9351 117.224 67.7812 117.27C67.6941 117.296 67.6018 117.326 67.5147 117.352C67.3096 117.408 67.1045 117.455 66.8943 117.501C66.843 117.511 66.7969 117.526 66.7456 117.537C66.5046 117.583 66.2534 117.624 66.0022 117.655C65.9304 117.665 65.8638 117.67 65.792 117.68C65.6433 117.696 65.4895 117.706 65.3408 117.721C65.1101 117.737 64.8743 117.747 64.6384 117.752C64.5256 117.752 64.4179 117.757 64.3052 117.757C64.0796 117.757 63.854 117.747 63.6233 117.731C63.5002 117.726 63.3772 117.721 63.249 117.716C62.967 117.696 62.6799 117.66 62.3877 117.619C62.2851 117.603 62.1775 117.583 62.0698 117.567C61.875 117.537 61.6801 117.501 61.4802 117.46C61.3725 117.439 61.2597 117.414 61.1521 117.388C60.9521 117.342 60.7573 117.291 60.5573 117.239C60.4497 117.209 60.3471 117.183 60.2395 117.152C60.0139 117.085 59.7832 117.014 59.5525 116.937C59.4756 116.911 59.4038 116.891 59.3269 116.86C59.0192 116.752 58.7116 116.639 58.404 116.511C58.3322 116.48 58.2553 116.45 58.1836 116.419C57.9426 116.316 57.7016 116.214 57.4606 116.101C57.3479 116.05 57.2402 115.999 57.1274 115.942C56.9172 115.84 56.7019 115.737 56.4865 115.624C56.3686 115.563 56.2455 115.501 56.1276 115.44C55.8251 115.281 55.5226 115.117 55.2202 114.942L54.2255 114.368C53.9333 114.199 53.641 114.02 53.3539 113.84C53.2822 113.794 53.2053 113.753 53.1335 113.707C52.8054 113.497 52.4772 113.281 52.1542 113.061C52.0671 112.999 51.9799 112.933 51.8876 112.871C51.6518 112.707 51.4159 112.538 51.1801 112.364C51.0571 112.271 50.9391 112.179 50.8161 112.087C50.6161 111.933 50.4162 111.779 50.2162 111.62C50.0881 111.518 49.9548 111.41 49.8266 111.302C49.6369 111.148 49.4523 110.989 49.2626 110.831C49.1344 110.718 49.0011 110.605 48.873 110.492C48.6884 110.328 48.4987 110.159 48.3141 109.99C48.1911 109.877 48.068 109.764 47.945 109.646C47.745 109.457 47.5502 109.267 47.3554 109.072C47.2528 108.969 47.1503 108.872 47.0478 108.77C46.7555 108.477 46.4684 108.175 46.1864 107.867C45.8839 107.539 45.5814 107.206 45.2892 106.873C45.2123 106.785 45.1405 106.693 45.0636 106.606C44.8534 106.36 44.6381 106.114 44.433 105.868C44.3151 105.724 44.2023 105.581 44.0844 105.442C43.9203 105.237 43.7562 105.037 43.5922 104.832C43.4179 104.612 43.2487 104.386 43.0795 104.165C42.9667 104.017 42.8539 103.873 42.7411 103.719C42.3873 103.237 42.0387 102.75 41.7003 102.258C41.6029 102.115 41.5106 101.976 41.4132 101.833C41.2184 101.54 41.0236 101.243 40.8287 100.941C40.7313 100.787 40.6339 100.633 40.5365 100.479C40.3314 100.151 40.1315 99.8127 39.9315 99.4794C39.8443 99.3307 39.7521 99.1821 39.6649 99.0282C39.3983 98.5668 39.142 98.1003 38.8907 97.6286C38.7831 97.4235 38.6754 97.2184 38.5677 97.0082C38.4703 96.8236 38.378 96.6391 38.2857 96.4545C38.1422 96.1674 37.9986 95.8803 37.8602 95.588C37.8141 95.4957 37.773 95.4035 37.7269 95.3112C37.5475 94.9318 37.3783 94.5524 37.2091 94.1679C37.1681 94.0704 37.1271 93.973 37.0809 93.8705C36.9579 93.5834 36.8348 93.2963 36.7169 93.0092C36.6605 92.8759 36.6092 92.7374 36.5528 92.6041C36.4503 92.3427 36.3477 92.0812 36.2503 91.8197C36.1991 91.6813 36.1427 91.5377 36.0914 91.3993C35.9889 91.1276 35.8966 90.8507 35.7992 90.5738C35.753 90.4457 35.7069 90.3124 35.6607 90.1842C35.5223 89.7792 35.3941 89.3793 35.266 88.9691C35.1429 88.5692 35.0301 88.1744 34.9224 87.7745C34.8917 87.6566 34.8609 87.5387 34.8302 87.4156C34.7584 87.1388 34.6866 86.8568 34.62 86.5799C34.5892 86.4415 34.5533 86.3082 34.5225 86.1698C34.461 85.8929 34.3995 85.6161 34.3431 85.3443C34.3175 85.2264 34.2918 85.1034 34.2713 84.9854C34.1944 84.5958 34.1278 84.2113 34.0662 83.8216C34.0611 83.796 34.0611 83.7703 34.056 83.7498C33.9996 83.3858 33.9483 83.0269 33.9073 82.668C33.8919 82.545 33.8817 82.422 33.8663 82.2989C33.8355 82.0323 33.8099 81.7657 33.7894 81.5042C33.7791 81.3658 33.7689 81.2325 33.7586 81.0992C33.7381 80.8377 33.7227 80.5762 33.7125 80.3148C33.7074 80.1866 33.6971 80.0635 33.6971 79.9354C33.6817 79.556 33.6766 79.1817 33.6766 78.8074L33.8099 30.9778C33.8099 30.5831 33.8202 30.1986 33.8355 29.8192C33.8407 29.7166 33.8509 29.6141 33.856 29.5115C33.8714 29.2501 33.8868 28.9835 33.9124 28.7271C33.9227 28.5887 33.9381 28.4554 33.9534 28.3221C33.974 28.1016 33.9996 27.8863 34.0304 27.6709C34.0509 27.5223 34.0714 27.3787 34.097 27.2352C34.1278 27.0403 34.1585 26.8455 34.1944 26.6558C34.2252 26.502 34.2559 26.3482 34.2867 26.1944C34.3226 26.0201 34.3636 25.8457 34.4046 25.6766C34.4456 25.5074 34.4867 25.3433 34.5328 25.1792C34.5738 25.0254 34.62 24.8716 34.6661 24.7229C34.7276 24.5281 34.7892 24.3384 34.8558 24.1538C34.9019 24.0205 34.9481 23.8924 34.9994 23.7642C35.1019 23.4976 35.2096 23.2412 35.3224 22.99C35.3685 22.8875 35.4095 22.7849 35.4557 22.6875C35.5838 22.4261 35.7171 22.1748 35.8556 21.9287C35.9017 21.8467 35.9478 21.7698 35.994 21.6929C36.0914 21.5288 36.1888 21.3648 36.2913 21.2058C36.3375 21.1341 36.3888 21.0623 36.4349 20.9905C36.5374 20.8367 36.6451 20.688 36.7528 20.5393C36.8041 20.4675 36.8553 20.4009 36.9066 20.3342C37.0348 20.1702 37.1629 20.0164 37.2962 19.8626C37.3321 19.8215 37.3629 19.7805 37.3988 19.7395C37.568 19.5498 37.7423 19.3704 37.9217 19.1961C37.9679 19.1499 38.014 19.1089 38.0653 19.0628C38.2037 18.9346 38.3421 18.8115 38.4806 18.6885C38.5421 18.6372 38.6087 18.5808 38.6754 18.5295C38.8138 18.4219 38.9523 18.3142 39.0907 18.2117C39.1522 18.1655 39.2137 18.1194 39.2753 18.0784C39.4752 17.9399 39.6803 17.8066 39.8956 17.6836L23.3406 27.3069C23.1304 27.43 22.9253 27.5633 22.7202 27.7017C22.6587 27.7427 22.5972 27.7889 22.5357 27.835C22.3921 27.9375 22.2537 28.0401 22.1204 28.1529C22.0537 28.2042 21.9922 28.2554 21.9307 28.3118C21.7871 28.4297 21.6487 28.5579 21.5154 28.681C21.4693 28.7271 21.418 28.7681 21.3718 28.8143C21.1924 28.9886 21.0181 29.168 20.8489 29.3577C20.813 29.3987 20.7822 29.4398 20.7464 29.4808C20.6131 29.6346 20.4849 29.7884 20.3567 29.9525C20.3054 30.0191 20.2542 30.0909 20.2029 30.1575C20.0952 30.3062 19.9876 30.4549 19.885 30.6087C19.8389 30.6805 19.7876 30.7523 19.7415 30.824C19.7158 30.8599 19.6902 30.8958 19.6646 30.9368C19.5877 31.0599 19.5159 31.1881 19.439 31.3162C19.3928 31.3931 19.3467 31.47 19.3005 31.5521C19.1621 31.7982 19.0288 32.0494 18.9006 32.316C18.8801 32.3519 18.8648 32.3929 18.8442 32.4288C18.8135 32.4903 18.793 32.557 18.7622 32.6185C18.6494 32.8697 18.5366 33.126 18.4392 33.3927C18.4187 33.4439 18.3982 33.4849 18.3777 33.5362C18.3469 33.6182 18.3264 33.7054 18.2957 33.7823C18.229 33.9669 18.1675 34.1566 18.106 34.3514C18.0855 34.4232 18.0547 34.4898 18.0342 34.5667C18.0085 34.6436 17.9932 34.7308 17.9727 34.8128C17.9265 34.9769 17.8855 35.1461 17.8445 35.3101C17.824 35.3922 17.7983 35.4742 17.7778 35.5614C17.7573 35.6485 17.7419 35.7408 17.7214 35.8331C17.6907 35.9869 17.6599 36.1407 17.6292 36.2945C17.6138 36.3766 17.5933 36.4586 17.5779 36.5406C17.5574 36.6483 17.5471 36.7611 17.5266 36.8739C17.5061 37.0174 17.4805 37.1661 17.46 37.3097C17.4497 37.3814 17.4395 37.443 17.4292 37.5147C17.4087 37.6583 17.3984 37.8121 17.3831 37.9557C17.3677 38.089 17.3523 38.2223 17.342 38.3607C17.3369 38.4068 17.3318 38.453 17.3267 38.4991C17.3113 38.7093 17.301 38.9298 17.2856 39.1451C17.2805 39.2477 17.2703 39.3451 17.2651 39.4527C17.2651 39.4733 17.26 39.4886 17.26 39.5091C17.2446 39.8475 17.2395 40.1962 17.2344 40.5448C17.2344 40.5653 17.2344 40.5858 17.2344 40.6063L17.1011 88.4359C17.1011 88.764 17.1062 89.0921 17.1165 89.4203C17.1165 89.4664 17.1216 89.5177 17.1216 89.5638C17.1267 89.692 17.1318 89.8202 17.137 89.9432C17.1472 90.1124 17.1472 90.2765 17.1626 90.4457C17.1677 90.538 17.178 90.6354 17.1831 90.7277C17.1934 90.8661 17.2036 90.9994 17.2139 91.1378C17.2241 91.2455 17.2292 91.3531 17.2395 91.4608C17.2549 91.6198 17.2754 91.7787 17.2908 91.9376C17.3062 92.0607 17.3164 92.1837 17.3318 92.3016C17.3369 92.358 17.342 92.4093 17.3523 92.4657C17.3933 92.7733 17.4343 93.0809 17.4856 93.3886C17.4907 93.4142 17.4907 93.4398 17.4958 93.4603C17.4958 93.4655 17.4958 93.4655 17.4958 93.4706C17.5471 93.809 17.6086 94.1422 17.6702 94.4806C17.6804 94.5267 17.6907 94.5729 17.7009 94.6242C17.7214 94.7421 17.7471 94.86 17.7727 94.9779C17.8086 95.1522 17.8394 95.3266 17.8804 95.4957C17.9009 95.5983 17.9316 95.7008 17.9522 95.8085C17.9829 95.9418 18.0137 96.0802 18.0444 96.2135C18.0701 96.3161 18.0906 96.4186 18.1162 96.5211C18.1624 96.6955 18.2085 96.8749 18.2546 97.0492C18.2854 97.1671 18.3162 97.2851 18.3469 97.403C18.3572 97.4491 18.3726 97.4953 18.3828 97.5414C18.4751 97.8798 18.5725 98.213 18.6802 98.5514C18.6853 98.5668 18.6904 98.5771 18.6956 98.5924C18.8084 98.9616 18.9314 99.3358 19.0545 99.705C19.0647 99.7409 19.0801 99.7716 19.0903 99.8075C19.1365 99.9408 19.1826 100.074 19.2288 100.202C19.3005 100.407 19.3672 100.607 19.439 100.812C19.4646 100.884 19.4902 100.951 19.5159 101.023C19.5672 101.166 19.6235 101.305 19.6748 101.448C19.7312 101.592 19.7825 101.735 19.8338 101.874C19.8799 101.992 19.9312 102.115 19.9773 102.233C20.0286 102.366 20.085 102.504 20.1414 102.638C20.1773 102.725 20.208 102.812 20.2439 102.894C20.3259 103.094 20.4182 103.299 20.5054 103.499C20.5464 103.596 20.5874 103.694 20.6336 103.791C20.6489 103.822 20.6592 103.853 20.6746 103.883C20.8233 104.217 20.9719 104.55 21.1309 104.883C21.1411 104.899 21.1463 104.919 21.1565 104.935C21.1975 105.027 21.2437 105.119 21.2898 105.206C21.4026 105.447 21.5205 105.688 21.6384 105.929C21.6641 105.98 21.6897 106.027 21.7154 106.073C21.8076 106.257 21.9051 106.437 21.9973 106.621C22.0794 106.78 22.1614 106.944 22.2486 107.108C22.2742 107.154 22.2998 107.201 22.3255 107.247C22.5767 107.718 22.833 108.185 23.0996 108.646C23.1355 108.703 23.1663 108.764 23.2022 108.821C23.2586 108.913 23.315 109.005 23.3714 109.098C23.5713 109.436 23.7713 109.769 23.9763 110.097C24.0738 110.251 24.1712 110.405 24.2686 110.559C24.4583 110.856 24.6531 111.154 24.8531 111.451C24.9146 111.543 24.971 111.635 25.0325 111.728C25.0684 111.779 25.1043 111.83 25.1402 111.882C25.4786 112.374 25.8221 112.866 26.181 113.343C26.1912 113.358 26.2015 113.374 26.2168 113.389C26.3143 113.522 26.4168 113.65 26.5142 113.779C26.6834 114.004 26.8526 114.23 27.0269 114.45C27.0474 114.481 27.0679 114.507 27.0936 114.537C27.232 114.712 27.3755 114.886 27.5191 115.06C27.637 115.204 27.7498 115.347 27.8677 115.491C27.8831 115.511 27.8985 115.532 27.919 115.552C28.1087 115.778 28.2984 115.999 28.4932 116.224C28.5701 116.316 28.647 116.409 28.7291 116.496C28.7342 116.501 28.7444 116.511 28.7496 116.516C29.0367 116.839 29.3238 117.162 29.616 117.475C29.6212 117.48 29.6212 117.48 29.6263 117.485C29.8826 117.762 30.139 118.029 30.4005 118.295C30.4312 118.326 30.462 118.357 30.4927 118.388C30.5953 118.49 30.6978 118.588 30.8004 118.69C30.9388 118.829 31.0772 118.967 31.2208 119.105C31.2772 119.162 31.3336 119.208 31.39 119.264C31.513 119.382 31.6361 119.495 31.7591 119.608C31.8668 119.705 31.9693 119.808 32.0718 119.9C32.1539 119.972 32.2359 120.039 32.3128 120.11C32.441 120.223 32.5743 120.336 32.7025 120.449C32.7845 120.521 32.8665 120.592 32.9486 120.664C33.0511 120.751 33.1588 120.838 33.2664 120.92C33.3946 121.028 33.5279 121.136 33.6561 121.238C33.7176 121.29 33.7791 121.341 33.8407 121.387C33.9791 121.495 34.1175 121.597 34.2559 121.705C34.379 121.797 34.4969 121.889 34.62 121.982C34.661 122.012 34.6969 122.043 34.7379 122.074C34.9327 122.218 35.1275 122.351 35.3224 122.489C35.4095 122.551 35.4967 122.617 35.589 122.679C35.6043 122.689 35.6197 122.7 35.6351 122.71C35.9325 122.915 36.235 123.115 36.5375 123.304C36.5477 123.31 36.558 123.32 36.5682 123.325C36.64 123.371 36.7118 123.412 36.7887 123.458C37.0091 123.597 37.2245 123.73 37.4501 123.863C37.5218 123.904 37.5936 123.945 37.6603 123.986L38.6549 124.561C38.8856 124.694 39.1214 124.827 39.3522 124.95C39.4239 124.986 39.4906 125.022 39.5624 125.058C39.6803 125.119 39.8033 125.181 39.9213 125.242C40.0238 125.294 40.1263 125.35 40.2289 125.401C40.3417 125.458 40.4545 125.504 40.5621 125.56C40.6749 125.612 40.7826 125.668 40.8954 125.719C40.9518 125.745 41.0133 125.776 41.0748 125.801C41.2594 125.883 41.4388 125.96 41.6234 126.032C41.6952 126.063 41.7721 126.099 41.8439 126.124C41.8644 126.129 41.8798 126.14 41.9003 126.15C42.172 126.258 42.4437 126.36 42.7103 126.452C42.7308 126.458 42.7513 126.463 42.7719 126.473C42.8488 126.499 42.9257 126.524 42.9974 126.55C43.1666 126.606 43.3409 126.668 43.5101 126.719C43.5717 126.734 43.6281 126.75 43.6845 126.765C43.7921 126.796 43.8947 126.827 44.0023 126.852C44.1049 126.878 44.2074 126.914 44.3099 126.934C44.4074 126.96 44.5048 126.975 44.6022 127.001C44.715 127.027 44.8226 127.052 44.9303 127.073C44.9918 127.083 45.0534 127.104 45.1149 127.114C45.2533 127.139 45.3866 127.16 45.5199 127.18C45.6276 127.196 45.7301 127.216 45.8378 127.232C45.8685 127.237 45.9044 127.242 45.9352 127.247C46.1916 127.283 46.4428 127.309 46.694 127.329C46.735 127.334 46.776 127.334 46.817 127.339C46.9042 127.345 46.9862 127.345 47.0683 127.35C47.299 127.36 47.5246 127.37 47.7501 127.375C47.786 127.375 47.8271 127.38 47.8681 127.38C47.9398 127.38 48.0116 127.37 48.0834 127.37C48.3192 127.365 48.5551 127.355 48.7858 127.339C48.8473 127.334 48.9088 127.334 48.9704 127.329C49.0627 127.319 49.1498 127.309 49.237 127.298C49.3087 127.288 49.3754 127.283 49.4472 127.273C49.6933 127.242 49.9394 127.206 50.1752 127.155C50.1803 127.155 50.1855 127.155 50.1906 127.15C50.2419 127.139 50.288 127.124 50.3393 127.114C50.5495 127.068 50.7546 127.022 50.9596 126.965C51.0519 126.94 51.1391 126.909 51.2262 126.883C51.3544 126.842 51.4877 126.806 51.6159 126.765C51.6415 126.755 51.6672 126.745 51.6928 126.734C51.8722 126.668 52.0517 126.596 52.226 126.519C52.3132 126.483 52.4003 126.452 52.4875 126.411C52.7438 126.294 53.0002 126.165 53.2463 126.027L69.8013 116.404C69.5501 116.552 69.2937 116.68 69.0374 116.798Z" fill="url(#paint0_linear_53_199)"/>
<path d="M96.7581 100.355C96.6709 100.396 96.5838 100.427 96.4966 100.463C96.3223 100.54 96.1428 100.612 95.9634 100.678C95.8096 100.735 95.6558 100.781 95.502 100.827C95.4148 100.853 95.3225 100.884 95.2354 100.909C95.0303 100.966 94.8252 101.012 94.615 101.058C94.5637 101.068 94.5176 101.084 94.4663 101.094C94.2253 101.14 93.9741 101.181 93.7229 101.212C93.6511 101.222 93.5845 101.227 93.5127 101.237C93.364 101.253 93.2102 101.263 93.0615 101.278C92.8308 101.294 92.595 101.304 92.3591 101.309C92.2463 101.309 92.1387 101.314 92.0259 101.314C91.8003 101.314 91.5747 101.304 91.344 101.289C91.2209 101.283 91.0979 101.278 90.9697 101.273C90.6877 101.253 90.4006 101.217 90.1084 101.176C90.0058 101.16 89.8982 101.14 89.7905 101.125C89.5957 101.094 89.4009 101.058 89.2009 101.017C89.0932 100.996 88.9805 100.971 88.8728 100.945C88.6728 100.899 88.478 100.848 88.2781 100.796C88.1704 100.766 88.0678 100.74 87.9602 100.709C87.7346 100.643 87.5039 100.571 87.2732 100.494C87.1963 100.468 87.1245 100.448 87.0476 100.417C86.74 100.309 86.4323 100.197 86.1247 100.068C86.0529 100.038 85.976 100.007 85.9043 99.9761C85.6633 99.8735 85.4223 99.771 85.1814 99.6582C85.0686 99.6069 84.9609 99.5557 84.8481 99.4993C84.6379 99.3967 84.4226 99.2942 84.2072 99.1814C84.0893 99.1199 83.9663 99.0584 83.8483 98.9968C83.5459 98.8379 83.2434 98.6738 82.9409 98.4995L81.9462 97.9253C81.654 97.7561 81.3618 97.5766 81.0746 97.3972C81.0029 97.3511 80.926 97.3101 80.8542 97.2639C80.5261 97.0537 80.1979 96.8384 79.8749 96.6179C79.7878 96.5564 79.7006 96.4897 79.6083 96.4282C79.3725 96.2642 79.1366 96.095 78.9008 95.9206C78.7778 95.8284 78.6598 95.7361 78.5368 95.6438C78.3368 95.49 78.1369 95.3362 77.9369 95.1772C77.8088 95.0747 77.6755 94.967 77.5473 94.8594C77.3576 94.7056 77.173 94.5466 76.9833 94.3877C76.8551 94.2749 76.7218 94.1621 76.5937 94.0493C76.4091 93.8852 76.2194 93.716 76.0348 93.5469C75.9118 93.4341 75.7887 93.3213 75.6657 93.2033C75.4657 93.0136 75.2709 92.8239 75.0761 92.6291C74.9735 92.5266 74.871 92.4292 74.7685 92.3266C74.4762 92.0344 74.1891 91.7319 73.9071 91.4243C73.6046 91.0961 73.3022 90.7629 73.0099 90.4296C72.933 90.3425 72.8612 90.2502 72.7843 90.163C72.5741 89.9169 72.3588 89.6709 72.1537 89.4248C72.0358 89.2812 71.923 89.1376 71.8051 88.9992C71.641 88.7941 71.4769 88.5942 71.3129 88.3891C71.1386 88.1687 70.9694 87.9431 70.8002 87.7226C70.6874 87.5739 70.5746 87.4304 70.4618 87.2766C70.108 86.7946 69.7594 86.3075 69.421 85.8154C69.3236 85.6718 69.2313 85.5334 69.1339 85.3898C68.9391 85.0976 68.7443 84.8002 68.5494 84.4977C68.452 84.3439 68.3546 84.1901 68.2572 84.0363C68.0521 83.7082 67.8522 83.3698 67.6522 83.0365C67.5651 82.8879 67.4728 82.7392 67.3856 82.5854C67.119 82.1239 66.8627 81.6574 66.6114 81.1857C66.5038 80.9806 66.3961 80.7755 66.2884 80.5653C66.191 80.3808 66.0987 80.1962 66.0065 80.0116C65.8629 79.7245 65.7193 79.4374 65.5809 79.1452C65.5348 79.0529 65.4938 78.9606 65.4476 78.8683C65.2682 78.4889 65.099 78.1095 64.9298 77.725C64.8888 77.6276 64.8478 77.5302 64.8016 77.4276C64.6786 77.1405 64.5555 76.8534 64.4376 76.5663C64.3812 76.433 64.3299 76.2946 64.2735 76.1613C64.171 75.8998 64.0685 75.6383 63.971 75.3768C63.9198 75.2384 63.8634 75.0948 63.8121 74.9564C63.7096 74.6847 63.6173 74.4078 63.5199 74.131C63.4737 74.0028 63.4276 73.8695 63.3814 73.7413C63.243 73.3363 63.1148 72.9364 62.9867 72.5262C62.8636 72.1263 62.7508 71.7316 62.6432 71.3316C62.6124 71.2137 62.5816 71.0958 62.5509 70.9728C62.4791 70.6959 62.4073 70.4139 62.3407 70.1371C62.3099 69.9986 62.274 69.8653 62.2433 69.7269C62.1817 69.4501 62.1202 69.1732 62.0638 68.9015C62.0382 68.7835 62.0125 68.6605 61.992 68.5426C61.9151 68.1529 61.8485 67.7684 61.787 67.3787C61.7818 67.3531 61.7818 67.3275 61.7767 67.307C61.7203 66.943 61.669 66.5841 61.628 66.2252C61.6126 66.1021 61.6024 65.9791 61.587 65.856C61.5562 65.5894 61.5306 65.3228 61.5101 65.0614C61.4998 64.9229 61.4896 64.7896 61.4793 64.6563C61.4588 64.3948 61.4434 64.1334 61.4332 63.8719C61.4281 63.7437 61.4178 63.6207 61.4178 63.4925C61.4024 63.1131 61.3973 62.7388 61.3973 62.3646L61.5306 14.535C61.5306 14.1402 61.5409 13.7557 61.5562 13.3763C61.5614 13.2737 61.5716 13.1712 61.5767 13.0687C61.5921 12.8072 61.6075 12.5406 61.6331 12.2842C61.6434 12.1458 61.6588 12.0125 61.6742 11.8792C61.6947 11.6587 61.7203 11.4434 61.7511 11.2281C61.7716 11.0794 61.7921 10.9358 61.8177 10.7923C61.8485 10.5975 61.8792 10.4026 61.9151 10.2129C61.9459 10.0591 61.9767 9.90532 62.0074 9.75151C62.0433 9.57719 62.0843 9.40287 62.1253 9.23368C62.1663 9.06449 62.2074 8.90043 62.2535 8.73636C62.2945 8.58255 62.3407 8.42874 62.3868 8.28006C62.4483 8.08524 62.5099 7.89554 62.5765 7.71097C62.6227 7.57767 62.6688 7.44949 62.7201 7.32132C62.8226 7.05472 62.9303 6.79837 63.0431 6.54714C63.0892 6.44461 63.1302 6.34207 63.1764 6.24466C63.3045 5.98318 63.4378 5.73196 63.5763 5.48586C63.6224 5.40383 63.6686 5.32692 63.7147 5.25002C63.8121 5.08596 63.9095 4.92189 64.0121 4.76295C64.0582 4.69118 64.1095 4.6194 64.1556 4.54762C64.2582 4.39381 64.3658 4.24513 64.4735 4.09645C64.5248 4.02467 64.576 3.95802 64.6273 3.89137C64.7555 3.72731 64.8836 3.5735 65.0169 3.41969C65.0528 3.37867 65.0836 3.33766 65.1195 3.29664C65.2887 3.10694 65.463 2.9275 65.6424 2.75318C65.6886 2.70704 65.7347 2.66602 65.786 2.61988C65.9244 2.49171 66.0629 2.36866 66.2013 2.24561C66.2628 2.19434 66.3295 2.13794 66.3961 2.08667C66.5345 1.97901 66.673 1.87134 66.8114 1.7688C66.8729 1.72266 66.9344 1.67651 66.996 1.6355C67.1959 1.49707 67.401 1.36377 67.6163 1.24072L51.0613 10.8641C50.8511 10.9871 50.646 11.1204 50.4409 11.2588C50.3794 11.2999 50.3179 11.346 50.2564 11.3921C50.1128 11.4947 49.9744 11.5972 49.8411 11.71C49.7744 11.7613 49.7129 11.8126 49.6514 11.8689C49.5078 11.9869 49.3694 12.115 49.2361 12.2381C49.19 12.2842 49.1387 12.3253 49.0926 12.3714C48.9131 12.5457 48.7388 12.7252 48.5696 12.9149C48.5337 12.9559 48.5029 12.9969 48.4671 13.0379C48.3338 13.1917 48.2056 13.3455 48.0774 13.5096C48.0261 13.5762 47.9749 13.648 47.9236 13.7147C47.8159 13.8633 47.7083 14.012 47.6057 14.1658C47.5596 14.2376 47.5083 14.3094 47.4622 14.3812C47.4365 14.4171 47.4109 14.4529 47.3853 14.494C47.3084 14.617 47.2366 14.7452 47.1597 14.8734C47.1135 14.9503 47.0674 15.0272 47.0213 15.1092C46.8828 15.3553 46.7495 15.6065 46.6214 15.8731C46.6008 15.909 46.5855 15.95 46.565 15.9859C46.5342 16.0474 46.5137 16.1141 46.4829 16.1756C46.3701 16.4268 46.2573 16.6832 46.1599 16.9498C46.1394 17.0011 46.1189 17.0421 46.0984 17.0933C46.0676 17.1754 46.0471 17.2625 46.0164 17.3394C45.9497 17.524 45.8882 17.7137 45.8267 17.9085C45.8062 17.9803 45.7754 18.047 45.7549 18.1239C45.7293 18.2008 45.7139 18.2879 45.6934 18.37C45.6472 18.534 45.6062 18.7032 45.5652 18.8673C45.5447 18.9493 45.5191 19.0313 45.4985 19.1185C45.478 19.2057 45.4627 19.2979 45.4421 19.3902C45.4114 19.544 45.3806 19.6978 45.3499 19.8517C45.3345 19.9337 45.314 20.0157 45.2986 20.0977C45.2781 20.2054 45.2678 20.3182 45.2473 20.431C45.2268 20.5746 45.2012 20.7232 45.1807 20.8668C45.1704 20.9386 45.1602 21.0001 45.1499 21.0719C45.1294 21.2154 45.1191 21.3692 45.1038 21.5128C45.0884 21.6461 45.073 21.7794 45.0627 21.9178C45.0576 21.964 45.0525 22.0101 45.0474 22.0563C45.032 22.2665 45.0217 22.4869 45.0063 22.7023C45.0012 22.8048 44.991 22.9022 44.9858 23.0099C44.9858 23.0304 44.9807 23.0458 44.9807 23.0663C44.9653 23.4046 44.9602 23.7533 44.9551 24.1019C44.9551 24.1224 44.9551 24.1429 44.9551 24.1634L44.8218 71.993C44.8218 72.3212 44.8269 72.6493 44.8372 72.9774C44.8372 73.0236 44.8423 73.0748 44.8423 73.121C44.8474 73.2491 44.8525 73.3773 44.8577 73.5004C44.8679 73.6696 44.8679 73.8336 44.8833 74.0028C44.8884 74.0951 44.8987 74.1925 44.9038 74.2848C44.9141 74.4232 44.9243 74.5565 44.9346 74.6949C44.9448 74.8026 44.95 74.9103 44.9602 75.0179C44.9756 75.1769 44.9961 75.3358 45.0115 75.4948C45.0269 75.6178 45.0371 75.7408 45.0525 75.8588C45.0576 75.9152 45.0627 75.9664 45.073 76.0228C45.114 76.3305 45.155 76.6381 45.2063 76.9457C45.2114 76.9713 45.2114 76.997 45.2166 77.0175C45.2166 77.0226 45.2166 77.0226 45.2166 77.0277C45.2678 77.3661 45.3293 77.6994 45.3909 78.0377C45.4011 78.0839 45.4114 78.13 45.4216 78.1813C45.4421 78.2992 45.4678 78.4171 45.4934 78.535C45.5293 78.7094 45.5601 78.8837 45.6011 79.0529C45.6216 79.1554 45.6523 79.258 45.6729 79.3656C45.7036 79.4989 45.7344 79.6374 45.7651 79.7707C45.7908 79.8732 45.8113 79.9757 45.8369 80.0783C45.8831 80.2526 45.9292 80.432 45.9753 80.6064C46.0061 80.7243 46.0369 80.8422 46.0676 80.9601C46.0779 81.0063 46.0933 81.0524 46.1035 81.0985C46.1958 81.4369 46.2932 81.7702 46.4009 82.1086C46.406 82.1239 46.4111 82.1342 46.4163 82.1496C46.5291 82.5187 46.6521 82.893 46.7752 83.2621C46.7854 83.298 46.8008 83.3288 46.811 83.3647C46.8572 83.498 46.9033 83.6313 46.9495 83.7594C47.0213 83.9645 47.0879 84.1645 47.1597 84.3696C47.1853 84.4413 47.211 84.508 47.2366 84.5798C47.2879 84.7233 47.3443 84.8617 47.3955 85.0053C47.4519 85.1489 47.5032 85.2924 47.5545 85.4308C47.6006 85.5488 47.6519 85.6718 47.698 85.7897C47.7493 85.923 47.8057 86.0615 47.8621 86.1948C47.898 86.2819 47.9287 86.3691 47.9646 86.4511C48.0466 86.6511 48.1389 86.8561 48.2261 87.0561C48.2671 87.1535 48.3081 87.2509 48.3543 87.3483C48.3696 87.3791 48.3799 87.4099 48.3953 87.4406C48.544 87.7739 48.6926 88.1071 48.8516 88.4404C48.8618 88.4557 48.867 88.4763 48.8772 88.4916C48.9182 88.5839 48.9644 88.6762 49.0105 88.7634C49.1233 89.0043 49.2412 89.2453 49.3592 89.4863C49.3848 89.5376 49.4104 89.5837 49.4361 89.6298C49.5283 89.8144 49.6258 89.9939 49.718 90.1784C49.8001 90.3374 49.8821 90.5014 49.9693 90.6655C49.9949 90.7116 50.0205 90.7578 50.0462 90.8039C50.2974 91.2756 50.5537 91.7422 50.8203 92.2036C50.8562 92.26 50.887 92.3215 50.9229 92.3779C50.9793 92.4702 51.0357 92.5625 51.0921 92.6547C51.292 92.9931 51.492 93.3264 51.6971 93.6545C51.7945 93.8083 51.8919 93.9621 51.9893 94.1159C52.179 94.4133 52.3738 94.7107 52.5686 95.008C52.6302 95.1003 52.6866 95.1926 52.7481 95.2849C52.784 95.3362 52.8199 95.3874 52.8558 95.4387C53.1941 95.9309 53.5376 96.4231 53.8965 96.8999C53.9068 96.9153 53.917 96.9307 53.9324 96.946C54.0298 97.0793 54.1324 97.2075 54.2298 97.3357C54.399 97.5613 54.5682 97.7869 54.7425 98.0073C54.763 98.0381 54.7835 98.0637 54.8091 98.0945C54.9476 98.2688 55.0911 98.4431 55.2347 98.6174C55.3526 98.761 55.4654 98.9045 55.5833 99.0481C55.5987 99.0686 55.6141 99.0891 55.6346 99.1096C55.8243 99.3352 56.014 99.5557 56.2088 99.7813C56.2857 99.8735 56.3626 99.9658 56.4446 100.053C56.4498 100.058 56.46 100.068 56.4651 100.073C56.7523 100.396 57.0394 100.719 57.3316 101.032C57.3367 101.037 57.3367 101.037 57.3419 101.042C57.5982 101.319 57.8546 101.586 58.116 101.853C58.1468 101.883 58.1776 101.914 58.2083 101.945C58.3109 102.047 58.4134 102.145 58.5159 102.247C58.6544 102.386 58.7928 102.524 58.9363 102.663C58.9927 102.719 59.0491 102.765 59.1055 102.822C59.2286 102.939 59.3516 103.052 59.4747 103.165C59.5823 103.262 59.6849 103.365 59.7874 103.457C59.8695 103.529 59.9515 103.596 60.0284 103.668C60.1566 103.78 60.2899 103.893 60.4181 104.006C60.5001 104.078 60.5821 104.149 60.6641 104.221C60.7667 104.308 60.8743 104.396 60.982 104.478C61.1102 104.585 61.2435 104.693 61.3717 104.795C61.4332 104.847 61.4947 104.898 61.5562 104.944C61.6947 105.052 61.8331 105.154 61.9715 105.262C62.0946 105.354 62.2125 105.447 62.3355 105.539C62.3766 105.57 62.4124 105.6 62.4535 105.631C62.6483 105.775 62.8431 105.908 63.0379 106.046C63.1251 106.108 63.2123 106.175 63.3045 106.236C63.3199 106.246 63.3353 106.257 63.3507 106.267C63.648 106.472 63.9505 106.672 64.253 106.862C64.2633 106.867 64.2735 106.877 64.2838 106.882C64.3556 106.928 64.4273 106.969 64.5042 107.015C64.7247 107.154 64.94 107.287 65.1656 107.42C65.2374 107.461 65.3092 107.502 65.3758 107.543L66.3705 108.118C66.6012 108.251 66.837 108.384 67.0677 108.507C67.1395 108.543 67.2062 108.579 67.2779 108.615C67.3959 108.677 67.5189 108.738 67.6368 108.8C67.7394 108.851 67.8419 108.907 67.9445 108.959C68.0572 109.015 68.17 109.061 68.2777 109.117C68.3905 109.169 68.4982 109.225 68.611 109.276C68.6674 109.302 68.7289 109.333 68.7904 109.358C68.975 109.44 69.1544 109.517 69.339 109.589C69.4108 109.62 69.4877 109.656 69.5595 109.681C69.58 109.687 69.5953 109.697 69.6158 109.707C69.8876 109.815 70.1593 109.917 70.4259 110.01C70.4464 110.015 70.4669 110.02 70.4874 110.03C70.5643 110.056 70.6412 110.081 70.713 110.107C70.8822 110.163 71.0565 110.225 71.2257 110.276C71.2872 110.292 71.3436 110.307 71.4 110.322C71.5077 110.353 71.6102 110.384 71.7179 110.409C71.8205 110.435 71.923 110.471 72.0255 110.492C72.1229 110.517 72.2204 110.533 72.3178 110.558C72.4306 110.584 72.5382 110.609 72.6459 110.63C72.7074 110.64 72.7689 110.661 72.8305 110.671C72.9689 110.697 73.1022 110.717 73.2355 110.738C73.3432 110.753 73.4457 110.774 73.5534 110.789C73.5841 110.794 73.62 110.799 73.6508 110.804C73.9071 110.84 74.1584 110.866 74.4096 110.886C74.4506 110.891 74.4916 110.891 74.5326 110.897C74.6198 110.902 74.7018 110.902 74.7838 110.907C75.0146 110.917 75.2401 110.927 75.4657 110.932C75.5016 110.932 75.5426 110.938 75.5837 110.938C75.6554 110.938 75.7272 110.927 75.799 110.927C76.0348 110.922 76.2707 110.912 76.5014 110.897C76.5629 110.891 76.6244 110.891 76.686 110.886C76.7782 110.876 76.8654 110.866 76.9526 110.856C77.0243 110.845 77.091 110.84 77.1628 110.83C77.4089 110.799 77.6549 110.763 77.8908 110.712C77.8959 110.712 77.901 110.712 77.9062 110.707C77.9574 110.697 78.0036 110.681 78.0549 110.671C78.2651 110.625 78.4701 110.579 78.6752 110.522C78.7675 110.497 78.8547 110.466 78.9418 110.44C79.07 110.399 79.2033 110.363 79.3315 110.322C79.3571 110.312 79.3827 110.302 79.4084 110.292C79.5878 110.225 79.7673 110.153 79.9416 110.076C80.0287 110.04 80.1159 110.01 80.2031 109.969C80.4594 109.851 80.7158 109.722 80.9619 109.584L97.5169 99.9607C97.2656 100.109 97.0144 100.238 96.7581 100.355Z" fill="url(#paint1_linear_53_199)"/>
<path d="M133.488 126.775C133.38 126.76 133.273 126.739 133.17 126.724C132.975 126.693 132.781 126.657 132.581 126.616C132.473 126.596 132.36 126.57 132.247 126.545C132.053 126.498 131.853 126.452 131.653 126.396C131.545 126.365 131.437 126.339 131.335 126.309C131.109 126.242 130.884 126.17 130.653 126.093C130.576 126.068 130.494 126.042 130.417 126.016C130.109 125.909 129.802 125.796 129.489 125.668C129.422 125.642 129.351 125.606 129.279 125.581C129.033 125.478 128.787 125.37 128.541 125.258C128.433 125.206 128.32 125.155 128.212 125.104C127.997 125.001 127.787 124.899 127.572 124.786C127.454 124.724 127.336 124.663 127.218 124.601C126.915 124.442 126.618 124.278 126.31 124.104L125.316 123.53C125.018 123.361 124.726 123.181 124.434 122.997C124.367 122.956 124.295 122.915 124.229 122.869C123.901 122.658 123.573 122.443 123.25 122.223C123.157 122.161 123.065 122.089 122.973 122.028C122.742 121.864 122.506 121.7 122.281 121.53C122.157 121.438 122.034 121.346 121.916 121.254C121.717 121.1 121.517 120.946 121.322 120.792C121.194 120.69 121.06 120.582 120.932 120.474C120.742 120.32 120.558 120.161 120.368 120.003C120.24 119.89 120.107 119.777 119.979 119.664C119.789 119.5 119.604 119.331 119.42 119.157C119.297 119.044 119.174 118.931 119.056 118.818C118.856 118.628 118.656 118.434 118.461 118.239C118.364 118.141 118.261 118.044 118.164 117.941C117.871 117.644 117.579 117.347 117.297 117.034C116.995 116.706 116.692 116.373 116.4 116.039C116.323 115.952 116.251 115.865 116.174 115.778C115.959 115.532 115.749 115.281 115.539 115.029C115.421 114.886 115.308 114.742 115.19 114.599C115.026 114.394 114.862 114.194 114.698 113.989C114.518 113.758 114.344 113.527 114.165 113.291C114.057 113.153 113.949 113.014 113.847 112.871C113.493 112.389 113.144 111.897 112.806 111.405C112.708 111.266 112.616 111.123 112.519 110.984C112.319 110.687 112.124 110.384 111.929 110.082C111.832 109.933 111.734 109.779 111.642 109.631C111.427 109.287 111.216 108.939 111.006 108.585C110.929 108.457 110.852 108.328 110.776 108.2C110.514 107.744 110.258 107.283 110.007 106.816C109.894 106.606 109.786 106.396 109.678 106.185C109.586 106.006 109.489 105.821 109.396 105.642C109.248 105.344 109.099 105.042 108.955 104.74C108.92 104.657 108.879 104.581 108.838 104.499C108.658 104.119 108.489 103.74 108.32 103.355C108.274 103.253 108.233 103.15 108.186 103.048C108.063 102.766 107.945 102.484 107.828 102.197C107.771 102.063 107.72 101.925 107.664 101.791C107.561 101.53 107.458 101.269 107.361 101.007C107.31 100.864 107.253 100.725 107.202 100.582C107.105 100.31 107.007 100.038 106.915 99.7663C106.869 99.633 106.818 99.4997 106.777 99.3664C106.643 98.9665 106.51 98.5615 106.387 98.1565C106.264 97.7566 106.146 97.3567 106.038 96.9568C106.007 96.844 105.977 96.726 105.946 96.6133C105.869 96.3313 105.802 96.0493 105.731 95.7673C105.7 95.634 105.669 95.4956 105.638 95.3623C105.577 95.0854 105.515 94.8086 105.459 94.5317C105.433 94.4138 105.408 94.2959 105.387 94.1779C105.31 93.7883 105.244 93.3986 105.182 93.0141C105.177 92.9936 105.177 92.9782 105.172 92.9577C105.115 92.5886 105.064 92.2246 105.018 91.8554C105.003 91.7324 104.992 91.6144 104.977 91.4914C104.946 91.2248 104.921 90.9582 104.9 90.6916C104.89 90.5532 104.88 90.4199 104.869 90.2814C104.849 90.02 104.833 89.7585 104.823 89.497C104.818 89.3688 104.808 89.2407 104.808 89.1176C104.792 88.7433 104.787 88.364 104.787 87.9897L104.803 40.2883C104.803 39.955 104.798 39.6166 104.787 39.2783C104.787 39.227 104.782 39.1808 104.782 39.1296C104.777 39.0014 104.772 38.8681 104.762 38.7348C104.751 38.5656 104.746 38.3913 104.736 38.2221C104.731 38.1247 104.721 38.0273 104.71 37.9299C104.7 37.7914 104.69 37.6479 104.674 37.5094C104.664 37.4018 104.659 37.289 104.649 37.1813C104.633 37.0173 104.613 36.8481 104.592 36.684C104.577 36.561 104.567 36.4328 104.551 36.3097C104.546 36.2533 104.541 36.2021 104.531 36.1457C104.49 35.8227 104.444 35.4945 104.392 35.1715C104.387 35.151 104.387 35.1357 104.382 35.1151C104.382 35.11 104.382 35.11 104.382 35.1049C104.326 34.7563 104.269 34.4076 104.203 34.059C104.193 34.0077 104.182 33.9616 104.172 33.9103C104.146 33.7873 104.121 33.6642 104.095 33.5412C104.059 33.3617 104.028 33.1874 103.987 33.008C103.962 32.9003 103.936 32.7926 103.911 32.685C103.88 32.5465 103.849 32.403 103.813 32.2645C103.788 32.162 103.767 32.0543 103.741 31.9518C103.695 31.7672 103.644 31.5827 103.593 31.393C103.562 31.2699 103.531 31.152 103.495 31.0289C103.485 30.9828 103.47 30.9367 103.459 30.8905C103.362 30.5419 103.259 30.1881 103.152 29.8395C103.147 29.8241 103.142 29.8087 103.136 29.7933C103.018 29.4088 102.895 29.0243 102.767 28.6398C102.757 28.609 102.742 28.5731 102.731 28.5424C102.685 28.4039 102.634 28.2655 102.588 28.1271C102.511 27.9117 102.439 27.6964 102.362 27.4759C102.337 27.4093 102.311 27.3426 102.29 27.276C102.234 27.1273 102.178 26.9838 102.126 26.8351C102.065 26.6813 102.008 26.5223 101.952 26.3685C101.911 26.2557 101.86 26.1481 101.819 26.0353C101.762 25.8866 101.701 25.743 101.644 25.5943C101.603 25.4969 101.568 25.3944 101.521 25.297C101.45 25.1175 101.368 24.9432 101.291 24.7638C101.239 24.6407 101.188 24.5177 101.132 24.3946C101.111 24.3485 101.091 24.2972 101.07 24.2511C100.922 23.9076 100.763 23.5692 100.604 23.2308C100.599 23.2206 100.593 23.2103 100.588 23.2001V23.1949C100.414 22.8258 100.24 22.4566 100.055 22.0926C100.04 22.0619 100.024 22.0362 100.009 22.0055C99.9064 21.8004 99.7987 21.6004 99.6962 21.3954C99.5988 21.2057 99.5065 21.0211 99.4039 20.8314C99.3885 20.8006 99.3732 20.775 99.3578 20.7442C99.1168 20.2879 98.8656 19.8368 98.6093 19.3856C98.5426 19.2625 98.4708 19.1446 98.399 19.0216C98.3375 18.9139 98.2709 18.8062 98.2042 18.7037C98.0248 18.3961 97.8402 18.0936 97.6505 17.7911C97.548 17.6219 97.4403 17.4578 97.3378 17.2886C97.1481 16.9913 96.9532 16.6939 96.7533 16.3965C96.6866 16.294 96.62 16.1863 96.5482 16.0838L95.3485 14.3868C95.2408 14.2432 95.1332 14.1048 95.0255 13.9664C94.8614 13.751 94.7025 13.5408 94.5384 13.3255C94.5077 13.2896 94.482 13.2486 94.4513 13.2127C94.318 13.0435 94.1795 12.8743 94.0411 12.7051C93.9232 12.5564 93.8053 12.4078 93.6822 12.2642C93.6566 12.2386 93.6361 12.2078 93.6156 12.177C93.4361 11.9617 93.2516 11.7464 93.067 11.5362C92.9798 11.4336 92.8978 11.3311 92.8106 11.2337C92.8004 11.2234 92.7901 11.208 92.7799 11.1978C92.4928 10.8697 92.2005 10.5467 91.9032 10.2288C91.898 10.2237 91.898 10.2237 91.8929 10.2185C91.6263 9.93143 91.3597 9.65457 91.0931 9.37771C91.0623 9.34695 91.0316 9.31619 91.0008 9.28543C90.8932 9.17776 90.7906 9.07522 90.683 8.96756C90.5394 8.824 90.3958 8.67532 90.2472 8.53689C90.1908 8.48049 90.1344 8.42922 90.078 8.37795C89.9498 8.26003 89.8216 8.14211 89.6934 8.02419C89.5807 7.92165 89.473 7.81911 89.3602 7.71657C89.2782 7.6448 89.1961 7.57815 89.1192 7.50637C88.9859 7.38845 88.8526 7.27053 88.7142 7.15261C88.627 7.0757 88.5399 6.9988 88.4527 6.92189C88.345 6.83474 88.2374 6.74758 88.1348 6.66042C88.0015 6.54762 87.8682 6.43996 87.7298 6.33229C87.6632 6.28102 87.6016 6.22462 87.535 6.17335C87.3966 6.06569 87.2581 5.96315 87.1197 5.85548C86.9915 5.75807 86.8685 5.66066 86.7403 5.56837C86.6993 5.53761 86.6531 5.50172 86.6121 5.47096C86.4173 5.3274 86.2225 5.18897 86.0225 5.05055C85.9251 4.9839 85.8328 4.91212 85.7405 4.85059C85.7252 4.84034 85.7047 4.82496 85.6893 4.81471C85.3817 4.6045 85.074 4.39942 84.7613 4.20459C84.751 4.19947 84.7408 4.19434 84.7305 4.18409C84.6639 4.13794 84.5921 4.10205 84.5203 4.05591C84.2896 3.91236 84.0589 3.7688 83.8231 3.63037C83.7513 3.58936 83.6795 3.54321 83.6026 3.5022L82.608 2.92798C82.367 2.78955 82.1312 2.65625 81.8953 2.52807C81.8235 2.48706 81.7466 2.45117 81.6748 2.41528C81.5518 2.34863 81.4288 2.2871 81.3057 2.22558C81.2032 2.17431 81.0955 2.11791 80.993 2.06665C80.875 2.01025 80.7571 1.95385 80.6392 1.90258C80.5264 1.84619 80.4136 1.79491 80.3008 1.74364C80.2444 1.71801 80.1829 1.68725 80.1214 1.66161C79.9265 1.57445 79.7317 1.49242 79.5369 1.41552C79.4651 1.38475 79.3933 1.35399 79.3216 1.32323C79.3062 1.3181 79.2857 1.30785 79.2703 1.30272C78.9883 1.18993 78.7115 1.08739 78.4346 0.989981C78.409 0.979727 78.3885 0.974599 78.3679 0.969472C78.2859 0.93871 78.2039 0.9182 78.1219 0.887439C77.9527 0.831042 77.7783 0.769517 77.6092 0.718247C77.5476 0.697739 77.4861 0.682359 77.4195 0.666978C77.3067 0.636217 77.199 0.605455 77.0862 0.574693C76.9837 0.549058 76.8811 0.51317 76.7786 0.487535C76.676 0.4619 76.5735 0.441394 76.4761 0.420886C76.3633 0.395251 76.2454 0.369615 76.1326 0.34398C76.0711 0.328599 76.0044 0.313217 75.9429 0.302963C75.8045 0.277329 75.666 0.256822 75.5225 0.236314C75.4097 0.215806 75.302 0.195298 75.1892 0.179917C75.1533 0.17479 75.1174 0.169664 75.0867 0.164537C74.8252 0.128648 74.5637 0.103011 74.3022 0.0825032C74.2561 0.0773762 74.21 0.077378 74.1638 0.072251C74.0664 0.067124 73.9741 0.0671218 73.8767 0.0619948C72.6719 -0.0866875 70.8774 0.0363624 69.4778 0.384997C68.0781 0.733631 63.7355 3.41504 63.7355 3.41504L36.7112 19.3343L24.2373 26.5839C24.4988 26.43 24.7654 26.2916 25.0422 26.1634C25.1294 26.1224 25.2268 26.0865 25.314 26.0455C25.5037 25.9635 25.6934 25.8866 25.8882 25.8148C26.0317 25.7635 26.1804 25.7123 26.324 25.6661C26.4214 25.6354 26.5188 25.6046 26.6214 25.5738C26.7957 25.5226 26.9751 25.4816 27.1494 25.4405C27.2366 25.42 27.3237 25.3995 27.4109 25.379C27.657 25.3277 27.9082 25.2867 28.1646 25.256C28.2261 25.2457 28.2927 25.2406 28.3543 25.2355C28.5235 25.215 28.6926 25.1996 28.8618 25.1893C29.0926 25.1739 29.3233 25.1637 29.5591 25.1586C29.677 25.1586 29.7898 25.1534 29.9077 25.1534C30.1231 25.1534 30.3384 25.1637 30.5589 25.1739C30.7024 25.1791 30.8409 25.1842 30.9844 25.1944C31.2766 25.215 31.574 25.2508 31.8714 25.297C31.979 25.3124 32.0918 25.3329 32.2046 25.3534C32.4046 25.3893 32.6045 25.42 32.8096 25.4662C32.9224 25.4918 33.0403 25.5174 33.1531 25.5431C33.3582 25.5892 33.5633 25.6405 33.7684 25.6969C33.8812 25.7276 33.9888 25.7584 34.1016 25.7892C34.3323 25.8558 34.5682 25.9327 34.804 26.0096C34.886 26.0353 34.9681 26.0609 35.0501 26.0917C35.368 26.1993 35.6858 26.3224 36.0037 26.4506C36.0755 26.4813 36.1473 26.5121 36.2191 26.5428C36.4703 26.6454 36.7266 26.7582 36.983 26.8761C37.0958 26.9274 37.2086 26.9838 37.3265 27.035C37.5469 27.1376 37.7674 27.2504 37.9879 27.3632C38.1109 27.4247 38.234 27.4862 38.357 27.5528C38.6697 27.7169 38.9774 27.8861 39.2901 28.0655L40.2847 28.6398C40.5924 28.8192 40.8949 29.0038 41.1974 29.1935C41.2691 29.2345 41.3358 29.2755 41.4076 29.3217C41.7459 29.537 42.0843 29.7575 42.4176 29.9882C42.515 30.0548 42.6073 30.1215 42.6996 30.1881C42.9405 30.3573 43.1764 30.5265 43.4173 30.7059C43.5455 30.7982 43.6686 30.8956 43.7967 30.9931C44.0018 31.152 44.2069 31.3109 44.412 31.4699C44.5453 31.5775 44.6837 31.6903 44.817 31.798C45.0118 31.9569 45.2066 32.121 45.3963 32.2851C45.5296 32.403 45.6681 32.5158 45.8014 32.6388C45.9962 32.808 46.1859 32.9823 46.3756 33.1566C46.5038 33.2746 46.6319 33.3925 46.7601 33.5104C46.9652 33.7052 47.1652 33.9001 47.3702 34.1C47.4779 34.2025 47.5804 34.3051 47.6881 34.4127C47.9906 34.7152 48.288 35.028 48.5802 35.3459C48.8878 35.6791 49.1954 36.0175 49.4979 36.361C49.5851 36.4584 49.6671 36.561 49.7491 36.6584C49.9594 36.8993 50.1696 37.1454 50.3746 37.3915C50.4926 37.5351 50.6105 37.6838 50.7335 37.8324C50.9027 38.0375 51.0668 38.2477 51.2308 38.4579C51.3949 38.6681 51.559 38.8835 51.7179 39.0988C51.8461 39.2629 51.9691 39.4269 52.0922 39.5961C52.4511 40.0832 52.8048 40.5805 53.1483 41.0881C53.2458 41.2316 53.3432 41.3803 53.4406 41.529C53.6354 41.8264 53.8302 42.1186 54.0251 42.4211C54.1327 42.5851 54.2353 42.7543 54.3378 42.9235C54.5275 43.226 54.7121 43.5285 54.8915 43.8361C55.0248 44.0617 55.1632 44.2873 55.2914 44.518C55.5478 44.9692 55.799 45.4204 56.04 45.8767C56.1527 46.092 56.2604 46.3022 56.3732 46.5175C56.4809 46.7226 56.5885 46.9277 56.6911 47.1328C56.891 47.5276 57.0807 47.9275 57.2704 48.3274C57.2756 48.3376 57.2807 48.353 57.2858 48.3633C57.4653 48.7478 57.6396 49.1323 57.8088 49.522C57.8652 49.645 57.9164 49.7732 57.9677 49.8962C58.0856 50.1731 58.2035 50.4499 58.3163 50.7319C58.3779 50.8755 58.4342 51.0242 58.4907 51.1677C58.5983 51.4343 58.7009 51.7009 58.8034 51.9726C58.8598 52.1213 58.9162 52.2649 58.9675 52.4136C59.07 52.6956 59.1674 52.9724 59.2648 53.2544C59.311 53.3928 59.3622 53.5312 59.4084 53.6697C59.5468 54.085 59.6852 54.5054 59.8134 54.9207C59.9416 55.3359 60.0595 55.7461 60.1723 56.1563C60.2031 56.2793 60.2338 56.3972 60.2697 56.5203C60.3466 56.8125 60.4184 57.0996 60.4902 57.3867C60.5261 57.5252 60.5568 57.6687 60.5876 57.8072C60.6542 58.0943 60.7158 58.3814 60.7722 58.6634C60.7978 58.7864 60.8234 58.9095 60.8491 59.0325C60.926 59.4324 60.9977 59.8374 61.0593 60.2373C61.0644 60.2578 61.0644 60.2732 61.0695 60.2937C61.131 60.6731 61.1823 61.0525 61.2285 61.4319C61.2438 61.5601 61.2541 61.6831 61.2695 61.8062C61.3002 62.0831 61.3259 62.3548 61.3515 62.6316C61.3618 62.7701 61.3771 62.9136 61.3874 63.052C61.4079 63.3238 61.4233 63.5904 61.4335 63.8621C61.4387 63.9954 61.4489 64.1236 61.454 64.2569C61.4694 64.6465 61.4746 65.0311 61.4746 65.4156L61.4694 82.4013L61.4592 113.122C61.4592 113.45 61.4643 113.778 61.4746 114.106C61.4746 114.153 61.4797 114.204 61.4797 114.25C61.4848 114.378 61.4899 114.501 61.4951 114.629C61.5053 114.799 61.5104 114.963 61.5207 115.132C61.5258 115.224 61.5361 115.322 61.5412 115.414C61.5515 115.547 61.5617 115.686 61.572 115.819C61.5822 115.927 61.5873 116.034 61.5976 116.142C61.613 116.301 61.6335 116.46 61.6489 116.619C61.6642 116.742 61.6745 116.865 61.6899 116.983C61.695 117.034 61.7001 117.09 61.7053 117.142C61.7463 117.454 61.7924 117.767 61.8386 118.08C61.8437 118.1 61.8437 118.116 61.8488 118.136C61.8488 118.141 61.8488 118.141 61.8488 118.147C61.9001 118.48 61.9616 118.818 62.0231 119.157C62.0334 119.203 62.0436 119.254 62.0539 119.3C62.0744 119.418 62.1 119.536 62.1257 119.659C62.1616 119.828 62.1923 120.003 62.2282 120.172C62.2487 120.279 62.2795 120.382 62.3 120.49C62.3308 120.623 62.3615 120.761 62.3923 120.895C62.4179 120.992 62.4384 121.095 62.4641 121.192C62.5102 121.377 62.5615 121.556 62.6076 121.741C62.6384 121.853 62.664 121.971 62.6999 122.084C62.7102 122.125 62.7204 122.171 62.7358 122.212C62.8281 122.551 62.9306 122.889 63.0332 123.233C63.0383 123.248 63.0434 123.268 63.0485 123.284C63.1613 123.653 63.2792 124.022 63.4023 124.391C63.4125 124.427 63.4279 124.458 63.4382 124.494C63.4843 124.627 63.5305 124.76 63.5766 124.894C63.6484 125.099 63.715 125.299 63.7868 125.504C63.8125 125.57 63.8381 125.642 63.8637 125.709C63.915 125.852 63.9714 125.996 64.0227 126.134C64.0791 126.278 64.1303 126.427 64.1867 126.57C64.2329 126.688 64.279 126.801 64.3252 126.919C64.3815 127.057 64.4328 127.191 64.4892 127.329C64.5251 127.416 64.561 127.508 64.5969 127.596C64.6789 127.79 64.7609 127.985 64.8481 128.175C64.8942 128.277 64.9353 128.385 64.9814 128.488C64.9968 128.524 65.0122 128.554 65.0275 128.59C65.1762 128.923 65.3249 129.257 65.4838 129.59C65.489 129.605 65.4992 129.616 65.5044 129.631C65.5454 129.713 65.5813 129.795 65.6223 129.877C65.7453 130.133 65.8632 130.385 65.9914 130.641C66.0119 130.687 66.0376 130.733 66.0632 130.774C66.1555 130.959 66.2478 131.138 66.3452 131.318C66.4323 131.482 66.5144 131.651 66.6015 131.815C66.6272 131.861 66.6528 131.902 66.6733 131.948C66.9245 132.415 67.1758 132.876 67.4424 133.333C67.468 133.379 67.4936 133.425 67.5193 133.466C67.5705 133.553 67.6218 133.635 67.6731 133.717C67.8781 134.071 68.0935 134.42 68.3088 134.763C68.4011 134.917 68.4985 135.066 68.5959 135.214C68.7754 135.496 68.9548 135.783 69.1445 136.055C69.2163 136.163 69.2881 136.27 69.3598 136.378L70.4416 137.947C70.5596 137.911 70.5134 138.008 70.5442 138.044C70.6365 138.173 70.7339 138.296 70.8313 138.419C71.0107 138.654 71.185 138.89 71.3645 139.121C71.385 139.147 71.4055 139.172 71.426 139.198C71.5696 139.377 71.7131 139.552 71.8567 139.731C71.9746 139.875 72.0874 140.018 72.2053 140.162C72.2207 140.182 72.2361 140.203 72.2515 140.218C72.4463 140.449 72.6411 140.68 72.8411 140.905C72.918 140.992 72.9897 141.08 73.0615 141.167C73.0666 141.172 73.0718 141.182 73.0769 141.187C73.364 141.515 73.6511 141.833 73.9485 142.151C73.9536 142.156 73.9536 142.156 73.9587 142.161C74.2151 142.438 74.4766 142.715 74.738 142.982C74.7688 143.012 74.7944 143.038 74.8252 143.069C74.9226 143.171 75.0252 143.269 75.1226 143.366C75.2661 143.51 75.4097 143.653 75.5532 143.792C75.6096 143.843 75.6609 143.894 75.7173 143.946C75.8403 144.058 75.9634 144.171 76.0864 144.289C76.1941 144.386 76.3018 144.489 76.4094 144.586C76.4863 144.658 76.5684 144.72 76.6453 144.791C76.7735 144.904 76.9068 145.017 77.0349 145.13C77.1221 145.202 77.2041 145.279 77.2862 145.35C77.3887 145.437 77.4912 145.52 77.5938 145.602C77.722 145.709 77.8501 145.817 77.9834 145.919C78.0449 145.971 78.1116 146.022 78.1731 146.073C78.3064 146.181 78.4449 146.278 78.5782 146.381C78.7012 146.473 78.8191 146.571 78.9422 146.658C78.9832 146.688 79.0242 146.719 79.0652 146.75C79.2549 146.888 79.4446 147.022 79.6394 147.155C79.7317 147.217 79.8189 147.288 79.9112 147.35C79.9265 147.36 79.9419 147.375 79.9624 147.386C80.2598 147.591 80.5572 147.786 80.8597 147.98C80.8699 147.986 80.8802 147.991 80.8904 148.001C80.9571 148.042 81.0288 148.083 81.0955 148.129C81.316 148.268 81.5415 148.406 81.7671 148.539C81.8389 148.58 81.9056 148.621 81.9773 148.662L82.972 149.237C83.2027 149.37 83.4334 149.498 83.6641 149.626C83.7359 149.667 83.8077 149.698 83.8794 149.739C83.9974 149.801 84.1153 149.862 84.2383 149.924C84.3409 149.975 84.4383 150.031 84.5408 150.077C84.6536 150.134 84.7664 150.185 84.8792 150.236C84.992 150.288 85.0997 150.344 85.2125 150.39C85.2689 150.416 85.3253 150.447 85.3868 150.472C85.5765 150.559 85.7662 150.636 85.9507 150.713C86.0225 150.744 86.0892 150.775 86.161 150.8C86.1763 150.805 86.1917 150.816 86.2122 150.821C86.484 150.928 86.7557 151.031 87.0223 151.123C87.0428 151.134 87.0684 151.139 87.0889 151.144C87.171 151.169 87.2479 151.195 87.3248 151.221C87.4888 151.277 87.658 151.333 87.8221 151.385C87.8836 151.405 87.94 151.416 88.0015 151.436C88.1092 151.467 88.2169 151.498 88.3245 151.523C88.422 151.549 88.5245 151.58 88.6219 151.605C88.7193 151.631 88.8167 151.646 88.9141 151.672C89.0269 151.698 89.1346 151.723 89.2474 151.744C89.3089 151.754 89.3704 151.774 89.4268 151.785C89.5601 151.81 89.6934 151.831 89.8319 151.851C89.9395 151.867 90.0472 151.887 90.1549 151.903C90.1856 151.908 90.2215 151.913 90.2523 151.918C90.5035 151.954 91.0111 152 91.0111 152L107.561 142.382C107.279 142.361 106.992 142.325 106.705 142.284C106.597 142.269 106.489 142.248 106.387 142.233C106.192 142.202 105.997 142.166 105.797 142.125C105.684 142.105 105.577 142.079 105.464 142.054C105.269 142.008 105.069 141.961 104.869 141.905C104.762 141.874 104.654 141.849 104.551 141.818C104.326 141.751 104.1 141.679 103.87 141.602C103.793 141.577 103.711 141.551 103.634 141.526C103.326 141.418 103.018 141.305 102.706 141.177C102.639 141.151 102.567 141.115 102.496 141.09C102.249 140.987 102.003 140.88 101.757 140.767C101.65 140.716 101.537 140.664 101.429 140.613C101.214 140.51 101.004 140.408 100.788 140.295C100.67 140.234 100.552 140.172 100.434 140.111C100.132 139.952 99.8346 139.788 99.527 139.613L98.5324 139.039C98.235 138.87 97.9427 138.69 97.6505 138.506C97.5839 138.465 97.5121 138.424 97.4454 138.378C97.1173 138.167 96.7892 137.952 96.4662 137.732C96.3739 137.67 96.2816 137.598 96.1893 137.537C95.9586 137.373 95.7228 137.209 95.4972 137.039C95.3741 136.947 95.2511 136.855 95.1332 136.763C94.9332 136.609 94.7333 136.455 94.5384 136.301C94.4103 136.199 94.277 136.091 94.1488 135.983C93.9591 135.83 93.7745 135.671 93.5848 135.512C93.4566 135.399 93.3233 135.286 93.1952 135.173C93.0106 135.009 92.8209 134.84 92.6363 134.666C92.5133 134.553 92.3902 134.44 92.2723 134.327C92.0724 134.138 91.8724 133.943 91.6776 133.748C91.5802 133.651 91.4776 133.553 91.3802 133.451C91.088 133.153 90.7957 132.856 90.5138 132.543C90.2113 132.215 89.9088 131.882 89.6165 131.548C89.5396 131.461 89.4679 131.374 89.391 131.287C89.1756 131.041 88.9654 130.79 88.7552 130.538C88.6373 130.395 88.5245 130.251 88.4066 130.108C88.2425 129.903 88.0784 129.703 87.9144 129.498C87.7349 129.267 87.5606 129.036 87.3812 128.8C87.2735 128.662 87.1658 128.524 87.0633 128.38C86.7044 127.898 86.3609 127.406 86.0225 126.914C85.9251 126.775 85.8328 126.632 85.7354 126.493C85.5355 126.196 85.3406 125.893 85.1458 125.591C85.0484 125.442 84.951 125.288 84.8587 125.14C84.6434 124.796 84.4332 124.448 84.223 124.094C84.1461 123.966 84.0691 123.838 83.9922 123.709C83.7256 123.253 83.4744 122.792 83.2232 122.325C83.1104 122.115 83.0027 121.905 82.8951 121.694C82.8028 121.515 82.7054 121.33 82.6131 121.151C82.4644 120.854 82.3157 120.551 82.1722 120.249C82.1363 120.167 82.0953 120.09 82.0542 120.008C81.8748 119.628 81.7056 119.249 81.5364 118.864C81.4903 118.762 81.4493 118.659 81.4031 118.557C81.2801 118.275 81.1622 117.993 81.0442 117.706C80.9878 117.572 80.9366 117.434 80.8802 117.301C80.7776 117.039 80.6751 116.778 80.5777 116.516C80.5264 116.373 80.47 116.229 80.4187 116.091C80.3213 115.819 80.2239 115.547 80.1316 115.275C80.0855 115.142 80.0342 115.009 79.9932 114.876C79.8599 114.476 79.7266 114.071 79.6035 113.666C79.4805 113.266 79.3626 112.866 79.2549 112.466C79.2242 112.353 79.1934 112.235 79.1626 112.122C78.9576 111.425 78.8037 110.702 78.6653 109.984C78.6448 109.887 78.6243 109.784 78.6038 109.687C78.5679 109.487 78.532 109.292 78.5012 109.097C78.4654 108.908 78.4295 108.713 78.3987 108.523C78.3936 108.503 78.3936 108.487 78.3885 108.467C78.3321 108.098 78.2808 107.734 78.2346 107.365C78.2193 107.241 78.209 107.124 78.1936 107.001C78.1629 106.734 78.1372 106.467 78.1167 106.201C78.1065 106.062 78.0962 105.929 78.086 105.791C78.0655 105.529 78.0501 105.268 78.0398 105.006C78.0347 104.878 78.0244 104.75 78.0244 104.627C78.0091 104.252 78.0039 103.873 78.0039 103.499L78.0552 103.125C78.0757 99.3254 78.4551 90.8813 78.4602 89.4765C78.4602 88.728 78.8448 88.0307 79.4754 87.6308L86.2225 83.3241C87.0274 82.8114 88.0836 83.3908 88.0836 84.3444V91.071C88.0733 99.3511 88.6219 102.145 89.2013 105.498C89.2166 105.565 89.232 105.626 89.2474 105.693C89.2935 105.878 89.3448 106.057 89.391 106.242C89.4217 106.355 89.4473 106.472 89.4832 106.585C89.4935 106.626 89.5037 106.672 89.5191 106.713C89.6114 107.052 89.714 107.39 89.8165 107.734C89.8216 107.749 89.8267 107.77 89.8319 107.785C89.9447 108.154 90.0626 108.523 90.1856 108.892C90.1959 108.928 90.2113 108.959 90.2215 108.995C90.2677 109.128 90.3138 109.262 90.3599 109.395C90.4317 109.6 90.4984 109.8 90.5702 110.005C90.5958 110.072 90.6214 110.143 90.6471 110.21C90.6983 110.354 90.7547 110.497 90.806 110.636C90.8624 110.779 90.9137 110.928 90.9701 111.071C91.0162 111.189 91.0623 111.302 91.1085 111.42C91.1649 111.558 91.2162 111.692 91.2726 111.83C91.3084 111.917 91.3443 112.01 91.3802 112.097C91.4622 112.292 91.5443 112.486 91.6314 112.676C91.6776 112.779 91.7186 112.886 91.7647 112.989C91.7801 113.025 91.7955 113.055 91.8109 113.091C91.9596 113.425 92.1083 113.758 92.2672 114.091C92.2723 114.106 92.2826 114.117 92.2877 114.132C92.3236 114.214 92.3646 114.296 92.4056 114.378C92.5287 114.635 92.6466 114.886 92.7747 115.142C92.7953 115.188 92.8209 115.234 92.8465 115.275C92.9388 115.46 93.0311 115.639 93.1285 115.819C93.2157 115.983 93.2977 116.152 93.3849 116.316C93.4105 116.362 93.4361 116.403 93.4566 116.45C93.7079 116.916 93.9591 117.378 94.2257 117.834C94.2513 117.88 94.277 117.926 94.3026 117.972C94.3539 118.059 94.4051 118.141 94.4564 118.223C94.6615 118.577 94.8768 118.926 95.0922 119.269C95.1844 119.423 95.2819 119.572 95.3793 119.721C95.5587 120.003 95.7381 120.29 95.9278 120.561C95.9996 120.669 96.0714 120.777 96.1432 120.884L97.3224 122.551C97.4147 122.679 97.5121 122.802 97.6095 122.925C97.7889 123.161 97.9633 123.397 98.1427 123.627C98.1632 123.653 98.1837 123.679 98.2042 123.704C98.3478 123.884 98.4913 124.058 98.6349 124.237C98.7528 124.381 98.8656 124.525 98.9835 124.668C98.9989 124.689 99.0143 124.709 99.0297 124.724C99.2245 124.955 99.4193 125.186 99.6193 125.411C99.6962 125.499 99.768 125.586 99.8449 125.673C99.85 125.678 99.8551 125.688 99.8602 125.693C100.147 126.022 100.434 126.339 100.732 126.657C100.737 126.662 100.737 126.662 100.742 126.668C100.998 126.944 101.26 127.221 101.521 127.488C101.552 127.519 101.578 127.544 101.609 127.575C101.706 127.678 101.808 127.775 101.906 127.872C102.049 128.016 102.193 128.16 102.337 128.298C102.393 128.349 102.444 128.401 102.501 128.452C102.624 128.565 102.747 128.677 102.87 128.795C102.977 128.893 103.085 128.995 103.193 129.093C103.27 129.164 103.352 129.226 103.429 129.298C103.557 129.411 103.69 129.523 103.818 129.636C103.905 129.708 103.987 129.785 104.069 129.857C104.172 129.944 104.275 130.026 104.377 130.108C104.505 130.215 104.633 130.323 104.767 130.426C104.828 130.477 104.895 130.528 104.956 130.579C105.09 130.687 105.228 130.785 105.361 130.887C105.485 130.979 105.602 131.077 105.726 131.164C105.767 131.195 105.808 131.225 105.849 131.256C106.038 131.395 106.228 131.528 106.423 131.661C106.515 131.723 106.602 131.795 106.694 131.856C106.71 131.866 106.725 131.882 106.746 131.892C107.043 132.097 107.34 132.292 107.643 132.487C107.653 132.492 107.663 132.497 107.674 132.507C107.74 132.548 107.812 132.589 107.879 132.635C108.099 132.774 108.325 132.912 108.55 133.046C108.622 133.087 108.689 133.128 108.761 133.169L109.755 133.743C109.986 133.876 110.217 134.004 110.447 134.132C110.519 134.174 110.591 134.204 110.663 134.245C110.781 134.307 110.899 134.368 111.022 134.43C111.124 134.481 111.222 134.538 111.324 134.584C111.437 134.64 111.55 134.691 111.663 134.743C111.775 134.794 111.883 134.85 111.996 134.896C112.052 134.922 112.109 134.953 112.165 134.978C112.355 135.066 112.544 135.143 112.729 135.219C112.796 135.25 112.867 135.281 112.939 135.307C112.955 135.312 112.975 135.322 112.99 135.327C113.262 135.435 113.534 135.537 113.8 135.63C113.821 135.64 113.847 135.645 113.867 135.65C113.949 135.676 114.026 135.701 114.103 135.727C114.272 135.783 114.436 135.84 114.6 135.891C114.662 135.912 114.718 135.922 114.78 135.942C114.887 135.973 114.995 136.004 115.103 136.029C115.2 136.055 115.303 136.086 115.4 136.111C115.498 136.137 115.595 136.153 115.692 136.178C115.805 136.204 115.913 136.229 116.026 136.25C116.087 136.26 116.149 136.281 116.21 136.291C116.343 136.317 116.477 136.337 116.615 136.358C116.723 136.373 116.831 136.393 116.938 136.409C116.969 136.414 117.005 136.419 117.036 136.424C117.287 136.46 117.538 136.486 117.789 136.506H117.794L134.344 126.888C134.062 126.852 133.775 126.816 133.488 126.775ZM87.8836 65.8258C87.8836 66.5743 87.4991 67.2716 86.8685 67.6715L80.1214 71.9781C79.3164 72.4908 78.2603 71.9115 78.2603 70.9579V64.2313C78.2705 55.4026 77.8655 50.696 76.2095 44.4309C75.5122 41.7905 74.4253 39.2988 73.2974 37.1659C72.8257 36.2738 73.1077 35.1715 73.9485 34.6127L80.5213 30.2804C81.3108 29.7575 82.3824 30.0292 82.8284 30.8649C83.9871 33.0336 85.1099 35.5868 85.8277 38.2939C87.4837 44.559 87.8631 49.2656 87.8785 58.0943C87.8887 61.6729 87.8887 64.3748 87.8836 65.8258Z" fill="url(#paint2_linear_53_199)"/>
<mask id="mask0_53_199" style="mask-type:alpha" maskUnits="userSpaceOnUse" x="24" y="0" width="111" height="152">
<path d="M133.488 126.775C133.38 126.76 133.273 126.739 133.17 126.724C132.975 126.693 132.781 126.657 132.581 126.616C132.473 126.596 132.36 126.57 132.247 126.545C132.053 126.498 131.853 126.452 131.653 126.396C131.545 126.365 131.437 126.339 131.335 126.309C131.109 126.242 130.884 126.17 130.653 126.093C130.576 126.068 130.494 126.042 130.417 126.016C130.109 125.909 129.802 125.796 129.489 125.668C129.422 125.642 129.351 125.606 129.279 125.581C129.033 125.478 128.787 125.37 128.541 125.258C128.433 125.206 128.32 125.155 128.212 125.104C127.997 125.001 127.787 124.899 127.572 124.786C127.454 124.724 127.336 124.663 127.218 124.601C126.915 124.442 126.618 124.278 126.31 124.104L125.316 123.53C125.018 123.361 124.726 123.181 124.434 122.997C124.367 122.956 124.295 122.915 124.229 122.869C123.901 122.658 123.573 122.443 123.25 122.223C123.157 122.161 123.065 122.089 122.973 122.028C122.742 121.864 122.506 121.7 122.281 121.53C122.157 121.438 122.034 121.346 121.916 121.254C121.717 121.1 121.517 120.946 121.322 120.792C121.194 120.69 121.06 120.582 120.932 120.474C120.742 120.32 120.558 120.161 120.368 120.003C120.24 119.89 120.107 119.777 119.979 119.664C119.789 119.5 119.604 119.331 119.42 119.157C119.297 119.044 119.174 118.931 119.056 118.818C118.856 118.628 118.656 118.434 118.461 118.239C118.364 118.141 118.261 118.044 118.164 117.941C117.871 117.644 117.579 117.347 117.297 117.034C116.995 116.706 116.692 116.373 116.4 116.039C116.323 115.952 116.251 115.865 116.174 115.778C115.959 115.532 115.749 115.281 115.539 115.029C115.421 114.886 115.308 114.742 115.19 114.599C115.026 114.394 114.862 114.194 114.698 113.989C114.518 113.758 114.344 113.527 114.165 113.291C114.057 113.153 113.949 113.014 113.847 112.871C113.493 112.389 113.144 111.897 112.806 111.405C112.708 111.266 112.616 111.123 112.519 110.984C112.319 110.687 112.124 110.384 111.929 110.082C111.832 109.933 111.734 109.779 111.642 109.631C111.427 109.287 111.216 108.939 111.006 108.585C110.929 108.457 110.852 108.328 110.776 108.2C110.514 107.744 110.258 107.283 110.007 106.816C109.894 106.606 109.786 106.396 109.678 106.185C109.586 106.006 109.489 105.821 109.396 105.642C109.248 105.344 109.099 105.042 108.955 104.74C108.92 104.657 108.879 104.581 108.838 104.499C108.658 104.119 108.489 103.74 108.32 103.355C108.274 103.253 108.233 103.15 108.186 103.048C108.063 102.766 107.945 102.484 107.828 102.197C107.771 102.063 107.72 101.925 107.664 101.791C107.561 101.53 107.458 101.269 107.361 101.007C107.31 100.864 107.253 100.725 107.202 100.582C107.105 100.31 107.007 100.038 106.915 99.7663C106.869 99.633 106.818 99.4997 106.777 99.3664C106.643 98.9665 106.51 98.5615 106.387 98.1565C106.264 97.7566 106.146 97.3567 106.038 96.9568C106.007 96.844 105.977 96.726 105.946 96.6133C105.869 96.3313 105.802 96.0493 105.731 95.7673C105.7 95.634 105.669 95.4956 105.638 95.3623C105.577 95.0854 105.515 94.8086 105.459 94.5317C105.433 94.4138 105.408 94.2959 105.387 94.1779C105.31 93.7883 105.244 93.3986 105.182 93.0141C105.177 92.9936 105.177 92.9782 105.172 92.9577C105.115 92.5886 105.064 92.2246 105.018 91.8554C105.003 91.7324 104.992 91.6144 104.977 91.4914C104.946 91.2248 104.921 90.9582 104.9 90.6916C104.89 90.5532 104.88 90.4199 104.869 90.2814C104.849 90.02 104.833 89.7585 104.823 89.497C104.818 89.3688 104.808 89.2407 104.808 89.1176C104.792 88.7433 104.787 88.364 104.787 87.9897L104.803 40.2883C104.803 39.955 104.798 39.6166 104.787 39.2783C104.787 39.227 104.782 39.1808 104.782 39.1296C104.777 39.0014 104.772 38.8681 104.762 38.7348C104.751 38.5656 104.746 38.3913 104.736 38.2221C104.731 38.1247 104.721 38.0273 104.71 37.9299C104.7 37.7914 104.69 37.6479 104.674 37.5094C104.664 37.4018 104.659 37.289 104.649 37.1813C104.633 37.0173 104.613 36.8481 104.592 36.684C104.577 36.561 104.567 36.4328 104.551 36.3097C104.546 36.2533 104.541 36.2021 104.531 36.1457C104.49 35.8227 104.444 35.4945 104.392 35.1715C104.387 35.151 104.387 35.1357 104.382 35.1151C104.382 35.11 104.382 35.11 104.382 35.1049C104.326 34.7563 104.269 34.4076 104.203 34.059C104.193 34.0077 104.182 33.9616 104.172 33.9103C104.146 33.7873 104.121 33.6642 104.095 33.5412C104.059 33.3617 104.028 33.1874 103.987 33.008C103.962 32.9003 103.936 32.7926 103.911 32.685C103.88 32.5465 103.849 32.403 103.813 32.2645C103.788 32.162 103.767 32.0543 103.741 31.9518C103.695 31.7672 103.644 31.5827 103.593 31.393C103.562 31.2699 103.531 31.152 103.495 31.0289C103.485 30.9828 103.47 30.9367 103.459 30.8905C103.362 30.5419 103.259 30.1881 103.152 29.8395C103.147 29.8241 103.142 29.8087 103.136 29.7933C103.018 29.4088 102.895 29.0243 102.767 28.6398C102.757 28.609 102.742 28.5731 102.731 28.5424C102.685 28.4039 102.634 28.2655 102.588 28.1271C102.511 27.9117 102.439 27.6964 102.362 27.4759C102.337 27.4093 102.311 27.3426 102.29 27.276C102.234 27.1273 102.178 26.9838 102.126 26.8351C102.065 26.6813 102.008 26.5223 101.952 26.3685C101.911 26.2557 101.86 26.1481 101.819 26.0353C101.762 25.8866 101.701 25.743 101.644 25.5943C101.603 25.4969 101.568 25.3944 101.521 25.297C101.45 25.1175 101.368 24.9432 101.291 24.7638C101.239 24.6407 101.188 24.5177 101.132 24.3946C101.111 24.3485 101.091 24.2972 101.07 24.2511C100.922 23.9076 100.763 23.5692 100.604 23.2308C100.599 23.2206 100.593 23.2103 100.588 23.2001V23.1949C100.414 22.8258 100.24 22.4566 100.055 22.0926C100.04 22.0619 100.024 22.0362 100.009 22.0055C99.9064 21.8004 99.7987 21.6004 99.6962 21.3954C99.5988 21.2057 99.5065 21.0211 99.4039 20.8314C99.3885 20.8006 99.3732 20.775 99.3578 20.7442C99.1168 20.2879 98.8656 19.8368 98.6093 19.3856C98.5426 19.2625 98.4708 19.1446 98.399 19.0216C98.3375 18.9139 98.2709 18.8062 98.2042 18.7037C98.0248 18.3961 97.8402 18.0936 97.6505 17.7911C97.548 17.6219 97.4403 17.4578 97.3378 17.2886C97.1481 16.9913 96.9532 16.6939 96.7533 16.3965C96.6866 16.294 96.62 16.1863 96.5482 16.0838L95.3485 14.3868C95.2408 14.2432 95.1332 14.1048 95.0255 13.9664C94.8614 13.751 94.7025 13.5408 94.5384 13.3255C94.5077 13.2896 94.482 13.2486 94.4513 13.2127C94.318 13.0435 94.1795 12.8743 94.0411 12.7051C93.9232 12.5564 93.8053 12.4078 93.6822 12.2642C93.6566 12.2386 93.6361 12.2078 93.6156 12.177C93.4361 11.9617 93.2516 11.7464 93.067 11.5362C92.9798 11.4336 92.8978 11.3311 92.8106 11.2337C92.8004 11.2234 92.7901 11.208 92.7799 11.1978C92.4928 10.8697 92.2005 10.5467 91.9032 10.2288C91.898 10.2237 91.898 10.2237 91.8929 10.2185C91.6263 9.93143 91.3597 9.65457 91.0931 9.37771C91.0623 9.34695 91.0316 9.31619 91.0008 9.28543C90.8932 9.17776 90.7906 9.07522 90.683 8.96756C90.5394 8.824 90.3958 8.67532 90.2472 8.53689C90.1908 8.48049 90.1344 8.42922 90.078 8.37795C89.9498 8.26003 89.8216 8.14211 89.6934 8.02419C89.5807 7.92165 89.473 7.81911 89.3602 7.71657C89.2782 7.6448 89.1961 7.57815 89.1192 7.50637C88.9859 7.38845 88.8526 7.27053 88.7142 7.15261C88.627 7.0757 88.5399 6.9988 88.4527 6.92189C88.345 6.83474 88.2374 6.74758 88.1348 6.66042C88.0015 6.54762 87.8682 6.43996 87.7298 6.33229C87.6632 6.28102 87.6016 6.22462 87.535 6.17335C87.3966 6.06569 87.2581 5.96315 87.1197 5.85548C86.9915 5.75807 86.8685 5.66066 86.7403 5.56837C86.6993 5.53761 86.6531 5.50172 86.6121 5.47096C86.4173 5.3274 86.2225 5.18897 86.0225 5.05055C85.9251 4.9839 85.8328 4.91212 85.7405 4.85059C85.7252 4.84034 85.7047 4.82496 85.6893 4.81471C85.3817 4.6045 85.074 4.39942 84.7613 4.20459C84.751 4.19947 84.7408 4.19434 84.7305 4.18409C84.6639 4.13794 84.5921 4.10205 84.5203 4.05591C84.2896 3.91236 84.0589 3.7688 83.8231 3.63037C83.7513 3.58936 83.6795 3.54321 83.6026 3.5022L82.608 2.92798C82.367 2.78955 82.1312 2.65625 81.8953 2.52807C81.8235 2.48706 81.7466 2.45117 81.6748 2.41528C81.5518 2.34863 81.4288 2.2871 81.3057 2.22558C81.2032 2.17431 81.0955 2.11791 80.993 2.06665C80.875 2.01025 80.7571 1.95385 80.6392 1.90258C80.5264 1.84619 80.4136 1.79491 80.3008 1.74364C80.2444 1.71801 80.1829 1.68725 80.1214 1.66161C79.9265 1.57445 79.7317 1.49242 79.5369 1.41552C79.4651 1.38475 79.3933 1.35399 79.3216 1.32323C79.3062 1.3181 79.2857 1.30785 79.2703 1.30272C78.9883 1.18993 78.7115 1.08739 78.4346 0.989981C78.409 0.979727 78.3885 0.974599 78.3679 0.969472C78.2859 0.93871 78.2039 0.9182 78.1219 0.887439C77.9527 0.831042 77.7783 0.769517 77.6092 0.718247C77.5476 0.697739 77.4861 0.682359 77.4195 0.666978C77.3067 0.636217 77.199 0.605455 77.0862 0.574693C76.9837 0.549058 76.8811 0.51317 76.7786 0.487535C76.676 0.4619 76.5735 0.441394 76.4761 0.420886C76.3633 0.395251 76.2454 0.369615 76.1326 0.34398C76.0711 0.328599 76.0044 0.313217 75.9429 0.302963C75.8045 0.277329 75.666 0.256822 75.5225 0.236314C75.4097 0.215806 75.302 0.195298 75.1892 0.179917C75.1533 0.17479 75.1174 0.169664 75.0867 0.164537C74.8252 0.128648 74.5637 0.103011 74.3022 0.0825032C74.2561 0.0773762 74.21 0.077378 74.1638 0.072251C74.0664 0.067124 73.9741 0.0671218 73.8767 0.0619948C72.6719 -0.0866875 70.8774 0.0363624 69.4778 0.384997C68.0781 0.733631 63.7355 3.41504 63.7355 3.41504L36.7112 19.3343L24.2373 26.5839C24.4988 26.43 24.7654 26.2916 25.0422 26.1634C25.1294 26.1224 25.2268 26.0865 25.314 26.0455C25.5037 25.9635 25.6934 25.8866 25.8882 25.8148C26.0317 25.7635 26.1804 25.7123 26.324 25.6661C26.4214 25.6354 26.5188 25.6046 26.6214 25.5738C26.7957 25.5226 26.9751 25.4816 27.1494 25.4405C27.2366 25.42 27.3237 25.3995 27.4109 25.379C27.657 25.3277 27.9082 25.2867 28.1646 25.256C28.2261 25.2457 28.2927 25.2406 28.3543 25.2355C28.5235 25.215 28.6926 25.1996 28.8618 25.1893C29.0926 25.1739 29.3233 25.1637 29.5591 25.1586C29.677 25.1586 29.7898 25.1534 29.9077 25.1534C30.1231 25.1534 30.3384 25.1637 30.5589 25.1739C30.7024 25.1791 30.8409 25.1842 30.9844 25.1944C31.2766 25.215 31.574 25.2508 31.8714 25.297C31.979 25.3124 32.0918 25.3329 32.2046 25.3534C32.4046 25.3893 32.6045 25.42 32.8096 25.4662C32.9224 25.4918 33.0403 25.5174 33.1531 25.5431C33.3582 25.5892 33.5633 25.6405 33.7684 25.6969C33.8812 25.7276 33.9888 25.7584 34.1016 25.7892C34.3323 25.8558 34.5682 25.9327 34.804 26.0096C34.886 26.0353 34.9681 26.0609 35.0501 26.0917C35.368 26.1993 35.6858 26.3224 36.0037 26.4506C36.0755 26.4813 36.1473 26.5121 36.2191 26.5428C36.4703 26.6454 36.7266 26.7582 36.983 26.8761C37.0958 26.9274 37.2086 26.9838 37.3265 27.035C37.5469 27.1376 37.7674 27.2504 37.9879 27.3632C38.1109 27.4247 38.234 27.4862 38.357 27.5528C38.6697 27.7169 38.9774 27.8861 39.2901 28.0655L40.2847 28.6398C40.5924 28.8192 40.8949 29.0038 41.1974 29.1935C41.2691 29.2345 41.3358 29.2755 41.4076 29.3217C41.7459 29.537 42.0843 29.7575 42.4176 29.9882C42.515 30.0548 42.6073 30.1215 42.6996 30.1881C42.9405 30.3573 43.1764 30.5265 43.4173 30.7059C43.5455 30.7982 43.6686 30.8956 43.7967 30.9931C44.0018 31.152 44.2069 31.3109 44.412 31.4699C44.5453 31.5775 44.6837 31.6903 44.817 31.798C45.0118 31.9569 45.2066 32.121 45.3963 32.2851C45.5296 32.403 45.6681 32.5158 45.8014 32.6388C45.9962 32.808 46.1859 32.9823 46.3756 33.1566C46.5038 33.2746 46.6319 33.3925 46.7601 33.5104C46.9652 33.7052 47.1652 33.9001 47.3702 34.1C47.4779 34.2025 47.5804 34.3051 47.6881 34.4127C47.9906 34.7152 48.288 35.028 48.5802 35.3459C48.8878 35.6791 49.1954 36.0175 49.4979 36.361C49.5851 36.4584 49.6671 36.561 49.7491 36.6584C49.9594 36.8993 50.1696 37.1454 50.3746 37.3915C50.4926 37.5351 50.6105 37.6838 50.7335 37.8324C50.9027 38.0375 51.0668 38.2477 51.2308 38.4579C51.3949 38.6681 51.559 38.8835 51.7179 39.0988C51.8461 39.2629 51.9691 39.4269 52.0922 39.5961C52.4511 40.0832 52.8048 40.5805 53.1483 41.0881C53.2458 41.2316 53.3432 41.3803 53.4406 41.529C53.6354 41.8264 53.8302 42.1186 54.0251 42.4211C54.1327 42.5851 54.2353 42.7543 54.3378 42.9235C54.5275 43.226 54.7121 43.5285 54.8915 43.8361C55.0248 44.0617 55.1632 44.2873 55.2914 44.518C55.5478 44.9692 55.799 45.4204 56.04 45.8767C56.1527 46.092 56.2604 46.3022 56.3732 46.5175C56.4809 46.7226 56.5885 46.9277 56.6911 47.1328C56.891 47.5276 57.0807 47.9275 57.2704 48.3274C57.2756 48.3376 57.2807 48.353 57.2858 48.3633C57.4653 48.7478 57.6396 49.1323 57.8088 49.522C57.8652 49.645 57.9164 49.7732 57.9677 49.8962C58.0856 50.1731 58.2035 50.4499 58.3163 50.7319C58.3779 50.8755 58.4342 51.0242 58.4907 51.1677C58.5983 51.4343 58.7009 51.7009 58.8034 51.9726C58.8598 52.1213 58.9162 52.2649 58.9675 52.4136C59.07 52.6956 59.1674 52.9724 59.2648 53.2544C59.311 53.3928 59.3622 53.5312 59.4084 53.6697C59.5468 54.085 59.6852 54.5054 59.8134 54.9207C59.9416 55.3359 60.0595 55.7461 60.1723 56.1563C60.2031 56.2793 60.2338 56.3972 60.2697 56.5203C60.3466 56.8125 60.4184 57.0996 60.4902 57.3867C60.5261 57.5252 60.5568 57.6687 60.5876 57.8072C60.6542 58.0943 60.7158 58.3814 60.7722 58.6634C60.7978 58.7864 60.8234 58.9095 60.8491 59.0325C60.926 59.4324 60.9977 59.8374 61.0593 60.2373C61.0644 60.2578 61.0644 60.2732 61.0695 60.2937C61.131 60.6731 61.1823 61.0525 61.2285 61.4319C61.2438 61.5601 61.2541 61.6831 61.2695 61.8062C61.3002 62.0831 61.3259 62.3548 61.3515 62.6316C61.3618 62.7701 61.3771 62.9136 61.3874 63.052C61.4079 63.3238 61.4233 63.5904 61.4335 63.8621C61.4387 63.9954 61.4489 64.1236 61.454 64.2569C61.4694 64.6465 61.4746 65.0311 61.4746 65.4156L61.4694 82.4013L61.4592 113.122C61.4592 113.45 61.4643 113.778 61.4746 114.106C61.4746 114.153 61.4797 114.204 61.4797 114.25C61.4848 114.378 61.4899 114.501 61.4951 114.629C61.5053 114.799 61.5104 114.963 61.5207 115.132C61.5258 115.224 61.5361 115.322 61.5412 115.414C61.5515 115.547 61.5617 115.686 61.572 115.819C61.5822 115.927 61.5873 116.034 61.5976 116.142C61.613 116.301 61.6335 116.46 61.6489 116.619C61.6642 116.742 61.6745 116.865 61.6899 116.983C61.695 117.034 61.7001 117.09 61.7053 117.142C61.7463 117.454 61.7924 117.767 61.8386 118.08C61.8437 118.1 61.8437 118.116 61.8488 118.136C61.8488 118.141 61.8488 118.141 61.8488 118.147C61.9001 118.48 61.9616 118.818 62.0231 119.157C62.0334 119.203 62.0436 119.254 62.0539 119.3C62.0744 119.418 62.1 119.536 62.1257 119.659C62.1616 119.828 62.1923 120.003 62.2282 120.172C62.2487 120.279 62.2795 120.382 62.3 120.49C62.3308 120.623 62.3615 120.761 62.3923 120.895C62.4179 120.992 62.4384 121.095 62.4641 121.192C62.5102 121.377 62.5615 121.556 62.6076 121.741C62.6384 121.853 62.664 121.971 62.6999 122.084C62.7102 122.125 62.7204 122.171 62.7358 122.212C62.8281 122.551 62.9306 122.889 63.0332 123.233C63.0383 123.248 63.0434 123.268 63.0485 123.284C63.1613 123.653 63.2792 124.022 63.4023 124.391C63.4125 124.427 63.4279 124.458 63.4382 124.494C63.4843 124.627 63.5305 124.76 63.5766 124.894C63.6484 125.099 63.715 125.299 63.7868 125.504C63.8125 125.57 63.8381 125.642 63.8637 125.709C63.915 125.852 63.9714 125.996 64.0227 126.134C64.0791 126.278 64.1303 126.427 64.1867 126.57C64.2329 126.688 64.279 126.801 64.3252 126.919C64.3815 127.057 64.4328 127.191 64.4892 127.329C64.5251 127.416 64.561 127.508 64.5969 127.596C64.6789 127.79 64.7609 127.985 64.8481 128.175C64.8942 128.277 64.9353 128.385 64.9814 128.488C64.9968 128.524 65.0122 128.554 65.0275 128.59C65.1762 128.923 65.3249 129.257 65.4838 129.59C65.489 129.605 65.4992 129.616 65.5044 129.631C65.5454 129.713 65.5813 129.795 65.6223 129.877C65.7453 130.133 65.8632 130.385 65.9914 130.641C66.0119 130.687 66.0376 130.733 66.0632 130.774C66.1555 130.959 66.2478 131.138 66.3452 131.318C66.4323 131.482 66.5144 131.651 66.6015 131.815C66.6272 131.861 66.6528 131.902 66.6733 131.948C66.9245 132.415 67.1758 132.876 67.4424 133.333C67.468 133.379 67.4936 133.425 67.5193 133.466C67.5705 133.553 67.6218 133.635 67.6731 133.717C67.8781 134.071 68.0935 134.42 68.3088 134.763C68.4011 134.917 68.4985 135.066 68.5959 135.214C68.7754 135.496 68.9548 135.783 69.1445 136.055C69.2163 136.163 69.2881 136.27 69.3598 136.378L70.4416 137.947C70.5596 137.911 70.5134 138.008 70.5442 138.044C70.6365 138.173 70.7339 138.296 70.8313 138.419C71.0107 138.654 71.185 138.89 71.3645 139.121C71.385 139.147 71.4055 139.172 71.426 139.198C71.5696 139.377 71.7131 139.552 71.8567 139.731C71.9746 139.875 72.0874 140.018 72.2053 140.162C72.2207 140.182 72.2361 140.203 72.2515 140.218C72.4463 140.449 72.6411 140.68 72.8411 140.905C72.918 140.992 72.9897 141.08 73.0615 141.167C73.0666 141.172 73.0718 141.182 73.0769 141.187C73.364 141.515 73.6511 141.833 73.9485 142.151C73.9536 142.156 73.9536 142.156 73.9587 142.161C74.2151 142.438 74.4766 142.715 74.738 142.982C74.7688 143.012 74.7944 143.038 74.8252 143.069C74.9226 143.171 75.0252 143.269 75.1226 143.366C75.2661 143.51 75.4097 143.653 75.5532 143.792C75.6096 143.843 75.6609 143.894 75.7173 143.946C75.8403 144.058 75.9634 144.171 76.0864 144.289C76.1941 144.386 76.3018 144.489 76.4094 144.586C76.4863 144.658 76.5684 144.72 76.6453 144.791C76.7735 144.904 76.9068 145.017 77.0349 145.13C77.1221 145.202 77.2041 145.279 77.2862 145.35C77.3887 145.437 77.4912 145.52 77.5938 145.602C77.722 145.709 77.8501 145.817 77.9834 145.919C78.0449 145.971 78.1116 146.022 78.1731 146.073C78.3064 146.181 78.4449 146.278 78.5782 146.381C78.7012 146.473 78.8191 146.571 78.9422 146.658C78.9832 146.688 79.0242 146.719 79.0652 146.75C79.2549 146.888 79.4446 147.022 79.6394 147.155C79.7317 147.217 79.8189 147.288 79.9112 147.35C79.9265 147.36 79.9419 147.375 79.9624 147.386C80.2598 147.591 80.5572 147.786 80.8597 147.98C80.8699 147.986 80.8802 147.991 80.8904 148.001C80.9571 148.042 81.0288 148.083 81.0955 148.129C81.316 148.268 81.5415 148.406 81.7671 148.539C81.8389 148.58 81.9056 148.621 81.9773 148.662L82.972 149.237C83.2027 149.37 83.4334 149.498 83.6641 149.626C83.7359 149.667 83.8077 149.698 83.8794 149.739C83.9974 149.801 84.1153 149.862 84.2383 149.924C84.3409 149.975 84.4383 150.031 84.5408 150.077C84.6536 150.134 84.7664 150.185 84.8792 150.236C84.992 150.288 85.0997 150.344 85.2125 150.39C85.2689 150.416 85.3253 150.447 85.3868 150.472C85.5765 150.559 85.7662 150.636 85.9507 150.713C86.0225 150.744 86.0892 150.775 86.161 150.8C86.1763 150.805 86.1917 150.816 86.2122 150.821C86.484 150.928 86.7557 151.031 87.0223 151.123C87.0428 151.134 87.0684 151.139 87.0889 151.144C87.171 151.169 87.2479 151.195 87.3248 151.221C87.4888 151.277 87.658 151.333 87.8221 151.385C87.8836 151.405 87.94 151.416 88.0015 151.436C88.1092 151.467 88.2169 151.498 88.3245 151.523C88.422 151.549 88.5245 151.58 88.6219 151.605C88.7193 151.631 88.8167 151.646 88.9141 151.672C89.0269 151.698 89.1346 151.723 89.2474 151.744C89.3089 151.754 89.3704 151.774 89.4268 151.785C89.5601 151.81 89.6934 151.831 89.8319 151.851C89.9395 151.867 90.0472 151.887 90.1549 151.903C90.1856 151.908 90.2215 151.913 90.2523 151.918C90.5035 151.954 91.0111 152 91.0111 152L107.561 142.382C107.279 142.361 106.992 142.325 106.705 142.284C106.597 142.269 106.489 142.248 106.387 142.233C106.192 142.202 105.997 142.166 105.797 142.125C105.684 142.105 105.577 142.079 105.464 142.054C105.269 142.008 105.069 141.961 104.869 141.905C104.762 141.874 104.654 141.849 104.551 141.818C104.326 141.751 104.1 141.679 103.87 141.602C103.793 141.577 103.711 141.551 103.634 141.526C103.326 141.418 103.018 141.305 102.706 141.177C102.639 141.151 102.567 141.115 102.496 141.09C102.249 140.987 102.003 140.88 101.757 140.767C101.65 140.716 101.537 140.664 101.429 140.613C101.214 140.51 101.004 140.408 100.788 140.295C100.67 140.234 100.552 140.172 100.434 140.111C100.132 139.952 99.8346 139.788 99.527 139.613L98.5324 139.039C98.235 138.87 97.9427 138.69 97.6505 138.506C97.5839 138.465 97.5121 138.424 97.4454 138.378C97.1173 138.167 96.7892 137.952 96.4662 137.732C96.3739 137.67 96.2816 137.598 96.1893 137.537C95.9586 137.373 95.7228 137.209 95.4972 137.039C95.3741 136.947 95.2511 136.855 95.1332 136.763C94.9332 136.609 94.7333 136.455 94.5384 136.301C94.4103 136.199 94.277 136.091 94.1488 135.983C93.9591 135.83 93.7745 135.671 93.5848 135.512C93.4566 135.399 93.3233 135.286 93.1952 135.173C93.0106 135.009 92.8209 134.84 92.6363 134.666C92.5133 134.553 92.3902 134.44 92.2723 134.327C92.0724 134.138 91.8724 133.943 91.6776 133.748C91.5802 133.651 91.4776 133.553 91.3802 133.451C91.088 133.153 90.7957 132.856 90.5138 132.543C90.2113 132.215 89.9088 131.882 89.6165 131.548C89.5396 131.461 89.4679 131.374 89.391 131.287C89.1756 131.041 88.9654 130.79 88.7552 130.538C88.6373 130.395 88.5245 130.251 88.4066 130.108C88.2425 129.903 88.0784 129.703 87.9144 129.498C87.7349 129.267 87.5606 129.036 87.3812 128.8C87.2735 128.662 87.1658 128.524 87.0633 128.38C86.7044 127.898 86.3609 127.406 86.0225 126.914C85.9251 126.775 85.8328 126.632 85.7354 126.493C85.5355 126.196 85.3406 125.893 85.1458 125.591C85.0484 125.442 84.951 125.288 84.8587 125.14C84.6434 124.796 84.4332 124.448 84.223 124.094C84.1461 123.966 84.0691 123.838 83.9922 123.709C83.7256 123.253 83.4744 122.792 83.2232 122.325C83.1104 122.115 83.0027 121.905 82.8951 121.694C82.8028 121.515 82.7054 121.33 82.6131 121.151C82.4644 120.854 82.3157 120.551 82.1722 120.249C82.1363 120.167 82.0953 120.09 82.0542 120.008C81.8748 119.628 81.7056 119.249 81.5364 118.864C81.4903 118.762 81.4493 118.659 81.4031 118.557C81.2801 118.275 81.1622 117.993 81.0442 117.706C80.9878 117.572 80.9366 117.434 80.8802 117.301C80.7776 117.039 80.6751 116.778 80.5777 116.516C80.5264 116.373 80.47 116.229 80.4187 116.091C80.3213 115.819 80.2239 115.547 80.1316 115.275C80.0855 115.142 80.0342 115.009 79.9932 114.876C79.8599 114.476 79.7266 114.071 79.6035 113.666C79.4805 113.266 79.3626 112.866 79.2549 112.466C79.2242 112.353 79.1934 112.235 79.1626 112.122C78.9576 111.425 78.8037 110.702 78.6653 109.984C78.6448 109.887 78.6243 109.784 78.6038 109.687C78.5679 109.487 78.532 109.292 78.5012 109.097C78.4654 108.908 78.4295 108.713 78.3987 108.523C78.3936 108.503 78.3936 108.487 78.3885 108.467C78.3321 108.098 78.2808 107.734 78.2346 107.365C78.2193 107.241 78.209 107.124 78.1936 107.001C78.1629 106.734 78.1372 106.467 78.1167 106.201C78.1065 106.062 78.0962 105.929 78.086 105.791C78.0655 105.529 78.0501 105.268 78.0398 105.006C78.0347 104.878 78.0244 104.75 78.0244 104.627C78.0091 104.252 78.0039 103.873 78.0039 103.499L78.0552 103.125C78.0757 99.3254 78.4551 90.8813 78.4602 89.4765C78.4602 88.728 78.8448 88.0307 79.4754 87.6308L86.2225 83.3241C87.0274 82.8114 88.0836 83.3908 88.0836 84.3444V91.071C88.0733 99.3511 88.6219 102.145 89.2013 105.498C89.2166 105.565 89.232 105.626 89.2474 105.693C89.2935 105.878 89.3448 106.057 89.391 106.242C89.4217 106.355 89.4473 106.472 89.4832 106.585C89.4935 106.626 89.5037 106.672 89.5191 106.713C89.6114 107.052 89.714 107.39 89.8165 107.734C89.8216 107.749 89.8267 107.77 89.8319 107.785C89.9447 108.154 90.0626 108.523 90.1856 108.892C90.1959 108.928 90.2113 108.959 90.2215 108.995C90.2677 109.128 90.3138 109.262 90.3599 109.395C90.4317 109.6 90.4984 109.8 90.5702 110.005C90.5958 110.072 90.6214 110.143 90.6471 110.21C90.6983 110.354 90.7547 110.497 90.806 110.636C90.8624 110.779 90.9137 110.928 90.9701 111.071C91.0162 111.189 91.0623 111.302 91.1085 111.42C91.1649 111.558 91.2162 111.692 91.2726 111.83C91.3084 111.917 91.3443 112.01 91.3802 112.097C91.4622 112.292 91.5443 112.486 91.6314 112.676C91.6776 112.779 91.7186 112.886 91.7647 112.989C91.7801 113.025 91.7955 113.055 91.8109 113.091C91.9596 113.425 92.1083 113.758 92.2672 114.091C92.2723 114.106 92.2826 114.117 92.2877 114.132C92.3236 114.214 92.3646 114.296 92.4056 114.378C92.5287 114.635 92.6466 114.886 92.7747 115.142C92.7953 115.188 92.8209 115.234 92.8465 115.275C92.9388 115.46 93.0311 115.639 93.1285 115.819C93.2157 115.983 93.2977 116.152 93.3849 116.316C93.4105 116.362 93.4361 116.403 93.4566 116.45C93.7079 116.916 93.9591 117.378 94.2257 117.834C94.2513 117.88 94.277 117.926 94.3026 117.972C94.3539 118.059 94.4051 118.141 94.4564 118.223C94.6615 118.577 94.8768 118.926 95.0922 119.269C95.1844 119.423 95.2819 119.572 95.3793 119.721C95.5587 120.003 95.7381 120.29 95.9278 120.561C95.9996 120.669 96.0714 120.777 96.1432 120.884L97.3224 122.551C97.4147 122.679 97.5121 122.802 97.6095 122.925C97.7889 123.161 97.9633 123.397 98.1427 123.627C98.1632 123.653 98.1837 123.679 98.2042 123.704C98.3478 123.884 98.4913 124.058 98.6349 124.237C98.7528 124.381 98.8656 124.525 98.9835 124.668C98.9989 124.689 99.0143 124.709 99.0297 124.724C99.2245 124.955 99.4193 125.186 99.6193 125.411C99.6962 125.499 99.768 125.586 99.8449 125.673C99.85 125.678 99.8551 125.688 99.8602 125.693C100.147 126.022 100.434 126.339 100.732 126.657C100.737 126.662 100.737 126.662 100.742 126.668C100.998 126.944 101.26 127.221 101.521 127.488C101.552 127.519 101.578 127.544 101.609 127.575C101.706 127.678 101.808 127.775 101.906 127.872C102.049 128.016 102.193 128.16 102.337 128.298C102.393 128.349 102.444 128.401 102.501 128.452C102.624 128.565 102.747 128.677 102.87 128.795C102.977 128.893 103.085 128.995 103.193 129.093C103.27 129.164 103.352 129.226 103.429 129.298C103.557 129.411 103.69 129.523 103.818 129.636C103.905 129.708 103.987 129.785 104.069 129.857C104.172 129.944 104.275 130.026 104.377 130.108C104.505 130.215 104.633 130.323 104.767 130.426C104.828 130.477 104.895 130.528 104.956 130.579C105.09 130.687 105.228 130.785 105.361 130.887C105.485 130.979 105.602 131.077 105.726 131.164C105.767 131.195 105.808 131.225 105.849 131.256C106.038 131.395 106.228 131.528 106.423 131.661C106.515 131.723 106.602 131.795 106.694 131.856C106.71 131.866 106.725 131.882 106.746 131.892C107.043 132.097 107.34 132.292 107.643 132.487C107.653 132.492 107.663 132.497 107.674 132.507C107.74 132.548 107.812 132.589 107.879 132.635C108.099 132.774 108.325 132.912 108.55 133.046C108.622 133.087 108.689 133.128 108.761 133.169L109.755 133.743C109.986 133.876 110.217 134.004 110.447 134.132C110.519 134.174 110.591 134.204 110.663 134.245C110.781 134.307 110.899 134.368 111.022 134.43C111.124 134.481 111.222 134.538 111.324 134.584C111.437 134.64 111.55 134.691 111.663 134.743C111.775 134.794 111.883 134.85 111.996 134.896C112.052 134.922 112.109 134.953 112.165 134.978C112.355 135.066 112.544 135.143 112.729 135.219C112.796 135.25 112.867 135.281 112.939 135.307C112.955 135.312 112.975 135.322 112.99 135.327C113.262 135.435 113.534 135.537 113.8 135.63C113.821 135.64 113.847 135.645 113.867 135.65C113.949 135.676 114.026 135.701 114.103 135.727C114.272 135.783 114.436 135.84 114.6 135.891C114.662 135.912 114.718 135.922 114.78 135.942C114.887 135.973 114.995 136.004 115.103 136.029C115.2 136.055 115.303 136.086 115.4 136.111C115.498 136.137 115.595 136.153 115.692 136.178C115.805 136.204 115.913 136.229 116.026 136.25C116.087 136.26 116.149 136.281 116.21 136.291C116.343 136.317 116.477 136.337 116.615 136.358C116.723 136.373 116.831 136.393 116.938 136.409C116.969 136.414 117.005 136.419 117.036 136.424C117.287 136.46 117.538 136.486 117.789 136.506H117.794L134.344 126.888C134.062 126.852 133.775 126.816 133.488 126.775ZM87.8836 65.8258C87.8836 66.5743 87.4991 67.2716 86.8685 67.6715L80.1214 71.9781C79.3164 72.4908 78.2603 71.9115 78.2603 70.9579V64.2313C78.2705 55.4026 77.8655 50.696 76.2095 44.4309C75.5122 41.7905 74.4253 39.2988 73.2974 37.1659C72.8257 36.2738 73.1077 35.1715 73.9485 34.6127L80.5213 30.2804C81.3108 29.7575 82.3824 30.0292 82.8284 30.8649C83.9871 33.0336 85.1099 35.5868 85.8277 38.2939C87.4837 44.559 87.8631 49.2656 87.8785 58.0943C87.8887 61.6729 87.8887 64.3748 87.8836 65.8258Z" fill="url(#paint3_linear_53_199)"/>
</mask>
<g mask="url(#mask0_53_199)">
<g filter="url(#filter0_f_53_199)">
<circle cx="100.067" cy="126.033" r="31.6667" fill="#9C61F3"/>
</g>
<g filter="url(#filter1_f_53_199)">
<ellipse cx="72.8333" cy="120.967" rx="24.7" ry="34.2" fill="url(#paint4_linear_53_199)"/>
</g>
<g filter="url(#filter2_f_53_199)">
<circle cx="76.0013" cy="10.1336" r="24.7" fill="url(#paint5_linear_53_199)"/>
</g>
<g filter="url(#filter3_f_53_199)">
<circle cx="44.9666" cy="17.0994" r="24.7" fill="#BF9089"/>
</g>
<g filter="url(#filter4_f_53_199)">
<path d="M77.9012 64.5995C77.9012 74.3934 69.9618 82.3329 60.1679 82.3329C50.3741 82.3329 42.4346 74.3934 42.4346 64.5995C42.4346 54.8057 50.3741 46.8662 60.1679 46.8662C69.9618 46.8662 77.9012 54.8057 77.9012 64.5995Z" fill="#BF9089"/>
</g>
<g filter="url(#filter5_f_53_199)">
<path d="M75.9999 78.5331C75.9999 88.327 68.0604 96.2665 58.2665 96.2665C48.4727 96.2665 40.5332 88.327 40.5332 78.5331C40.5332 68.7393 48.4727 60.7998 58.2665 60.7998C68.0604 60.7998 75.9999 68.7393 75.9999 78.5331Z" fill="url(#paint6_linear_53_199)"/>
</g>
</g>
<defs>
<filter id="filter0_f_53_199" x="37.7784" y="63.7447" width="124.577" height="124.577" filterUnits="userSpaceOnUse" color-interpolation-filters="sRGB">
<feFlood flood-opacity="0" result="BackgroundImageFix"/>
<feBlend mode="normal" in="SourceGraphic" in2="BackgroundImageFix" result="shape"/>
<feGaussianBlur stdDeviation="15.3108" result="effect1_foregroundBlur_53_199"/>
</filter>
<filter id="filter1_f_53_199" x="32.8225" y="71.4558" width="80.0214" height="99.0214" filterUnits="userSpaceOnUse" color-interpolation-filters="sRGB">
<feFlood flood-opacity="0" result="BackgroundImageFix"/>
<feBlend mode="normal" in="SourceGraphic" in2="BackgroundImageFix" result="shape"/>
<feGaussianBlur stdDeviation="7.65538" result="effect1_foregroundBlur_53_199"/>
</filter>
<filter id="filter2_f_53_199" x="5.36901" y="-60.4987" width="141.264" height="141.264" filterUnits="userSpaceOnUse" color-interpolation-filters="sRGB">
<feFlood flood-opacity="0" result="BackgroundImageFix"/>
<feBlend mode="normal" in="SourceGraphic" in2="BackgroundImageFix" result="shape"/>
<feGaussianBlur stdDeviation="22.9661" result="effect1_foregroundBlur_53_199"/>
</filter>
<filter id="filter3_f_53_199" x="-10.3549" y="-38.2221" width="110.643" height="110.643" filterUnits="userSpaceOnUse" color-interpolation-filters="sRGB">
<feFlood flood-opacity="0" result="BackgroundImageFix"/>
<feBlend mode="normal" in="SourceGraphic" in2="BackgroundImageFix" result="shape"/>
<feGaussianBlur stdDeviation="15.3108" result="effect1_foregroundBlur_53_199"/>
</filter>
<filter id="filter4_f_53_199" x="27.1238" y="31.5555" width="66.0883" height="66.0883" filterUnits="userSpaceOnUse" color-interpolation-filters="sRGB">
<feFlood flood-opacity="0" result="BackgroundImageFix"/>
<feBlend mode="normal" in="SourceGraphic" in2="BackgroundImageFix" result="shape"/>
<feGaussianBlur stdDeviation="7.65538" result="effect1_foregroundBlur_53_199"/>
</filter>
<filter id="filter5_f_53_199" x="9.9117" y="30.1783" width="96.7098" height="96.7098" filterUnits="userSpaceOnUse" color-interpolation-filters="sRGB">
<feFlood flood-opacity="0" result="BackgroundImageFix"/>
<feBlend mode="normal" in="SourceGraphic" in2="BackgroundImageFix" result="shape"/>
<feGaussianBlur stdDeviation="15.3108" result="effect1_foregroundBlur_53_199"/>
</filter>
<linearGradient id="paint0_linear_53_199" x1="43.4638" y1="33.5651" x2="43.4638" y2="122.124" gradientUnits="userSpaceOnUse">
<stop stop-color="#375653"/>
<stop offset="1" stop-color="#1F3A63"/>
</linearGradient>
<linearGradient id="paint1_linear_53_199" x1="71.182" y1="17.1222" x2="71.182" y2="105.681" gradientUnits="userSpaceOnUse">
<stop stop-color="#375653"/>
<stop offset="1" stop-color="#1F3A63"/>
</linearGradient>
<linearGradient id="paint2_linear_53_199" x1="79.3019" y1="-10.0878" x2="79.3019" y2="162.52" gradientUnits="userSpaceOnUse">
<stop stop-color="#D1CAFA"/>
<stop offset="1" stop-color="#EEEBFF"/>
</linearGradient>
<linearGradient id="paint3_linear_53_199" x1="79.3019" y1="-10.0878" x2="79.3019" y2="162.52" gradientUnits="userSpaceOnUse">
<stop stop-color="#D1CAFA"/>
<stop offset="1" stop-color="#EEEBFF"/>
</linearGradient>
<linearGradient id="paint4_linear_53_199" x1="72.8333" y1="86.7666" x2="59.0172" y2="142.756" gradientUnits="userSpaceOnUse">
<stop stop-color="#9E63F3"/>
<stop offset="0.520833" stop-color="#6F7FF4"/>
<stop offset="1" stop-color="#7BAEF6"/>
</linearGradient>
<linearGradient id="paint5_linear_53_199" x1="76.0013" y1="-14.5664" x2="68.5913" y2="27.0119" gradientUnits="userSpaceOnUse">
<stop stop-color="#9E63F3"/>
<stop offset="1" stop-color="#6F7FF4"/>
</linearGradient>
<linearGradient id="paint6_linear_53_199" x1="58.2665" y1="60.7998" x2="58.2665" y2="96.2665" gradientUnits="userSpaceOnUse">
<stop stop-color="#B569D4"/>
<stop offset="1" stop-color="#9D62F4"/>
</linearGradient>
</defs>
</svg>
