<svg version="1.1" id="Layer_1" xmlns="http://www.w3.org/2000/svg" xmlns:xlink="http://www.w3.org/1999/xlink" x="0px" y="0px"
	 width="100%" viewBox="0 0 2430 1672" enable-background="new 0 0 2430 1672" xml:space="preserve">
<path fill="#4BDCFF" opacity="1.000000" stroke="none" 
	d="
M2431.000000,477.000000 
	C2431.000000,875.633850 2431.000000,1274.267700 2431.000000,1672.950806 
	C1621.099365,1672.950806 811.198853,1672.950806 1.000000,1672.950806 
	C1.000000,1274.965088 1.000000,876.930176 1.441063,478.274170 
	C265.329163,477.649689 528.776184,477.648102 792.223206,477.612671 
	C794.504883,477.612366 796.786499,477.156708 799.511108,476.949310 
	C801.953430,476.989960 803.952820,476.999359 805.952148,476.999359 
	C1347.634766,477.000000 1889.317383,477.000000 2431.000000,477.000000 
M1277.000000,1146.500000 
	C1277.000000,1186.574829 1277.000000,1226.649536 1277.000000,1267.000000 
	C1279.831055,1267.000000 1281.819458,1267.000000 1283.807983,1267.000000 
	C1349.135132,1267.000000 1414.462402,1267.030273 1479.789551,1266.981812 
	C1499.871338,1266.966919 1519.668213,1264.487549 1538.991577,1258.943970 
	C1560.452759,1252.786865 1579.945679,1243.075562 1595.411987,1226.450317 
	C1616.593750,1203.681396 1622.233765,1176.197144 1619.458618,1146.284058 
	C1617.720459,1127.549438 1611.315063,1110.685059 1598.452515,1096.575684 
	C1585.657959,1082.540649 1569.506226,1073.845581 1552.063965,1067.165649 
	C1549.894775,1066.334961 1547.713989,1065.534546 1544.715698,1064.412109 
	C1547.187744,1063.190063 1548.671143,1062.478027 1550.135864,1061.729492 
	C1564.094238,1054.595215 1576.370972,1045.448120 1586.097656,1032.936401 
	C1612.426514,999.068848 1614.027466,926.314026 1553.301025,896.099121 
	C1530.106812,884.558655 1505.334717,880.169617 1479.774902,880.078308 
	C1414.115234,879.843811 1348.454224,879.999878 1282.793701,879.999878 
	C1281.020264,879.999878 1279.246704,879.999939 1277.000000,879.999939 
	C1277.000000,968.929565 1277.000000,1057.214844 1277.000000,1146.500000 
M913.503174,1197.000000 
	C955.658264,1197.000122 997.813477,1197.052612 1039.968140,1196.910034 
	C1043.725464,1196.897339 1045.483032,1197.987183 1046.838379,1201.540405 
	C1054.609253,1221.911743 1062.769531,1242.134888 1070.500977,1262.520874 
	C1071.882935,1266.165161 1073.676025,1267.099365 1077.367065,1267.084229 
	C1111.856812,1266.942139 1146.347534,1267.000000 1180.837891,1267.000000 
	C1182.452637,1267.000000 1184.067261,1267.000000 1186.376953,1267.000000 
	C1185.580688,1264.811035 1185.091919,1263.271240 1184.470581,1261.786865 
	C1131.375488,1134.969482 1078.256836,1008.162048 1025.240845,881.311584 
	C1023.879028,878.053345 1022.279724,876.895508 1018.711304,876.913208 
	C988.387146,877.064148 958.059875,877.180481 927.738892,876.836792 
	C922.117798,876.773132 919.776306,878.570251 917.678467,883.613159 
	C866.343262,1007.016846 814.819702,1130.342163 763.339539,1253.685547 
	C761.564880,1257.937500 759.889221,1262.230835 758.157959,1266.528320 
	C758.784058,1266.731689 758.941650,1266.827515 759.099365,1266.827759 
	C794.917358,1266.888184 830.735535,1266.985840 866.552734,1266.837402 
	C868.006897,1266.831421 870.157837,1264.785767 870.791809,1263.210571 
	C877.689331,1246.073608 884.317810,1228.828491 891.092407,1211.641602 
	C892.974365,1206.866943 893.879578,1200.403809 897.451538,1197.964966 
	C901.024048,1195.526001 907.373474,1197.154419 913.503174,1197.000000 
M1888.283691,1273.825073 
	C1909.468018,1272.317627 1930.267090,1268.921021 1950.152710,1261.109863 
	C1979.231689,1249.687256 2002.639893,1231.622437 2016.690918,1203.089722 
	C2028.950928,1178.193848 2031.456421,1151.793945 2026.891602,1124.698975 
	C2023.936157,1107.157715 2016.422974,1091.627075 2004.156372,1078.556274 
	C1989.448242,1062.884033 1971.078369,1052.912476 1951.466431,1044.974976 
	C1929.178711,1035.954468 1905.935303,1030.145386 1882.545288,1024.842285 
	C1865.163574,1020.901489 1847.729126,1017.088501 1831.880981,1008.373169 
	C1823.691650,1003.869568 1818.176758,994.826599 1819.078979,987.034424 
	C1820.477539,974.955078 1828.583740,965.423462 1841.199585,964.278687 
	C1854.319458,963.088013 1867.819092,962.682495 1880.830566,964.389404 
	C1910.317139,968.257507 1936.513062,981.172302 1960.855835,997.733276 
	C1965.081299,1000.608032 1966.182007,999.299622 1968.328735,996.202942 
	C1978.598267,981.389282 1988.992676,966.662109 1999.327637,951.893677 
	C2005.665649,942.836548 2011.976440,933.760437 2018.465088,924.455322 
	C2003.716797,912.291260 1988.044067,902.649658 1971.171265,894.910400 
	C1942.014160,881.536438 1911.191406,875.173401 1879.338135,873.391541 
	C1849.152710,871.702942 1819.392456,873.777344 1790.869385,884.897949 
	C1759.453613,897.146545 1735.263794,917.369202 1721.476562,948.760437 
	C1711.552368,971.356140 1709.849121,995.108276 1713.333008,1019.153931 
	C1715.765869,1035.944824 1722.524902,1051.320068 1733.815552,1064.205444 
	C1748.567749,1081.041382 1767.563477,1091.740112 1788.087402,1099.836548 
	C1814.437012,1110.231079 1842.121704,1116.027344 1869.436523,1123.132690 
	C1884.386108,1127.021729 1899.554565,1130.604370 1912.607788,1139.781616 
	C1920.378906,1145.245117 1922.717163,1152.716309 1921.588989,1161.401367 
	C1920.040527,1173.321411 1911.438843,1178.890747 1900.941406,1181.861694 
	C1888.319946,1185.433960 1875.464111,1185.458130 1862.401001,1184.242188 
	C1832.291260,1181.439331 1804.571899,1171.864746 1778.946533,1156.075439 
	C1770.189941,1150.679932 1761.816772,1144.662109 1752.755249,1138.584473 
	C1733.156250,1162.247803 1713.481201,1186.002808 1693.737183,1209.841187 
	C1712.223999,1226.305298 1732.180786,1239.124268 1754.011841,1249.052002 
	C1796.399170,1268.327515 1841.038452,1275.529053 1888.283691,1273.825073 
M440.500000,880.000000 
	C425.422028,880.000000 410.344055,880.000000 395.348053,880.000000 
	C395.348053,1009.423401 395.348053,1137.996094 395.348053,1266.546753 
	C492.720032,1266.546753 589.743286,1266.546753 686.648071,1266.546753 
	C686.648071,1235.167847 686.648071,1204.243530 686.648071,1172.701904 
	C624.744263,1172.701904 563.189270,1172.701904 501.145966,1172.701904 
	C501.145966,1123.456299 501.145966,1074.829590 501.145966,1026.202881 
	C501.145966,977.615784 501.145966,929.028687 501.145966,880.000000 
	C480.764130,880.000000 461.132080,880.000000 440.500000,880.000000 
z"/>
<path fill="#FFFFFF" opacity="1.000000" stroke="none" 
	d="
M2431.000000,476.549103 
	C1889.317383,477.000000 1347.634766,477.000000 805.952148,476.999359 
	C803.952820,476.999359 801.953430,476.989960 799.480713,476.487732 
	C799.004883,317.660309 799.002441,159.330154 799.000000,1.000000 
	C1342.896240,1.000000 1886.792480,1.000000 2431.000000,1.000000 
	C2431.000000,159.365936 2431.000000,317.732056 2431.000000,476.549103 
z"/>
<path fill="#282D46" opacity="1.000000" stroke="none" 
	d="
M798.531372,1.000000 
	C799.002441,159.330154 799.004883,317.660309 799.037720,476.452087 
	C796.786499,477.156708 794.504883,477.612366 792.223206,477.612671 
	C528.776184,477.648102 265.329163,477.649689 1.441063,477.826538 
	C1.000000,319.054565 1.000000,160.109100 1.000000,1.000000 
	C266.687531,1.000000 532.375122,1.000000 798.531372,1.000000 
M360.235962,165.732941 
	C363.219574,163.381546 366.203186,161.030151 369.161102,158.699005 
	C336.230499,109.574318 275.203033,92.951004 215.896133,108.492989 
	C186.490555,116.199020 162.598206,133.002563 144.317719,157.418228 
	C122.180687,186.984726 113.777466,220.805862 117.292274,256.914612 
	C122.036507,305.653625 150.939194,357.546844 214.993546,375.528839 
	C276.494965,392.794159 336.975067,372.198883 370.995209,320.465149 
	C370.240875,319.868134 369.497559,319.228882 368.704193,318.659454 
	C351.138794,306.052490 333.567902,293.453217 316.514801,281.223114 
	C308.848328,288.194275 302.070190,295.663239 294.057404,301.411224 
	C263.885803,323.054932 222.344681,314.631653 203.615311,283.111816 
	C192.108948,263.747681 189.400574,242.805161 195.103455,220.901031 
	C209.056610,167.308411 266.473328,156.597473 301.189056,188.499237 
	C305.592957,192.546158 310.115112,196.464371 315.066528,200.873260 
	C329.233032,189.842636 344.447357,177.996094 360.235962,165.732941 
M494.227783,351.301056 
	C497.382477,359.165649 500.441223,367.071472 503.785156,374.854767 
	C504.351715,376.173462 506.137634,377.857452 507.372681,377.867706 
	C529.355835,378.050385 551.340942,378.000244 573.480530,378.000244 
	C609.374329,288.002899 645.185852,198.211838 681.165649,107.998817 
	C655.125061,107.998817 629.962524,108.077728 604.801697,107.906662 
	C601.358032,107.883247 600.024780,108.953293 598.891296,112.150383 
	C581.960449,159.902710 564.873230,207.599579 547.809082,255.304611 
	C545.381470,262.091278 542.881287,268.852020 539.905090,277.024323 
	C519.557739,219.787155 499.723541,163.993408 479.866425,108.135239 
	C452.556915,108.135239 425.424683,108.135239 397.644745,108.135239 
	C429.846283,189.170578 461.914124,269.869476 494.227783,351.301056 
z"/>
<path fill="#FFFFFF" opacity="1.000000" stroke="none" 
	d="
M1277.000000,1146.000000 
	C1277.000000,1057.214844 1277.000000,968.929565 1277.000000,879.999939 
	C1279.246704,879.999939 1281.020264,879.999878 1282.793701,879.999878 
	C1348.454224,879.999878 1414.115234,879.843811 1479.774902,880.078308 
	C1505.334717,880.169617 1530.106812,884.558655 1553.301025,896.099121 
	C1614.027466,926.314026 1612.426514,999.068848 1586.097656,1032.936401 
	C1576.370972,1045.448120 1564.094238,1054.595215 1550.135864,1061.729492 
	C1548.671143,1062.478027 1547.187744,1063.190063 1544.715698,1064.412109 
	C1547.713989,1065.534546 1549.894775,1066.334961 1552.063965,1067.165649 
	C1569.506226,1073.845581 1585.657959,1082.540649 1598.452515,1096.575684 
	C1611.315063,1110.685059 1617.720459,1127.549438 1619.458618,1146.284058 
	C1622.233765,1176.197144 1616.593750,1203.681396 1595.411987,1226.450317 
	C1579.945679,1243.075562 1560.452759,1252.786865 1538.991577,1258.943970 
	C1519.668213,1264.487549 1499.871338,1266.966919 1479.789551,1266.981812 
	C1414.462402,1267.030273 1349.135132,1267.000000 1283.807983,1267.000000 
	C1281.819458,1267.000000 1279.831055,1267.000000 1277.000000,1267.000000 
	C1277.000000,1226.649536 1277.000000,1186.574829 1277.000000,1146.000000 
M1380.626709,1117.555176 
	C1380.627075,1136.710938 1380.727417,1155.867676 1380.547485,1175.021729 
	C1380.509399,1179.085693 1381.625000,1180.484253 1385.851685,1180.457886 
	C1412.835327,1180.289185 1439.820679,1180.413452 1466.805176,1180.350952 
	C1477.593872,1180.325928 1487.849365,1178.151001 1497.622559,1173.231934 
	C1515.288086,1164.339966 1516.792236,1139.700195 1508.802490,1127.062134 
	C1504.119751,1119.654907 1497.013794,1114.959229 1488.724243,1113.207886 
	C1478.861206,1111.124023 1468.723511,1109.559082 1458.668213,1109.322266 
	C1435.194580,1108.769287 1411.699097,1109.145264 1388.212402,1109.145874 
	C1380.639282,1109.146118 1380.639282,1109.147339 1380.626709,1117.555176 
M1436.499878,1034.000000 
	C1439.996826,1033.999390 1443.494507,1034.044312 1446.990601,1033.989990 
	C1458.361816,1033.813354 1469.629395,1032.910645 1480.148315,1028.070923 
	C1492.061157,1022.589783 1498.138184,1013.325317 1498.162354,1000.076904 
	C1498.186401,986.893250 1492.566162,977.098816 1480.396484,972.048218 
	C1474.200439,969.476685 1467.331177,967.367798 1460.708618,967.189941 
	C1435.916016,966.523987 1411.097778,966.866272 1386.293457,966.519165 
	C1381.487183,966.451965 1380.493530,968.143921 1380.541260,972.533875 
	C1380.744141,991.182129 1380.621704,1009.833801 1380.637939,1028.484253 
	C1380.639282,1030.110352 1380.785400,1031.736450 1380.895264,1034.000000 
	C1399.304443,1034.000000 1417.402222,1034.000000 1436.499878,1034.000000 
z"/>
<path fill="#FFFFFF" opacity="1.000000" stroke="none" 
	d="
M913.004395,1197.000000 
	C907.373474,1197.154419 901.024048,1195.526001 897.451538,1197.964966 
	C893.879578,1200.403809 892.974365,1206.866943 891.092407,1211.641602 
	C884.317810,1228.828491 877.689331,1246.073608 870.791809,1263.210571 
	C870.157837,1264.785767 868.006897,1266.831421 866.552734,1266.837402 
	C830.735535,1266.985840 794.917358,1266.888184 759.099365,1266.827759 
	C758.941650,1266.827515 758.784058,1266.731689 758.157959,1266.528320 
	C759.889221,1262.230835 761.564880,1257.937500 763.339539,1253.685547 
	C814.819702,1130.342163 866.343262,1007.016846 917.678467,883.613159 
	C919.776306,878.570251 922.117798,876.773132 927.738892,876.836792 
	C958.059875,877.180481 988.387146,877.064148 1018.711304,876.913208 
	C1022.279724,876.895508 1023.879028,878.053345 1025.240845,881.311584 
	C1078.256836,1008.162048 1131.375488,1134.969482 1184.470581,1261.786865 
	C1185.091919,1263.271240 1185.580688,1264.811035 1186.376953,1267.000000 
	C1184.067261,1267.000000 1182.452637,1267.000000 1180.837891,1267.000000 
	C1146.347534,1267.000000 1111.856812,1266.942139 1077.367065,1267.084229 
	C1073.676025,1267.099365 1071.882935,1266.165161 1070.500977,1262.520874 
	C1062.769531,1242.134888 1054.609253,1221.911743 1046.838379,1201.540405 
	C1045.483032,1197.987183 1043.725464,1196.897339 1039.968140,1196.910034 
	C997.813477,1197.052612 955.658264,1197.000122 913.004395,1197.000000 
M995.231079,1066.244751 
	C987.405884,1046.212402 979.580688,1026.180054 971.755493,1006.147644 
	C971.341553,1006.150513 970.927612,1006.153381 970.513672,1006.156189 
	C956.511047,1041.568237 942.508423,1076.980347 928.280701,1112.961670 
	C957.069458,1112.961670 984.882385,1112.961670 1013.458557,1112.961670 
	C1007.329712,1097.215942 1001.439087,1082.082031 995.231079,1066.244751 
z"/>
<path fill="#FEFFFF" opacity="1.000000" stroke="none" 
	d="
M1887.805054,1273.838623 
	C1841.038452,1275.529053 1796.399170,1268.327515 1754.011841,1249.052002 
	C1732.180786,1239.124268 1712.223999,1226.305298 1693.737183,1209.841187 
	C1713.481201,1186.002808 1733.156250,1162.247803 1752.755249,1138.584473 
	C1761.816772,1144.662109 1770.189941,1150.679932 1778.946533,1156.075439 
	C1804.571899,1171.864746 1832.291260,1181.439331 1862.401001,1184.242188 
	C1875.464111,1185.458130 1888.319946,1185.433960 1900.941406,1181.861694 
	C1911.438843,1178.890747 1920.040527,1173.321411 1921.588989,1161.401367 
	C1922.717163,1152.716309 1920.378906,1145.245117 1912.607788,1139.781616 
	C1899.554565,1130.604370 1884.386108,1127.021729 1869.436523,1123.132690 
	C1842.121704,1116.027344 1814.437012,1110.231079 1788.087402,1099.836548 
	C1767.563477,1091.740112 1748.567749,1081.041382 1733.815552,1064.205444 
	C1722.524902,1051.320068 1715.765869,1035.944824 1713.333008,1019.153931 
	C1709.849121,995.108276 1711.552368,971.356140 1721.476562,948.760437 
	C1735.263794,917.369202 1759.453613,897.146545 1790.869385,884.897949 
	C1819.392456,873.777344 1849.152710,871.702942 1879.338135,873.391541 
	C1911.191406,875.173401 1942.014160,881.536438 1971.171265,894.910400 
	C1988.044067,902.649658 2003.716797,912.291260 2018.465088,924.455322 
	C2011.976440,933.760437 2005.665649,942.836548 1999.327637,951.893677 
	C1988.992676,966.662109 1978.598267,981.389282 1968.328735,996.202942 
	C1966.182007,999.299622 1965.081299,1000.608032 1960.855835,997.733276 
	C1936.513062,981.172302 1910.317139,968.257507 1880.830566,964.389404 
	C1867.819092,962.682495 1854.319458,963.088013 1841.199585,964.278687 
	C1828.583740,965.423462 1820.477539,974.955078 1819.078979,987.034424 
	C1818.176758,994.826599 1823.691650,1003.869568 1831.880981,1008.373169 
	C1847.729126,1017.088501 1865.163574,1020.901489 1882.545288,1024.842285 
	C1905.935303,1030.145386 1929.178711,1035.954468 1951.466431,1044.974976 
	C1971.078369,1052.912476 1989.448242,1062.884033 2004.156372,1078.556274 
	C2016.422974,1091.627075 2023.936157,1107.157715 2026.891602,1124.698975 
	C2031.456421,1151.793945 2028.950928,1178.193848 2016.690918,1203.089722 
	C2002.639893,1231.622437 1979.231689,1249.687256 1950.152710,1261.109863 
	C1930.267090,1268.921021 1909.468018,1272.317627 1887.805054,1273.838623 
z"/>
<path fill="#FFFFFF" opacity="1.000000" stroke="none" 
	d="
M441.000000,880.000000 
	C461.132080,880.000000 480.764130,880.000000 501.145966,880.000000 
	C501.145966,929.028687 501.145966,977.615784 501.145966,1026.202881 
	C501.145966,1074.829590 501.145966,1123.456299 501.145966,1172.701904 
	C563.189270,1172.701904 624.744263,1172.701904 686.648071,1172.701904 
	C686.648071,1204.243530 686.648071,1235.167847 686.648071,1266.546753 
	C589.743286,1266.546753 492.720032,1266.546753 395.348053,1266.546753 
	C395.348053,1137.996094 395.348053,1009.423401 395.348053,880.000000 
	C410.344055,880.000000 425.422028,880.000000 441.000000,880.000000 
z"/>
<path fill="#FEFEFE" opacity="1.000000" stroke="none" 
	d="
M359.948853,165.941254 
	C344.447357,177.996094 329.233032,189.842636 315.066528,200.873260 
	C310.115112,196.464371 305.592957,192.546158 301.189056,188.499237 
	C266.473328,156.597473 209.056610,167.308411 195.103455,220.901031 
	C189.400574,242.805161 192.108948,263.747681 203.615311,283.111816 
	C222.344681,314.631653 263.885803,323.054932 294.057404,301.411224 
	C302.070190,295.663239 308.848328,288.194275 316.514801,281.223114 
	C333.567902,293.453217 351.138794,306.052490 368.704193,318.659454 
	C369.497559,319.228882 370.240875,319.868134 370.995209,320.465149 
	C336.975067,372.198883 276.494965,392.794159 214.993546,375.528839 
	C150.939194,357.546844 122.036507,305.653625 117.292274,256.914612 
	C113.777466,220.805862 122.180687,186.984726 144.317719,157.418228 
	C162.598206,133.002563 186.490555,116.199020 215.896133,108.492989 
	C275.203033,92.951004 336.230499,109.574318 369.161102,158.699005 
	C366.203186,161.030151 363.219574,163.381546 359.948853,165.941254 
z"/>
<path fill="#FEFEFE" opacity="1.000000" stroke="none" 
	d="
M494.104858,350.934723 
	C461.914124,269.869476 429.846283,189.170578 397.644745,108.135239 
	C425.424683,108.135239 452.556915,108.135239 479.866425,108.135239 
	C499.723541,163.993408 519.557739,219.787155 539.905090,277.024323 
	C542.881287,268.852020 545.381470,262.091278 547.809082,255.304611 
	C564.873230,207.599579 581.960449,159.902710 598.891296,112.150383 
	C600.024780,108.953293 601.358032,107.883247 604.801697,107.906662 
	C629.962524,108.077728 655.125061,107.998817 681.165649,107.998817 
	C645.185852,198.211838 609.374329,288.002899 573.480530,378.000244 
	C551.340942,378.000244 529.355835,378.050385 507.372681,377.867706 
	C506.137634,377.857452 504.351715,376.173462 503.785156,374.854767 
	C500.441223,367.071472 497.382477,359.165649 494.104858,350.934723 
z"/>
<path fill="#4BDCFF" opacity="1.000000" stroke="none" 
	d="
M1380.626343,1117.065918 
	C1380.639282,1109.147339 1380.639282,1109.146118 1388.212402,1109.145874 
	C1411.699097,1109.145264 1435.194580,1108.769287 1458.668213,1109.322266 
	C1468.723511,1109.559082 1478.861206,1111.124023 1488.724243,1113.207886 
	C1497.013794,1114.959229 1504.119751,1119.654907 1508.802490,1127.062134 
	C1516.792236,1139.700195 1515.288086,1164.339966 1497.622559,1173.231934 
	C1487.849365,1178.151001 1477.593872,1180.325928 1466.805176,1180.350952 
	C1439.820679,1180.413452 1412.835327,1180.289185 1385.851685,1180.457886 
	C1381.625000,1180.484253 1380.509399,1179.085693 1380.547485,1175.021729 
	C1380.727417,1155.867676 1380.627075,1136.710938 1380.626343,1117.065918 
z"/>
<path fill="#4BDCFF" opacity="1.000000" stroke="none" 
	d="
M1436.000000,1034.000000 
	C1417.402222,1034.000000 1399.304443,1034.000000 1380.895264,1034.000000 
	C1380.785400,1031.736450 1380.639282,1030.110352 1380.637939,1028.484253 
	C1380.621704,1009.833801 1380.744141,991.182129 1380.541260,972.533875 
	C1380.493530,968.143921 1381.487183,966.451965 1386.293457,966.519165 
	C1411.097778,966.866272 1435.916016,966.523987 1460.708618,967.189941 
	C1467.331177,967.367798 1474.200439,969.476685 1480.396484,972.048218 
	C1492.566162,977.098816 1498.186401,986.893250 1498.162354,1000.076904 
	C1498.138184,1013.325317 1492.061157,1022.589783 1480.148315,1028.070923 
	C1469.629395,1032.910645 1458.361816,1033.813354 1446.990601,1033.989990 
	C1443.494507,1034.044312 1439.996826,1033.999390 1436.000000,1034.000000 
z"/>
<path fill="#4CDCFF" opacity="1.000000" stroke="none" 
	d="
M995.389771,1066.596436 
	C1001.439087,1082.082031 1007.329712,1097.215942 1013.458557,1112.961670 
	C984.882385,1112.961670 957.069458,1112.961670 928.280701,1112.961670 
	C942.508423,1076.980347 956.511047,1041.568237 970.513672,1006.156189 
	C970.927612,1006.153381 971.341553,1006.150513 971.755493,1006.147644 
	C979.580688,1026.180054 987.405884,1046.212402 995.389771,1066.596436 
z"/>
</svg>