<svg version="1.1" id="Layer_1" xmlns="http://www.w3.org/2000/svg" xmlns:xlink="http://www.w3.org/1999/xlink" x="0px" y="0px"
	 width="100%" viewBox="0 0 1024 560" enable-background="new 0 0 1024 560" xml:space="preserve">
<path fill="#000000" opacity="1.000000" stroke="none" 
	d="
M393.730652,446.124603 
	C377.630432,449.481659 363.510376,446.395935 351.556824,435.450256 
	C348.912903,433.029205 347.080902,432.649292 343.832520,434.529480 
	C312.474762,452.679352 278.744049,459.971283 242.616028,456.478210 
	C217.311539,454.031616 193.863892,446.210297 172.118866,433.174927 
	C169.767059,431.765076 167.775650,431.604218 165.135361,432.392059 
	C108.562241,449.273010 53.018539,413.046997 43.551540,357.925842 
	C36.767700,318.427307 54.856468,279.566071 89.694611,259.538422 
	C92.399048,257.983734 93.876404,256.032257 94.548721,253.070541 
	C105.206413,206.121002 131.389297,170.256866 172.144577,144.928879 
	C175.297791,142.969269 176.864059,140.855789 177.178772,137.121964 
	C178.911896,116.559120 188.560379,100.709991 206.657745,90.682693 
	C236.363907,74.223259 272.798889,86.791000 286.659302,118.154282 
	C288.364349,122.012497 290.647614,123.751587 294.541626,124.563164 
	C327.598602,131.452744 355.824921,147.276184 379.577301,171.135101 
	C382.077148,173.646164 383.974091,174.088226 387.298492,172.704346 
	C426.148010,156.531647 467.452393,179.552536 474.023041,220.897522 
	C478.381592,248.323380 461.287567,277.708771 434.999603,287.135925 
	C429.832153,288.989044 427.792206,291.342377 427.558044,296.897736 
	C426.579041,320.126282 421.028351,342.305603 410.557770,363.119934 
	C408.822601,366.569275 410.799316,367.907684 412.753174,369.747589 
	C427.041351,383.202087 431.483673,399.450684 425.027863,417.927399 
	C419.911499,432.570709 409.090210,441.772217 393.730652,446.124603 
M409.713562,261.666901 
	C408.302582,253.785965 406.368927,246.025253 403.553619,238.537827 
	C384.483185,187.819260 348.780090,155.321274 296.506073,141.011810 
	C293.490875,140.186432 291.606262,139.919144 291.231445,144.150986 
	C288.765869,171.989014 270.346252,192.568970 242.854141,196.875595 
	C216.373459,201.023788 192.184189,186.959946 181.582260,162.838562 
	C181.059738,161.649765 180.741684,160.264175 179.330872,159.688171 
	C153.485092,169.628204 111.978065,225.317963 112.564354,249.336899 
	C158.904800,240.828217 197.620300,253.973495 219.951797,296.190582 
	C246.522552,346.421814 231.231583,389.252350 187.668243,423.276550 
	C187.975296,423.661865 188.134506,423.989258 188.395828,424.163177 
	C188.946350,424.529541 189.542221,424.831543 190.133636,425.132080 
	C216.163742,438.359406 243.668716,443.538788 272.798584,441.028473 
	C295.098572,439.106689 315.739716,432.384186 335.243713,421.644165 
	C338.461273,419.872375 339.995117,418.141022 338.663208,414.224731 
	C336.189972,406.952332 336.409119,399.520081 338.352844,392.096008 
	C344.341400,369.222687 366.303009,355.170258 390.581360,359.069977 
	C393.996552,359.618561 395.329254,358.658112 396.685974,355.882446 
	C411.206421,326.175171 415.120544,295.004486 409.713562,261.666901 
M167.223969,268.333130 
	C154.426468,263.457275 141.387604,261.569794 127.588600,263.082794 
	C88.297531,267.390808 51.827427,303.564819 58.671177,353.078674 
	C64.875504,397.966309 107.643677,427.890961 151.815430,419.583374 
	C189.570145,412.482666 217.688065,378.971252 216.478409,340.627289 
	C215.415070,306.921509 198.681274,282.802582 167.223969,268.333130 
M209.128311,173.371063 
	C217.277603,179.569366 226.462646,182.143539 236.683273,181.774704 
	C259.294098,180.958725 277.905884,159.492996 275.582092,136.683960 
	C273.163422,112.943840 250.243271,95.240105 227.497391,99.784195 
	C210.057968,103.268181 198.301697,113.514473 194.209579,130.946701 
	C190.300064,147.601196 195.368698,161.810379 209.128311,173.371063 
M427.793793,185.630280 
	C416.539642,182.141937 405.467438,182.008804 394.157990,186.846375 
	C395.040955,188.531830 395.460907,189.620056 396.115692,190.541412 
	C412.718414,213.903580 423.065796,239.702469 426.446106,268.223541 
	C426.907776,272.118805 428.402344,273.443085 432.351471,271.376190 
	C450.566406,261.842743 459.730560,246.789536 458.553467,226.380264 
	C457.418610,206.703125 446.574707,193.444565 427.793793,185.630280 
M373.312256,428.006165 
	C374.978546,433.472534 379.489563,430.712738 382.598480,430.818359 
	C392.727386,431.162323 391.633270,431.788849 391.707703,421.809692 
	C391.787750,411.075714 390.351532,411.944885 401.609985,411.853149 
	C413.025299,411.760132 411.510864,413.143646 411.557312,401.599640 
	C411.588135,393.936737 411.521515,394.156494 403.955750,393.827667 
	C388.790009,393.168549 392.076935,394.788635 391.725708,381.407227 
	C391.552185,374.796478 391.698029,374.792694 384.978577,374.792511 
	C373.253815,374.792206 373.253845,374.792206 373.222839,386.748688 
	C373.205505,393.432617 373.203491,393.326080 366.800629,393.445831 
	C350.804199,393.745056 353.660767,390.418457 353.306732,407.749084 
	C353.244415,410.800049 354.534332,411.948364 357.456848,411.887787 
	C361.287628,411.808380 365.122498,411.945007 368.954315,411.892578 
	C371.874725,411.852631 373.243347,413.171722 373.213745,416.105438 
	C373.176788,419.770844 373.246735,423.437317 373.312256,428.006165 
z"/>
<path fill="#000000" opacity="1.000000" stroke="none" 
	d="
M679.901123,225.000000 
	C679.904297,214.500702 680.013855,204.499771 679.859863,194.502899 
	C679.796753,190.405121 680.909363,188.376038 685.511658,188.602051 
	C699.948730,189.311096 714.483521,187.329773 728.839417,190.523132 
	C750.665100,195.378113 762.624084,209.372818 764.486206,231.536957 
	C765.221802,240.291931 764.921143,248.876251 762.923645,257.308594 
	C758.462036,276.142609 743.174438,287.916260 721.229492,290.271637 
	C709.085693,291.575043 696.926392,290.873932 684.775818,291.155426 
	C680.557922,291.253143 679.869873,289.023895 679.883301,285.495819 
	C679.959595,265.497467 679.908936,245.498657 679.901123,225.000000 
M697.132202,223.500305 
	C697.128235,239.149734 697.318115,254.802994 697.010376,270.446442 
	C696.908752,275.614899 698.640686,277.121735 703.615601,276.821259 
	C709.581604,276.460968 715.559326,276.612061 721.513428,275.677917 
	C734.007996,273.717529 742.512085,266.311188 745.655273,254.193375 
	C747.949280,245.349548 747.974854,236.396759 746.196411,227.501541 
	C743.572876,214.379333 735.728516,206.280716 722.388123,203.872025 
	C715.301270,202.592438 708.131348,202.924377 700.980896,202.937637 
	C698.245972,202.942703 697.143005,204.373184 697.163086,207.018143 
	C697.202271,212.178604 697.148682,217.339767 697.132202,223.500305 
z"/>
<path fill="#000000" opacity="1.000000" stroke="none" 
	d="
M912.000122,292.415588 
	C883.143372,293.170349 865.198547,271.704926 863.654968,244.738388 
	C862.815735,230.077133 864.880676,216.073502 874.177185,204.100418 
	C895.911316,176.108917 942.466125,182.298065 955.728333,215.095169 
	C962.508423,231.862030 962.558838,249.099762 954.977112,265.606720 
	C946.773071,283.468353 932.367737,292.542297 912.000122,292.415588 
M881.726562,228.360947 
	C880.795105,237.997879 880.153259,247.620850 883.384338,257.013855 
	C887.894104,270.123810 898.116821,278.016693 911.146240,278.472198 
	C923.452698,278.902405 934.251221,271.834991 939.263672,259.090210 
	C944.743225,245.157959 944.380737,231.066727 938.101318,217.381866 
	C934.677917,209.921219 928.973267,204.562561 920.981445,202.371399 
	C901.736023,197.094772 886.390686,207.190308 881.726562,228.360947 
z"/>
<path fill="#000000" opacity="1.000000" stroke="none" 
	d="
M499.626099,335.529724 
	C489.898163,343.317902 491.097900,352.941498 502.222382,357.818481 
	C509.750031,361.118652 518.052246,361.551605 525.901794,363.706940 
	C533.661072,365.837402 541.271545,368.262115 547.138062,374.161835 
	C558.671326,385.760315 556.759949,405.217529 543.138977,415.396698 
	C527.912842,426.775452 501.986206,426.804199 486.798981,415.301361 
	C479.304749,409.625244 475.043945,401.911011 473.274902,392.697632 
	C472.720581,389.810760 473.548706,388.585022 476.454071,388.688324 
	C477.617889,388.729675 478.802887,388.804718 479.947784,388.645447 
	C486.045502,387.797150 489.507568,389.418182 492.067993,396.049988 
	C497.733490,410.724243 522.985474,414.532990 533.921509,403.070831 
	C539.546692,397.175018 538.425171,388.077423 531.410583,383.082703 
	C525.373413,378.783966 518.198242,377.816284 511.207703,376.383545 
	C505.181610,375.148407 499.060211,374.265869 493.406891,371.689270 
	C483.106110,366.994415 476.230408,359.531372 475.802460,347.750061 
	C475.365570,335.723236 481.632538,327.464111 492.165955,322.585327 
	C506.392303,315.996063 520.843689,315.868073 535.058716,322.811554 
	C543.820557,327.091370 548.952454,334.392761 551.660278,343.640045 
	C552.591187,346.819275 551.576538,348.027374 548.474426,348.007111 
	C545.643738,347.988647 542.812805,348.011139 539.982239,347.984589 
	C538.041504,347.966400 536.665588,347.315338 535.554688,345.433411 
	C527.782410,332.266571 514.277771,328.499817 499.626099,335.529724 
z"/>
<path fill="#000000" opacity="1.000000" stroke="none" 
	d="
M825.558594,422.855530 
	C809.486328,419.152191 799.038635,410.130249 795.139771,394.152069 
	C794.217834,390.373718 794.979858,388.272675 799.322021,388.659546 
	C800.313538,388.747894 801.335693,388.778717 802.317383,388.643921 
	C807.840942,387.885345 811.059143,389.280792 813.279236,395.379425 
	C819.813110,413.328217 845.815369,412.359985 854.920349,403.594482 
	C860.691833,398.038239 860.252930,388.888184 853.961548,383.798645 
	C849.122803,379.884338 843.276245,378.576569 837.401489,377.304108 
	C831.228455,375.967072 824.947876,374.966614 818.924133,373.130707 
	C802.056030,367.989746 793.645142,353.053406 798.896118,338.012207 
	C801.532959,330.458984 807.114380,325.566254 814.182861,322.378632 
	C826.571411,316.791840 839.351685,316.088318 852.109314,320.785187 
	C864.102661,325.200623 871.418091,333.865631 873.903320,347.074402 
	C869.001404,348.688965 864.234192,348.035248 859.529358,347.728058 
	C857.750610,347.611938 857.471985,345.749512 856.813538,344.445190 
	C850.336914,331.615417 829.453674,327.705780 818.650818,337.305054 
	C812.999756,342.326538 813.411865,351.017426 819.543518,355.503113 
	C824.991577,359.488739 831.550903,360.262024 837.869385,361.599701 
	C846.189697,363.361145 854.475342,365.102753 862.053894,369.219849 
	C879.630920,378.768646 881.284180,403.293945 865.020752,415.093750 
	C853.247437,423.635864 839.969604,425.217377 825.558594,422.855530 
z"/>
<path fill="#000000" opacity="1.000000" stroke="none" 
	d="
M707.839844,356.829468 
	C702.995239,342.370300 707.786316,329.875580 720.958984,323.268951 
	C735.545288,315.953247 750.450439,315.730194 765.203613,322.891693 
	C773.992981,327.158264 779.036011,334.570618 781.716675,343.812469 
	C782.550964,346.688843 781.680969,347.954590 778.789185,347.983124 
	C775.956543,348.011108 773.122131,347.949951 770.290894,348.021057 
	C767.835876,348.082733 766.260376,347.138275 765.318787,344.756989 
	C759.906067,331.067810 739.080933,329.387817 729.353149,335.682800 
	C720.657715,341.309692 720.947388,351.561401 729.922485,356.687195 
	C736.595337,360.498169 744.235107,360.886292 751.478821,362.660828 
	C758.117126,364.287018 764.780945,365.821503 770.750488,369.331451 
	C788.568298,379.807922 789.676208,404.541412 772.280884,415.821228 
	C755.714233,426.563660 737.959595,427.010498 720.576904,417.692017 
	C709.725769,411.875031 704.362183,401.940704 703.028198,389.187195 
	C707.979065,388.269867 712.601074,388.709991 717.190613,388.791809 
	C719.293701,388.829285 719.872437,390.552979 720.308350,392.174561 
	C725.187744,410.327667 746.157837,412.544525 758.424377,406.977295 
	C763.855530,404.512390 767.448120,400.479034 767.527710,394.352600 
	C767.604126,388.466858 764.272156,384.377625 759.224121,381.650635 
	C751.891785,377.689667 743.666687,376.951477 735.708801,375.316315 
	C724.041809,372.918976 713.622803,368.754150 707.839844,356.829468 
z"/>
<path fill="#000000" opacity="1.000000" stroke="none" 
	d="
M891.078247,394.000000 
	C891.078430,371.673096 891.038574,349.846069 891.098083,328.019348 
	C891.120850,319.681366 891.224487,319.672760 899.312500,319.670074 
	C918.473572,319.663696 937.635803,319.781982 956.794739,319.578918 
	C961.203430,319.532227 962.994080,320.948181 962.404053,325.310150 
	C962.271362,326.291534 962.284912,327.320312 962.410706,328.304291 
	C962.984985,332.794708 961.242065,334.452148 956.565857,334.366516 
	C942.408020,334.107239 928.238953,334.443054 914.082031,334.158997 
	C909.380249,334.064636 907.937012,335.653992 908.217407,340.174500 
	C908.546875,345.485870 908.529114,350.846710 908.223328,356.160828 
	C907.975891,360.459961 909.356567,362.058502 913.830017,361.979187 
	C926.821838,361.748810 939.824219,362.092804 952.815186,361.840515 
	C957.686768,361.745911 959.696472,363.044098 959.458069,368.276489 
	C959.089478,376.366882 959.397644,376.383789 951.236633,376.386475 
	C938.740295,376.390564 926.241943,376.517029 913.748779,376.318207 
	C909.751160,376.254608 908.036499,377.308960 908.216003,381.609863 
	C908.514526,388.762085 908.444702,395.939484 908.246643,403.098480 
	C908.148254,406.655914 909.558472,407.707001 912.946289,407.677826 
	C927.440979,407.552856 941.939514,407.755188 956.431824,407.529114 
	C960.859314,407.460022 962.639587,408.602722 962.492554,413.364960 
	C962.220337,422.183258 962.486450,422.196289 953.906372,422.196045 
	C935.078552,422.195465 916.249512,422.070862 897.423767,422.268921 
	C892.697083,422.318634 890.815613,420.839417 891.012634,415.990723 
	C891.303284,408.838074 891.081421,401.664612 891.078247,394.000000 
z"/>
<path fill="#000000" opacity="1.000000" stroke="none" 
	d="
M567.976929,324.268494 
	C567.965454,320.543671 569.723877,319.586975 572.774658,319.637207 
	C587.015747,319.871704 585.131836,317.939056 585.204468,331.650757 
	C585.299744,349.642212 585.070740,367.636932 585.323914,385.625397 
	C585.441711,393.990814 586.997498,402.372223 595.519592,406.415283 
	C605.004944,410.915344 614.992493,411.130676 624.296753,405.766846 
	C631.109253,401.839539 633.540833,394.899048 633.668152,387.444122 
	C633.997925,368.125580 633.977417,348.801086 634.094482,329.478943 
	C634.113464,326.342346 634.059753,323.197998 634.970337,320.319641 
	C635.549500,320.069336 635.846924,319.830261 636.146973,319.826996 
	C654.927429,319.621582 651.007385,317.550690 651.249573,333.356415 
	C651.492065,349.179352 651.284302,365.009003 651.308228,380.835663 
	C651.316589,386.355988 650.594971,391.789246 649.374023,397.147003 
	C646.219727,410.988586 638.027527,419.670776 623.793335,422.526672 
	C614.663330,424.358429 605.542664,424.445679 596.496765,422.850616 
	C579.135681,419.789368 569.958801,408.832550 568.666382,390.666473 
	C567.103699,368.700348 568.256165,346.712097 567.976929,324.268494 
z"/>
<path fill="#000000" opacity="1.000000" stroke="none" 
	d="
M841.295898,285.649963 
	C839.575439,280.892700 837.944641,276.525085 836.458801,272.108734 
	C835.616272,269.604523 834.262207,268.327667 831.399902,268.356812 
	C819.410645,268.478912 807.419189,268.470490 795.429504,268.376587 
	C792.603516,268.354462 791.191589,269.608917 790.351868,272.137573 
	C788.674072,277.190094 786.802246,282.178131 785.123047,287.230225 
	C784.266174,289.808472 782.625854,291.080872 779.940063,290.927429 
	C775.877747,290.695374 771.684509,291.795074 767.858826,290.043427 
	C767.065735,287.810486 768.233276,286.215149 768.848999,284.553497 
	C779.719543,255.219162 790.636841,225.902130 801.504883,196.566879 
	C804.445190,188.630600 804.386841,188.536804 812.645508,188.607544 
	C825.377319,188.716568 822.333069,187.095474 826.574341,198.200897 
	C837.497375,226.801758 848.251648,255.467117 859.015198,284.128540 
	C859.693665,285.934998 860.833923,287.719696 860.218140,290.358063 
	C855.163940,291.475342 849.903870,291.183899 844.688171,290.611084 
	C842.271179,290.345642 842.120667,287.852295 841.295898,285.649963 
M819.402466,224.981659 
	C817.465454,219.754822 815.528503,214.527969 813.105713,207.990280 
	C807.539734,223.874252 802.438843,238.431046 797.159790,253.496201 
	C808.429688,253.496201 818.587952,253.496201 829.522156,253.496201 
	C826.080933,243.795853 822.873962,234.755829 819.402466,224.981659 
z"/>
<path fill="#000000" opacity="1.000000" stroke="none" 
	d="
M670.859009,406.994202 
	C670.867798,380.173798 670.863892,353.852448 670.894226,327.531097 
	C670.903259,319.676239 670.947693,319.624390 678.472046,319.678101 
	C688.614014,319.750519 688.163513,318.306580 688.174683,329.380341 
	C688.203430,357.867249 688.197083,386.354248 688.195557,414.841187 
	C688.195129,422.150574 688.179565,422.179474 681.108459,422.188995 
	C669.689697,422.204376 670.908447,422.920227 670.858887,411.991302 
	C670.852112,410.491974 670.858887,408.992615 670.859009,406.994202 
z"/>
</svg>