<svg width="626" height="211" viewBox="0 0 626 211" fill="none" xmlns="http://www.w3.org/2000/svg">
<path d="M42.1492 134.063C42.1492 130.377 39.2525 127.388 35.6792 127.388H6.56383C2.9905 127.388 0.09375 130.377 0.09375 134.063V164.103C0.09375 167.79 2.9905 170.778 6.56383 170.778H32.4441C36.0174 170.778 38.9142 173.767 38.9142 177.454V204.156C38.9142 207.843 41.811 210.831 45.3843 210.831H74.4996C78.0729 210.831 80.9697 207.843 80.9697 204.156V174.116C80.9697 170.429 78.0729 167.441 74.4996 167.441H48.6193C45.046 167.441 42.1492 164.452 42.1492 160.765V134.063Z" fill="url(#paint0_linear_1384_3183)"/>
<path d="M80.9697 7.22931C80.9697 3.54255 78.0729 0.553833 74.4996 0.553833H45.3843C41.811 0.553833 38.9142 3.54255 38.9142 7.22931V33.9312C38.9142 37.618 36.0174 40.6067 32.4441 40.6067H6.56383C2.9905 40.6067 0.09375 43.5954 0.09375 47.2822V77.3218C0.09375 81.0086 2.9905 83.9973 6.56383 83.9973H35.6792C39.2525 83.9973 42.1492 81.0086 42.1492 77.3218V50.6199C42.1492 46.9331 45.046 43.9444 48.6193 43.9444H74.4996C78.0729 43.9444 80.9697 40.9557 80.9697 37.2689V7.22931Z" fill="url(#paint1_linear_1384_3183)"/>
<path d="M129.495 7.22931C129.495 3.54255 132.392 0.553833 135.965 0.553833H165.081C168.654 0.553833 171.551 3.54255 171.551 7.22931V33.9312C171.551 37.618 174.447 40.6067 178.021 40.6067H203.901C207.474 40.6067 210.371 43.5954 210.371 47.2822V77.3218C210.371 81.0086 207.474 83.9973 203.901 83.9973H174.786C171.212 83.9973 168.316 81.0086 168.316 77.3218V50.6199C168.316 46.9331 165.419 43.9444 161.846 43.9444H135.965C132.392 43.9444 129.495 40.9557 129.495 37.2689V7.22931Z" fill="url(#paint2_linear_1384_3183)"/>
<path d="M168.316 134.063C168.316 130.377 171.212 127.388 174.786 127.388H203.901C207.474 127.388 210.371 130.377 210.371 134.063V164.103C210.371 167.79 207.474 170.778 203.901 170.778H178.021C174.447 170.778 171.551 173.767 171.551 177.454V204.156C171.551 207.843 168.654 210.831 165.081 210.831H135.965C132.392 210.831 129.495 207.843 129.495 204.156V174.116C129.495 170.429 132.392 167.441 135.965 167.441H161.846C165.419 167.441 168.316 164.452 168.316 160.765V134.063Z" fill="url(#paint3_linear_1384_3183)"/>
<path d="M73.7228 109.437C72.2383 107.176 72.2383 104.21 73.7228 101.949L99.8758 60.3283C102.442 56.4196 108.023 56.4196 110.589 60.3283L136.742 101.949C138.227 104.21 138.227 107.176 136.742 109.436L110.589 151.057C108.023 154.966 102.442 154.966 99.8758 151.057L73.7228 109.437Z" fill="url(#paint4_linear_1384_3183)"/>
<path d="M261.189 122.588C261.189 112.977 263.077 104.452 266.853 97.0146C270.744 89.577 276.007 83.8558 282.644 79.851C289.281 75.8461 296.661 73.8437 304.785 73.8437C310.964 73.8437 316.857 75.2168 322.464 77.963C328.071 80.5947 332.533 84.1419 335.851 88.6044V41.0703C335.851 40.4175 336.381 39.8882 337.033 39.8882H359.042C359.695 39.8882 360.224 40.4175 360.224 41.0703V169.293C360.224 169.946 359.695 170.475 359.042 170.475H337.033C336.381 170.475 335.851 169.946 335.851 169.293V156.401C332.876 161.092 328.7 164.868 323.322 167.729C317.944 170.59 311.708 172.02 304.614 172.02C296.604 172.02 289.281 169.96 282.644 165.841C276.007 161.722 270.744 155.943 266.853 148.506C263.077 140.954 261.189 132.315 261.189 122.588ZM336.023 122.932C336.023 117.096 334.879 112.119 332.59 107.999C330.302 103.766 327.212 100.562 323.322 98.3877C319.431 96.0992 315.255 94.955 310.792 94.955C306.33 94.955 302.211 96.042 298.435 98.2161C294.659 100.39 291.569 103.594 289.166 107.828C286.878 111.947 285.733 116.867 285.733 122.588C285.733 128.31 286.878 133.344 289.166 137.693C291.569 141.926 294.659 145.187 298.435 147.476C302.325 149.764 306.444 150.909 310.792 150.909C315.255 150.909 319.431 149.822 323.322 147.647C327.212 145.359 330.302 142.155 332.59 138.036C334.879 133.802 336.023 128.767 336.023 122.932Z" fill="#222222"/>
<path d="M406.539 75.3884C407.192 75.3884 407.722 75.9176 407.722 76.5705V169.293C407.722 169.946 407.192 170.475 406.539 170.475H384.874C384.222 170.475 383.692 169.946 383.692 169.293V76.5705C383.692 75.9176 384.222 75.3884 384.874 75.3884H406.539Z" fill="#222222"/>
<path d="M383.017 41.2586C383.017 40.6069 383.545 40.0786 384.197 40.0786H406.867C407.519 40.0786 408.047 40.6069 408.047 41.2586V63.9289C408.047 64.5806 407.519 65.1089 406.867 65.1089H384.197C383.545 65.1089 383.017 64.5806 383.017 63.9289V41.2586Z" fill="#222222"/>
<path d="M470.045 148.42L493.807 76.2865C493.966 75.8018 494.419 75.4743 494.929 75.4743H517.95C518.773 75.4743 519.344 76.2946 519.059 77.0666L484.748 169.789C484.576 170.253 484.134 170.561 483.64 170.561H456.109C455.613 170.561 455.171 170.252 454.999 169.787L420.856 77.0648C420.572 76.2931 421.143 75.4743 421.965 75.4743H445.161C445.671 75.4743 446.124 75.8018 446.283 76.2865L470.045 148.42Z" fill="#222222"/>
<path d="M526.965 122.674C526.965 113.063 528.853 104.538 532.629 97.1005C536.52 89.6629 541.726 83.9417 548.248 79.9369C554.885 75.932 562.265 73.9296 570.389 73.9296C577.484 73.9296 583.663 75.3599 588.926 78.2205C594.304 81.0811 598.595 84.6855 601.799 89.0336V76.6564C601.799 76.0035 602.328 75.4743 602.981 75.4743H624.818C625.47 75.4743 626 76.0035 626 76.6564V169.379C626 170.032 625.47 170.561 624.818 170.561H602.981C602.328 170.561 601.799 170.032 601.799 169.379V156.658C598.709 161.121 594.419 164.84 588.926 167.815C583.548 170.675 577.312 172.106 570.218 172.106C562.208 172.106 554.885 170.046 548.248 165.927C541.726 161.808 536.52 156.029 532.629 148.591C528.853 141.039 526.965 132.4 526.965 122.674ZM601.799 123.018C601.799 117.182 600.655 112.205 598.366 108.085C596.078 103.852 592.988 100.648 589.098 98.4736C585.207 96.1851 581.031 95.0409 576.568 95.0409C572.106 95.0409 567.986 96.1279 564.21 98.302C560.434 100.476 557.345 103.68 554.942 107.914C552.654 112.033 551.509 116.953 551.509 122.674C551.509 128.396 552.654 133.43 554.942 137.778C557.345 142.012 560.434 145.273 564.21 147.562C568.101 149.85 572.22 150.994 576.568 150.994C581.031 150.994 585.207 149.907 589.098 147.733C592.988 145.445 596.078 142.241 598.366 138.122C600.655 133.888 601.799 128.853 601.799 123.018Z" fill="#222222"/>
<defs>
<linearGradient id="paint0_linear_1384_3183" x1="105.232" y1="0.553833" x2="105.232" y2="210.831" gradientUnits="userSpaceOnUse">
<stop stop-color="#1766FF"/>
<stop offset="1" stop-color="#16ABFF"/>
</linearGradient>
<linearGradient id="paint1_linear_1384_3183" x1="105.232" y1="0.553833" x2="105.232" y2="210.831" gradientUnits="userSpaceOnUse">
<stop stop-color="#1766FF"/>
<stop offset="1" stop-color="#16ABFF"/>
</linearGradient>
<linearGradient id="paint2_linear_1384_3183" x1="105.232" y1="0.553833" x2="105.232" y2="210.831" gradientUnits="userSpaceOnUse">
<stop stop-color="#1766FF"/>
<stop offset="1" stop-color="#16ABFF"/>
</linearGradient>
<linearGradient id="paint3_linear_1384_3183" x1="105.232" y1="0.553833" x2="105.232" y2="210.831" gradientUnits="userSpaceOnUse">
<stop stop-color="#1766FF"/>
<stop offset="1" stop-color="#16ABFF"/>
</linearGradient>
<linearGradient id="paint4_linear_1384_3183" x1="105.232" y1="0.553833" x2="105.232" y2="210.831" gradientUnits="userSpaceOnUse">
<stop stop-color="#1766FF"/>
<stop offset="1" stop-color="#16ABFF"/>
</linearGradient>
</defs>
</svg>
