<svg xmlns="http://www.w3.org/2000/svg" xmlns:xlink="http://www.w3.org/1999/xlink" width="500" zoomAndPan="magnify" viewBox="0 0 375 374.999991" height="500" preserveAspectRatio="xMidYMid meet" version="1.0"><defs><g/></defs><rect x="-37.5" width="450" fill="#ffffff" y="-37.499999" height="449.999989" fill-opacity="1"/><rect x="-37.5" width="450" fill="#ffffff" y="-37.499999" height="449.999989" fill-opacity="1"/><rect x="-37.5" width="450" fill="#060c0f" y="-37.499999" height="449.999989" fill-opacity="1"/><path stroke-linecap="butt" transform="matrix(0.903686, 0, 0, 0.903686, -5.355487, 176.40163)" fill="none" stroke-linejoin="miter" d="M 84.290203 15.047668 C 94.755153 15.047668 101.269272 15.090894 103.823913 15.177345 C 120.993174 15.799796 133.96954 20.44224 142.761655 29.100355 C 151.571059 37.762792 155.975762 49.312708 155.975762 63.750104 C 155.975762 73.441313 153.987378 81.982719 150.01061 89.374319 C 146.059778 96.76592 140.159465 102.558169 132.318317 106.746742 C 124.494459 110.913703 114.954539 113.001506 103.694235 113.001506 L 68.98397 113.001506 C 67.648295 113.001506 66.671393 112.698926 66.048943 112.098088 C 65.448105 111.475638 65.145525 110.45551 65.145525 109.033384 L 65.145525 18.337147 C 65.145525 17.109536 65.404879 16.262311 65.919266 15.791151 C 66.455265 15.294055 67.393263 15.047668 68.724616 15.047668 Z M 96.44528 35.774408 C 95.991409 35.774408 95.658571 35.904085 95.442443 36.159117 C 95.230636 36.418471 95.122572 36.9026 95.122572 37.611502 L 95.122572 90.277737 C 95.122572 91.073091 95.252249 91.60909 95.507281 91.890057 C 95.766636 92.145089 96.250764 92.274766 96.959666 92.274766 L 97.893342 92.274766 C 106.594682 92.274766 113.212542 90.009738 117.746922 85.475358 C 122.281301 80.940978 124.550652 73.570991 124.550652 63.365395 C 124.550652 54.551667 122.830268 47.998646 119.393822 43.702008 C 115.974667 39.383757 110.969127 36.911245 104.372879 36.288794 Z M 165.736133 113.001506 C 165.027231 113.001506 164.448006 112.763765 163.998458 112.292604 C 163.566201 111.795508 163.354395 111.108219 163.354395 110.226414 C 163.354395 109.603963 163.492717 108.895061 163.773684 108.099708 L 195.71318 18.077792 C 196.141115 16.940955 196.625243 16.154247 197.165565 15.726312 C 197.701564 15.272442 198.540143 15.047668 199.67698 15.047668 L 225.690227 15.047668 C 226.740612 15.047668 227.687256 15.380506 228.525835 16.046183 C 229.364415 16.694569 229.99551 17.541793 230.427768 18.592178 L 262.112231 108.518997 C 262.280812 109.227899 262.367263 109.755253 262.367263 110.101059 C 262.367263 110.89209 262.19436 111.583702 261.852877 112.162927 C 261.507071 112.720539 260.98404 113.001506 260.270815 113.001506 L 234.391568 113.001506 C 232.887312 113.001506 231.919055 112.249378 231.491121 110.745123 L 226.334291 95.564245 C 226.074936 94.959084 225.828549 94.552762 225.590808 94.336634 C 225.379002 94.103215 224.968357 93.982183 224.36752 93.982183 L 196.357243 93.982183 C 195.306858 93.982183 194.649827 94.466311 194.390472 95.434567 L 188.97861 111.034735 C 188.438289 112.344475 187.387903 113.001506 185.818809 113.001506 Z M 217.758305 71.552349 C 218.726561 71.552349 219.210689 71.111446 219.210689 70.229641 C 219.210689 70.056738 219.124238 69.615836 218.951335 68.906934 L 211.023735 46.347423 C 210.850832 45.893553 210.582833 45.668779 210.215414 45.668779 C 209.873931 45.668779 209.614576 45.893553 209.445996 46.347423 L 201.384396 68.777257 C 201.215816 69.123063 201.129364 69.563965 201.129364 70.099964 C 201.129364 71.068221 201.656718 71.552349 202.707104 71.552349 Z M 317.181818 114.319891 C 307.577059 114.319891 299.182622 112.279636 292.00715 108.199127 C 284.831678 104.092682 279.307429 98.278821 275.443048 90.761865 C 271.574345 83.240588 269.637832 74.418215 269.637832 64.299071 C 269.637832 54.175603 271.595958 45.314328 275.503564 37.706598 C 279.437106 30.077256 284.982968 24.181266 292.136827 20.014305 C 299.312299 15.821409 307.663511 13.729283 317.181818 13.729283 C 326.59206 13.729283 334.852498 15.821409 341.967454 20.014305 C 349.0997 24.181266 354.623949 30.077256 358.531556 37.706598 C 362.465098 45.314328 364.431868 54.175603 364.431868 64.299071 C 364.431868 74.331764 362.48671 83.132523 358.596394 90.697027 C 354.732014 98.26153 349.229378 104.092682 342.097131 108.199127 C 334.982175 112.279636 326.678512 114.319891 317.181818 114.319891 Z M 317.181818 93.727151 C 321.050521 93.727151 324.119548 92.780507 326.397544 90.88722 C 328.697153 88.998255 330.374312 85.946519 331.42902 81.736332 C 332.479405 77.504533 333.006759 71.820348 333.006759 64.68378 C 333.006759 53.769281 331.770503 45.936778 329.297991 41.18627 C 326.851415 36.440084 322.809808 34.066992 317.181818 34.066992 C 311.44144 34.066992 307.317705 36.440084 304.801967 41.18627 C 302.312165 45.936778 301.062941 53.769281 301.062941 64.68378 C 301.062941 71.820348 301.590295 77.504533 302.645003 81.736332 C 303.695388 85.946519 305.385515 88.998255 307.706737 90.88722 C 310.045249 92.780507 313.20505 93.727151 317.181818 93.727151 Z M 317.181818 93.727151 " stroke="#ffdf2b" stroke-width="4.9509" stroke-opacity="1" stroke-miterlimit="4"/><g fill="#ffdf2b" fill-opacity="1"><g transform="translate(46.572781, 178.560991)"><g><path d="M 6 -83.046875 C 6 -83.890625 6.191406 -84.539062 6.578125 -85 C 6.960938 -85.46875 7.503906 -85.703125 8.203125 -85.703125 L 69.765625 -85.703125 C 71.148438 -85.703125 71.84375 -84.894531 71.84375 -83.28125 L 71.71875 -69.875 C 71.71875 -67.800781 70.757812 -66.765625 68.84375 -66.765625 L 34.875 -66.765625 C 33.101562 -66.765625 32.21875 -66.03125 32.21875 -64.5625 L 32.21875 -53.703125 C 32.21875 -52.160156 32.910156 -51.390625 34.296875 -51.390625 L 55.4375 -51.390625 C 56.976562 -51.390625 57.75 -50.625 57.75 -49.09375 L 57.75 -35 C 57.75 -33.6875 57.054688 -33.03125 55.671875 -33.03125 L 34.078125 -33.03125 C 33.535156 -33.03125 33.085938 -32.875 32.734375 -32.5625 C 32.390625 -32.257812 32.21875 -31.835938 32.21875 -31.296875 L 32.21875 -3.34375 C 32.21875 -2.113281 31.910156 -1.25 31.296875 -0.75 C 30.679688 -0.25 29.71875 0 28.40625 0 L 9.125 0 C 7.96875 0 7.15625 -0.226562 6.6875 -0.6875 C 6.226562 -1.15625 6 -1.890625 6 -2.890625 Z M 6 -83.046875 "/></g></g></g><g fill="#ffdf2b" fill-opacity="1"><g transform="translate(121.647792, 178.560991)"><g><path d="M 3.234375 -83.046875 C 3.234375 -83.816406 3.484375 -84.453125 3.984375 -84.953125 C 4.484375 -85.453125 5.195312 -85.703125 6.125 -85.703125 L 75.1875 -85.703125 C 76.113281 -85.703125 76.828125 -85.453125 77.328125 -84.953125 C 77.828125 -84.453125 78.078125 -83.816406 78.078125 -83.046875 L 78.078125 -69.296875 C 78.078125 -67.835938 77.226562 -67.109375 75.53125 -67.109375 L 55.09375 -67.109375 C 54.164062 -67.109375 53.703125 -66.722656 53.703125 -65.953125 L 53.703125 -2.546875 C 53.703125 -1.691406 53.507812 -1.050781 53.125 -0.625 C 52.738281 -0.207031 52.203125 0 51.515625 0 L 29.5625 0 C 28.175781 0 27.484375 -0.769531 27.484375 -2.3125 L 27.484375 -65.484375 C 27.484375 -66.566406 27.0625 -67.109375 26.21875 -67.109375 L 5.890625 -67.109375 C 4.117188 -67.109375 3.234375 -67.835938 3.234375 -69.296875 Z M 3.234375 -83.046875 "/></g></g></g><g fill="#ffdf2b" fill-opacity="1"><g transform="translate(202.95981, 178.560991)"><g><path d="M 121.5 -85.703125 C 122.65625 -85.703125 123.5625 -85.410156 124.21875 -84.828125 C 124.875 -84.253906 125.203125 -83.46875 125.203125 -82.46875 C 125.203125 -82.15625 125.125 -81.691406 124.96875 -81.078125 L 101.53125 -2.890625 C 101.144531 -1.890625 100.640625 -1.15625 100.015625 -0.6875 C 99.398438 -0.226562 98.515625 0 97.359375 0 L 81.421875 0 C 79.191406 0 77.804688 -0.960938 77.265625 -2.890625 L 65.25 -43.546875 C 65.019531 -44.546875 64.753906 -45.046875 64.453125 -45.046875 C 64.222656 -45.046875 63.875 -44.46875 63.40625 -43.3125 L 51.515625 -2.890625 C 51.203125 -1.890625 50.71875 -1.15625 50.0625 -0.6875 C 49.414062 -0.226562 48.515625 0 47.359375 0 L 30.84375 0 C 29.6875 0 28.800781 -0.226562 28.1875 -0.6875 C 27.570312 -1.15625 27.070312 -1.890625 26.6875 -2.890625 L 3.125 -81.078125 C 2.96875 -81.691406 2.890625 -82.15625 2.890625 -82.46875 C 2.890625 -83.46875 3.210938 -84.253906 3.859375 -84.828125 C 4.515625 -85.410156 5.421875 -85.703125 6.578125 -85.703125 L 25.640625 -85.703125 C 26.796875 -85.703125 27.640625 -85.507812 28.171875 -85.125 C 28.710938 -84.738281 29.101562 -84.125 29.34375 -83.28125 L 41.578125 -40.421875 C 41.804688 -39.492188 42.078125 -39.03125 42.390625 -39.03125 C 42.617188 -39.03125 42.8125 -39.34375 42.96875 -39.96875 L 55.09375 -83.28125 C 55.476562 -84.894531 56.710938 -85.703125 58.796875 -85.703125 L 74.953125 -85.703125 C 76.109375 -85.703125 76.957031 -85.507812 77.5 -85.125 C 78.039062 -84.738281 78.425781 -84.125 78.65625 -83.28125 L 91.359375 -39.390625 C 91.515625 -38.921875 91.742188 -38.648438 92.046875 -38.578125 C 92.359375 -38.503906 92.550781 -38.695312 92.625 -39.15625 L 104.40625 -83.28125 C 104.789062 -84.894531 106.023438 -85.703125 108.109375 -85.703125 Z M 121.5 -85.703125 "/></g></g></g></svg>