<svg version="1.1" id="Layer_1" xmlns="http://www.w3.org/2000/svg" xmlns:xlink="http://www.w3.org/1999/xlink" x="0px" y="0px"
	 width="100%" viewBox="0 0 4299 1076" enable-background="new 0 0 4299 1076" xml:space="preserve">
<path fill="#010101" opacity="1.000000" stroke="none" 
	d="
M2802.000000,1078.000000 
	C1868.000000,1078.000000 935.000000,1078.000000 2.000000,1078.000000 
	C2.000000,719.333313 2.000000,360.666656 2.000000,2.000000 
	C1435.333374,2.000000 2868.666748,2.000000 4302.000000,2.000000 
	C4302.000000,360.666656 4302.000000,719.333313 4302.000000,1078.000000 
	C3802.333252,1078.000000 3302.666748,1078.000000 2802.000000,1078.000000 
M359.854889,972.196411 
	C372.570923,972.088074 385.286926,971.979736 399.853882,972.192200 
	C457.730347,972.238647 515.606812,972.288818 573.483276,972.312805 
	C575.131287,972.313477 576.779358,972.035645 580.235168,972.130920 
	C604.492981,972.139465 628.750732,972.148071 654.610901,972.680664 
	C666.768555,972.507690 678.926208,972.334656 693.073120,972.198486 
	C697.072571,972.239807 701.072021,972.317444 705.071472,972.317505 
	C1885.973877,972.322754 3066.876465,972.322571 4247.778809,972.322571 
	C4251.030762,972.322571 4254.282715,972.322571 4257.760742,972.322571 
	C4257.760742,692.392029 4257.760742,413.313080 4257.760742,133.677399 
	C4253.252930,133.677399 4249.308105,133.677383 4245.362793,133.677383 
	C3066.459961,133.677399 1887.557373,133.677124 708.654663,133.686737 
	C703.323059,133.686768 697.991516,133.827896 691.286621,133.417831 
	C688.191895,133.636017 685.097107,133.854218 680.150818,133.752686 
	C666.766052,133.874878 653.381226,133.997055 638.146301,133.792816 
	C573.628113,133.764954 509.109955,133.733719 444.591766,133.728363 
	C442.944672,133.728226 441.297607,134.012146 437.828888,133.954071 
	C413.559448,133.921143 389.290009,133.888214 363.397278,133.327209 
	C351.251343,133.498840 339.105408,133.670471 324.964722,133.808563 
	C232.809509,133.808563 140.654297,133.808563 47.670494,133.808563 
	C47.670494,137.429092 47.670490,140.340149 47.670490,143.251221 
	C47.670544,267.477356 47.668003,391.703491 47.683472,515.929626 
	C47.683929,519.590088 47.874134,523.250549 47.449127,528.545532 
	C47.637081,545.481873 47.825039,562.418213 47.808109,581.300964 
	C47.771065,582.633606 47.701691,583.966248 47.701561,585.298889 
	C47.689335,712.620667 47.680305,839.942383 47.699425,967.264160 
	C47.699657,968.811279 48.066135,970.358337 48.314365,972.322571 
	C51.143745,972.322571 53.435673,972.322571 55.727600,972.322571 
	C142.386429,972.322510 229.045242,972.325317 315.704071,972.309631 
	C318.700745,972.309082 321.697388,972.121948 326.374573,972.559265 
	C336.917694,972.333252 347.460846,972.107239 359.854889,972.196411 
z"/>
<path fill="#FFFFFF" opacity="1.000000" stroke="none" 
	d="
M692.659912,133.903137 
	C697.991516,133.827896 703.323059,133.686768 708.654663,133.686737 
	C1887.557373,133.677124 3066.459961,133.677399 4245.362793,133.677383 
	C4249.308105,133.677383 4253.252930,133.677399 4257.760742,133.677399 
	C4257.760742,413.313080 4257.760742,692.392029 4257.760742,972.322571 
	C4254.282715,972.322571 4251.030762,972.322571 4247.778809,972.322571 
	C3066.876465,972.322571 1885.973877,972.322754 705.071472,972.317505 
	C701.072021,972.317444 697.072571,972.239807 692.084961,971.574585 
	C691.341675,970.629578 691.586609,970.308411 692.656616,970.096558 
	C700.238708,968.197327 707.041504,966.329590 713.744202,964.153625 
	C733.145752,957.855469 749.524170,946.170288 765.634766,934.211426 
	C770.903625,930.300354 775.760620,925.371948 779.536926,920.014282 
	C786.250488,910.489685 791.995789,900.282532 798.703491,889.954712 
	C799.449707,889.273865 799.659302,889.011230 799.824585,888.723145 
	C834.115051,828.970154 868.403259,769.215881 902.685364,709.458130 
	C903.829712,707.463440 904.911499,705.432922 906.963379,701.713318 
	C894.117188,710.413330 883.427185,718.287659 872.140076,725.184998 
	C828.336487,751.952820 779.943909,766.155273 730.088074,776.118835 
	C715.438293,779.046631 700.696533,781.514465 685.132935,784.047729 
	C648.715942,788.046753 613.082214,791.280396 577.252441,790.456909 
	C546.809387,789.757263 516.383728,788.301025 485.232971,786.915649 
	C473.049530,784.684387 461.303650,784.378784 449.515747,780.504944 
	C442.622986,778.131775 436.268097,776.241638 430.013367,774.063721 
	C409.202179,766.817383 390.067627,756.366211 372.067230,743.712036 
	C369.481079,741.894043 366.299530,740.923035 363.393524,739.559998 
	C363.167908,740.025513 362.942291,740.491028 362.716675,740.956482 
	C367.537506,748.061096 372.358337,755.165649 377.412537,762.944031 
	C386.576050,776.318176 395.258514,789.201660 404.485260,801.682861 
	C427.425476,832.714478 452.540039,861.820801 480.797791,888.223145 
	C500.554749,906.682861 521.638428,923.244690 545.312988,936.307678 
	C560.878113,944.896118 576.291504,953.993408 594.634583,958.187256 
	C599.956238,960.091858 604.543640,962.139404 609.345703,963.030701 
	C622.853638,965.537903 636.449890,967.569336 650.555542,969.945374 
	C651.472595,970.042114 651.845398,969.981934 652.593994,970.417358 
	C652.982727,971.327637 652.995667,971.742188 653.008545,972.156677 
	C628.750732,972.148071 604.492981,972.139465 578.822754,971.489014 
	C531.427795,952.468994 491.933594,924.505737 457.530701,889.186646 
	C443.668976,874.955688 430.364624,860.181885 416.545624,845.010803 
	C404.927856,830.091980 393.571045,815.817566 382.076874,800.877441 
	C372.851196,786.664429 363.763367,773.116882 354.674347,759.570129 
	C351.173523,754.352295 347.669952,749.136414 344.029907,743.228516 
	C333.519135,724.244934 323.146027,705.952454 312.606018,686.942871 
	C304.374512,669.445068 296.309937,652.664307 288.226562,635.107361 
	C274.602295,596.763184 270.954407,558.047241 276.164459,518.310181 
	C275.509064,518.251709 274.853699,518.193176 274.198303,518.134644 
	C270.055298,526.721741 265.912323,535.308777 261.235687,544.326294 
	C239.540756,587.397705 221.811142,631.341064 209.222961,677.341858 
	C196.826447,722.642334 191.275314,768.451843 197.993484,815.197571 
	C201.414169,838.998901 206.740799,862.395813 217.943756,884.785400 
	C220.549255,890.185791 222.460388,895.214661 225.381943,899.565002 
	C231.942017,909.333252 239.003815,918.764526 246.153687,928.926758 
	C255.659912,937.399414 264.128052,946.296875 276.149475,951.437012 
	C288.501434,958.510132 300.347137,965.243469 314.645386,968.043335 
	C318.432129,969.583923 321.563080,970.802856 324.694031,972.021729 
	C321.697388,972.121948 318.700745,972.309082 315.704071,972.309631 
	C229.045242,972.325317 142.386429,972.322510 55.727600,972.322571 
	C53.435673,972.322571 51.143745,972.322571 48.314365,972.322571 
	C48.066135,970.358337 47.699657,968.811279 47.699425,967.264160 
	C47.680305,839.942383 47.689335,712.620667 47.701561,585.298889 
	C47.701691,583.966248 47.771065,582.633606 48.532158,580.859253 
	C52.717194,599.005737 58.613758,616.611572 70.136658,632.680725 
	C106.706795,696.616028 143.195435,759.851379 179.684067,823.086792 
	C181.141388,821.220947 181.108810,820.033081 180.919632,818.870728 
	C177.214828,796.107910 176.609146,773.153748 178.467178,750.274475 
	C181.384216,714.354797 189.447723,679.386108 201.005478,645.291443 
	C207.938934,624.838135 215.727219,604.674561 223.508209,583.827759 
	C242.263931,541.131348 263.195343,500.314880 287.894287,461.509460 
	C298.954376,444.132507 310.603912,427.130737 322.549713,409.609283 
	C330.041412,401.354156 336.969391,393.448456 344.498199,385.299988 
	C359.117279,370.273712 376.193146,359.470947 393.629578,348.124512 
	C398.998962,345.568848 403.689636,343.125641 408.433502,340.790527 
	C413.092682,338.497009 417.805908,336.313385 423.055725,333.814880 
	C414.592285,333.814880 407.330872,333.349640 400.148529,333.905426 
	C381.418396,335.354828 362.722900,337.251556 343.215057,338.788910 
	C322.452026,341.878815 302.380707,344.610962 282.547028,348.541901 
	C249.592117,355.073395 217.338028,364.219330 186.691177,378.239471 
	C167.970993,386.803497 149.872116,396.548553 133.211319,409.927979 
	C119.857002,419.165680 107.994423,429.132019 97.601280,441.568054 
	C90.056778,450.552612 83.051926,459.283508 75.486328,468.384399 
	C70.333839,476.408783 65.742088,484.063171 60.678917,492.197571 
	C57.272114,500.381226 54.263428,508.058014 51.433571,515.800171 
	C50.103577,519.438904 49.117695,523.203491 47.975868,526.911011 
	C47.874134,523.250549 47.683929,519.590088 47.683472,515.929626 
	C47.668003,391.703491 47.670544,267.477356 47.670490,143.251221 
	C47.670490,140.340149 47.670494,137.429092 47.670494,133.808563 
	C140.654297,133.808563 232.809509,133.808563 325.956238,134.420074 
	C326.714600,135.352554 326.481384,135.673508 325.402313,135.894455 
	C306.759369,138.446396 290.626526,145.308563 274.973816,155.319504 
	C268.589203,159.444733 262.681885,163.104919 257.237366,167.357620 
	C246.291855,175.907135 236.126740,185.256744 229.023849,198.198822 
	C188.985703,266.834595 149.518570,335.121063 110.051437,403.407562 
	C113.704720,402.659088 116.037857,400.955780 118.331238,399.200562 
	C140.901703,381.926331 165.502411,368.214325 191.801849,357.537628 
	C238.609299,338.535370 287.605682,328.390228 337.460876,321.776184 
	C347.638092,320.425995 357.823242,319.135498 368.906250,317.976349 
	C381.021606,317.483337 392.228333,316.638336 403.450958,316.224884 
	C420.304535,315.604004 437.169220,315.285583 454.930054,315.092590 
	C465.108154,315.555359 474.400909,315.495453 483.659454,316.029144 
	C502.456207,317.112640 521.234436,318.517181 540.791748,320.002136 
	C557.193359,324.183807 573.154724,327.188629 588.355469,332.408386 
	C601.987427,337.089447 614.782715,344.207367 628.332520,350.796875 
	C635.500244,355.724243 642.282471,360.104950 649.421387,365.006683 
	C651.558777,366.756348 653.339417,367.984955 656.398804,370.095856 
	C655.460693,367.465637 655.277283,366.546295 654.822815,365.789948 
	C654.357605,365.015686 653.626831,364.401062 652.773315,363.033356 
	C647.703003,355.360687 642.910706,348.343842 638.032410,341.387268 
	C626.479309,324.912140 614.885376,308.465576 603.099976,291.404449 
	C598.238342,285.653442 593.439880,280.627838 588.961243,275.331787 
	C579.846619,264.553772 571.379272,253.188675 561.785400,242.864578 
	C545.486389,225.325180 528.282471,208.645889 509.077606,194.228333 
	C488.846252,179.040207 467.823608,165.142563 443.457153,155.629120 
	C427.057404,148.765381 411.110779,142.579758 393.291321,139.837158 
	C383.654388,138.327072 374.732513,137.161301 365.448090,135.521393 
	C365.063904,134.649902 365.042236,134.252594 365.020569,133.855270 
	C389.290009,133.888214 413.559448,133.921143 439.205475,134.600510 
	C449.641205,139.364685 458.879150,143.132828 467.729584,147.658707 
	C513.967896,171.303741 551.728271,205.451950 585.985718,243.845795 
	C595.463623,254.468140 604.637024,265.362213 614.168945,276.777557 
	C616.953613,280.840698 619.558716,284.229218 622.079224,287.679596 
	C647.628662,322.655457 672.032898,358.384399 692.626343,396.560577 
	C701.446838,412.911987 709.826355,429.501282 718.518433,446.681366 
	C722.951538,457.632874 727.272461,467.885468 731.776367,478.895813 
	C741.270508,509.923981 746.200317,540.676758 742.591187,572.450195 
	C741.999939,577.655823 742.352478,582.968628 742.041870,588.221741 
	C741.814941,588.211548 741.522949,588.577026 741.522949,588.577026 
	C741.522949,588.577026 742.131287,588.084106 742.683838,587.691040 
	C745.560547,582.344788 747.884644,577.391602 750.744812,571.998718 
	C752.292969,569.837769 753.413574,568.170593 754.301331,566.387451 
	C773.899536,527.022095 791.143433,486.688446 803.805115,444.515106 
	C815.817688,404.503540 823.829834,363.860809 822.206299,321.790192 
	C821.501160,303.518066 819.913452,285.368286 814.611206,266.918304 
	C810.578552,248.600113 805.489807,231.495758 796.186157,215.176300 
	C790.121521,204.817413 784.148804,195.175568 778.035400,184.886139 
	C766.228577,170.177261 751.733521,159.614243 735.775818,151.099838 
	C722.570068,144.053802 709.015686,137.630554 693.378174,135.599091 
	C692.866394,134.715332 692.763123,134.309235 692.659912,133.903137 
M633.456604,751.897888 
	C620.788818,758.658997 608.121033,765.420105 595.453308,772.181274 
	C619.092468,771.898132 642.260254,770.357178 665.370667,768.200989 
	C707.521484,764.268372 748.925537,756.233704 789.305664,743.499695 
	C827.605774,731.421631 863.511047,714.550964 895.523682,687.613647 
	C906.808838,676.409241 918.094055,665.204834 930.392334,653.053040 
	C932.731384,650.283264 935.214539,647.621582 937.385132,644.725586 
	C948.176819,630.327271 957.726135,615.218994 964.293640,596.664124 
	C971.132751,573.386658 972.107666,549.824646 967.828125,524.383545 
	C963.699646,498.538086 951.658630,476.392578 935.714050,454.585388 
	C904.849426,396.364563 870.213684,340.322968 837.193787,283.243561 
	C836.652283,285.742432 836.890869,287.909546 837.083496,290.080750 
	C837.991333,300.315979 839.350342,310.536316 839.704102,320.791077 
	C841.080078,360.681580 834.382874,399.519867 823.377930,437.684601 
	C818.520874,454.528534 812.973755,471.173492 806.733582,488.901184 
	C803.473755,497.258484 800.515808,505.749146 796.894775,513.946899 
	C787.767700,534.609863 778.341736,555.140808 768.145020,576.688599 
	C763.919983,584.553589 759.906433,592.541321 755.428711,600.259827 
	C743.824585,620.262329 732.016235,640.146362 719.202148,660.897583 
	C705.580566,679.292419 691.958984,697.687317 677.112061,716.661316 
	C662.997009,728.337402 648.881897,740.013489 633.456604,751.897888 
z"/>
<path fill="#08B79F" opacity="1.000000" stroke="none" 
	d="
M70.055153,631.980835 
	C58.613758,616.611572 52.717194,599.005737 48.634598,579.885986 
	C47.825039,562.418213 47.637081,545.481873 47.712502,527.728271 
	C49.117695,523.203491 50.103577,519.438904 51.433571,515.800171 
	C54.263428,508.058014 57.272114,500.381226 61.520401,492.265320 
	C66.657974,490.858673 70.560188,490.094086 74.295113,488.833771 
	C104.761459,478.553223 135.190063,468.160950 165.642670,457.839630 
	C208.970886,443.154297 252.309372,428.499298 295.644348,413.833954 
	C302.553772,411.495758 309.483765,409.216919 316.372620,406.819733 
	C319.541382,405.717102 321.570740,406.306122 321.985962,409.958679 
	C310.603912,427.130737 298.954376,444.132507 287.894287,461.509460 
	C263.195343,500.314880 242.263931,541.131348 222.647369,583.731934 
	C217.888870,585.011841 214.277649,585.562683 210.861221,586.699158 
	C175.971405,598.305359 141.157867,610.142822 106.221573,621.606445 
	C94.313499,625.513794 82.118866,628.547852 70.055153,631.980835 
z"/>
<path fill="#07B79F" opacity="1.000000" stroke="none" 
	d="
M693.786682,136.076752 
	C709.015686,137.630554 722.570068,144.053802 735.775818,151.099838 
	C751.733521,159.614243 766.228577,170.177261 777.916382,185.679230 
	C776.606812,191.553680 774.964294,195.920471 773.993652,200.431808 
	C766.640503,234.609055 759.354553,268.801147 752.178467,303.015991 
	C747.168396,326.903473 742.430725,350.848022 737.449280,374.741638 
	C733.075012,395.723572 728.522827,416.668427 724.069702,437.633972 
	C723.310974,441.205841 722.971313,445.014130 718.406250,445.982483 
	C709.826355,429.501282 701.446838,412.911987 692.626343,396.560577 
	C672.032898,358.384399 647.628662,322.655457 622.079224,287.679596 
	C619.558716,284.229218 616.953613,280.840698 614.189514,275.874420 
	C614.085999,270.336151 613.571533,266.220184 614.370911,262.377563 
	C621.371155,228.726959 628.712463,195.147247 635.700500,161.494171 
	C637.576172,152.461319 638.588074,143.249115 639.996460,134.119232 
	C653.381226,133.997055 666.766052,133.874878 681.601074,134.460602 
	C686.629761,135.471252 690.208252,135.774002 693.786682,136.076752 
z"/>
<path fill="#0FB99F" opacity="1.000000" stroke="none" 
	d="
M639.071411,133.956024 
	C638.588074,143.249115 637.576172,152.461319 635.700500,161.494171 
	C628.712463,195.147247 621.371155,228.726959 614.370911,262.377563 
	C613.571533,266.220184 614.085999,270.336151 613.970703,275.228485 
	C604.637024,265.362213 595.463623,254.468140 585.985718,243.845795 
	C551.728271,205.451950 513.967896,171.303741 467.729584,147.658707 
	C458.879150,143.132828 449.641205,139.364685 440.116272,134.705261 
	C441.297607,134.012146 442.944672,133.728226 444.591766,133.728363 
	C509.109955,133.733719 573.628113,133.764954 639.071411,133.956024 
z"/>
<path fill="#029CCA" opacity="1.000000" stroke="none" 
	d="
M416.806610,845.655212 
	C430.364624,860.181885 443.668976,874.955688 457.530701,889.186646 
	C491.933594,924.505737 531.427795,952.468994 577.918823,971.367432 
	C576.779358,972.035645 575.131287,972.313477 573.483276,972.312805 
	C515.606812,972.288818 457.730347,972.238647 398.927734,971.142456 
	C399.560638,955.028931 400.958771,939.946289 402.727295,924.907227 
	C404.263550,911.843445 406.288208,898.837891 407.968140,885.790039 
	C409.438934,874.366760 410.531189,862.889709 412.278870,851.511475 
	C412.606598,849.377869 415.238190,847.598206 416.806610,845.655212 
z"/>
<path fill="#0F92BA" opacity="1.000000" stroke="none" 
	d="
M325.534302,972.290527 
	C321.563080,970.802856 318.432129,969.583923 314.647461,967.164917 
	C315.587585,951.519897 317.068329,937.061157 318.808838,922.633850 
	C320.390106,909.526428 322.366272,896.466797 323.961639,883.360901 
	C325.558716,870.241028 326.734253,857.069031 328.399506,843.958557 
	C330.062408,830.866272 332.290833,817.845520 333.932556,804.750977 
	C336.150879,787.056641 337.913116,769.304565 340.220337,751.622803 
	C340.571777,748.929199 342.804840,746.481201 344.167633,743.919617 
	C347.669952,749.136414 351.173523,754.352295 354.674347,759.570129 
	C363.763367,773.116882 372.851196,786.664429 381.765900,801.596313 
	C375.112366,813.989746 376.219452,826.661316 374.300568,838.570557 
	C371.318024,857.081238 370.172821,875.880127 367.833313,894.504578 
	C365.536957,912.785522 362.621918,930.987976 360.183105,949.252197 
	C359.180817,956.758362 358.714233,964.336060 358.003967,971.881226 
	C347.460846,972.107239 336.917694,972.333252 325.534302,972.290527 
z"/>
<path fill="#0796C1" opacity="1.000000" stroke="none" 
	d="
M358.929443,972.038818 
	C358.714233,964.336060 359.180817,956.758362 360.183105,949.252197 
	C362.621918,930.987976 365.536957,912.785522 367.833313,894.504578 
	C370.172821,875.880127 371.318024,857.081238 374.300568,838.570557 
	C376.219452,826.661316 375.112366,813.989746 381.903290,802.262085 
	C393.571045,815.817566 404.927856,830.091980 416.545624,845.010803 
	C415.238190,847.598206 412.606598,849.377869 412.278870,851.511475 
	C410.531189,862.889709 409.438934,874.366760 407.968140,885.790039 
	C406.288208,898.837891 404.263550,911.843445 402.727295,924.907227 
	C400.958771,939.946289 399.560638,955.028931 398.002289,970.982056 
	C385.286926,971.979736 372.570923,972.088074 358.929443,972.038818 
z"/>
<path fill="#1EA296" opacity="1.000000" stroke="none" 
	d="
M364.208923,133.591248 
	C365.042236,134.252594 365.063904,134.649902 364.536804,135.547394 
	C354.700562,136.107346 345.413086,136.167130 335.300354,136.153595 
	C331.732819,136.051666 328.990479,136.023071 326.248169,135.994476 
	C326.481384,135.673508 326.714600,135.352554 326.953613,134.436844 
	C339.105408,133.670471 351.251343,133.498840 364.208923,133.591248 
z"/>
<path fill="#1EA296" opacity="1.000000" stroke="none" 
	d="
M691.831604,969.987305 
	C691.586609,970.308411 691.341675,970.629578 691.090332,971.556152 
	C678.926208,972.334656 666.768555,972.507690 653.809692,972.418701 
	C652.995667,971.742188 652.982727,971.327637 653.506714,970.428223 
	C662.696777,969.890137 671.349915,969.836975 680.849365,969.840454 
	C685.074280,969.927185 688.452942,969.957214 691.831604,969.987305 
z"/>
<path fill="#10BAA0" opacity="1.000000" stroke="none" 
	d="
M693.378174,135.599091 
	C690.208252,135.774002 686.629761,135.471252 682.526855,134.620453 
	C685.097107,133.854218 688.191895,133.636017 691.973267,133.660492 
	C692.763123,134.309235 692.866394,134.715332 693.378174,135.599091 
z"/>
<path fill="#07B79F" opacity="1.000000" stroke="none" 
	d="
M692.656616,970.096558 
	C688.452942,969.957214 685.074280,969.927185 680.769836,969.173706 
	C668.965210,957.860107 658.148315,947.205322 647.182922,936.705566 
	C641.199219,930.975952 635.040955,925.421814 628.826965,919.940979 
	C612.930237,905.919739 596.851501,892.103149 581.054260,877.971375 
	C570.668945,868.680969 560.697937,858.928894 550.443787,849.489746 
	C542.882446,842.529419 535.150391,835.754822 527.517090,828.872314 
	C514.964966,817.554688 502.338654,806.315796 489.983673,794.786499 
	C488.000275,792.935608 487.263428,789.748840 485.950348,787.179565 
	C516.383728,788.301025 546.809387,789.757263 577.252441,790.456909 
	C613.082214,791.280396 648.715942,788.046753 685.249573,784.718994 
	C691.026367,788.898865 696.181580,791.855286 700.546143,795.707397 
	C710.463623,804.460327 719.952576,813.696899 729.692078,822.653931 
	C736.991089,829.366516 744.417847,835.940002 751.771912,842.592773 
	C765.249634,854.785095 778.888123,866.809082 792.052551,879.331177 
	C794.954895,882.091858 796.159607,886.637329 798.146118,890.360901 
	C791.995789,900.282532 786.250488,910.489685 779.536926,920.014282 
	C775.760620,925.371948 770.903625,930.300354 765.634766,934.211426 
	C749.524170,946.170288 733.145752,957.855469 713.744202,964.153625 
	C707.041504,966.329590 700.238708,968.197327 692.656616,970.096558 
z"/>
<path fill="#039FCD" opacity="1.000000" stroke="none" 
	d="
M368.004730,317.817505 
	C357.823242,319.135498 347.638092,320.425995 337.460876,321.776184 
	C287.605682,328.390228 238.609299,338.535370 191.801849,357.537628 
	C165.502411,368.214325 140.901703,381.926331 118.331238,399.200562 
	C116.037857,400.955780 113.704720,402.659088 110.051437,403.407562 
	C149.518570,335.121063 188.985703,266.834595 229.745285,198.293854 
	C237.013565,202.681656 243.158417,207.123993 248.929398,212.008072 
	C260.306213,221.636414 271.415375,231.580261 282.747711,241.261993 
	C294.320038,251.148773 306.032990,260.870850 317.673828,270.677582 
	C329.568176,280.697845 341.632690,290.527252 353.257599,300.851349 
	C358.845123,305.813660 365.584747,310.008759 368.004730,317.817505 
z"/>
<path fill="#0E90B6" opacity="1.000000" stroke="none" 
	d="
M720.289429,660.077698 
	C732.016235,640.146362 743.824585,620.262329 755.428711,600.259827 
	C759.906433,592.541321 763.919983,584.553589 769.533325,576.279541 
	C775.508545,575.478943 780.259583,575.723206 784.655029,574.589294 
	C808.026978,568.560059 831.317871,562.215027 854.621338,555.921936 
	C877.606628,549.714783 900.549255,543.348450 923.557068,537.226562 
	C938.235107,533.320984 952.997620,529.732910 967.722229,526.002563 
	C972.107666,549.824646 971.132751,573.386658 963.099487,597.339539 
	C958.984009,598.453064 955.989075,598.615356 953.152405,599.371338 
	C918.683655,608.557129 884.228882,617.795959 849.789368,627.090942 
	C817.580933,635.783813 785.438416,644.725342 753.174927,653.207703 
	C742.358704,656.051453 731.259338,657.818481 720.289429,660.077698 
z"/>
<path fill="#10BAA0" opacity="1.000000" stroke="none" 
	d="
M70.136658,632.680786 
	C82.118866,628.547852 94.313499,625.513794 106.221573,621.606445 
	C141.157867,610.142822 175.971405,598.305359 210.861221,586.699158 
	C214.277649,585.562683 217.888870,585.011841 222.270508,584.285034 
	C215.727219,604.674561 207.938934,624.838135 201.005478,645.291443 
	C189.447723,679.386108 181.384216,714.354797 178.467178,750.274475 
	C176.609146,773.153748 177.214828,796.107910 180.919632,818.870728 
	C181.108810,820.033081 181.141388,821.220947 179.684067,823.086792 
	C143.195435,759.851379 106.706795,696.616028 70.136658,632.680786 
z"/>
<path fill="#0F90B7" opacity="1.000000" stroke="none" 
	d="
M325.402313,135.894470 
	C328.990479,136.023071 331.732819,136.051666 335.265381,136.866516 
	C336.565491,139.180969 336.626801,141.190186 337.661743,142.155197 
	C342.492859,146.659775 347.553253,150.922882 352.604462,155.186081 
	C364.211670,164.982513 375.946533,174.629440 387.469604,184.523361 
	C399.006561,194.429214 410.251160,204.675964 421.804474,214.562286 
	C433.343719,224.436646 445.190460,233.951294 456.747498,243.805328 
	C467.814056,253.241150 478.575897,263.034882 489.661957,272.447205 
	C505.267670,285.696808 521.139221,298.634888 536.640198,312.004181 
	C538.569702,313.668396 538.931885,317.149933 540.020325,319.789368 
	C521.234436,318.517181 502.456207,317.112640 483.659454,316.029144 
	C474.400909,315.495453 465.108154,315.555359 454.895264,314.442627 
	C449.438263,308.424744 445.353973,302.823212 440.304810,298.298401 
	C429.716431,288.809723 418.546021,279.974243 407.753387,270.708832 
	C396.446899,261.002289 385.405884,250.985535 374.063538,241.321899 
	C357.948212,227.591660 341.630219,214.099609 325.461578,200.431564 
	C312.068695,189.109955 298.664764,177.796906 285.489929,166.224823 
	C281.805450,162.988556 278.915131,158.848160 275.660492,155.122513 
	C290.626526,145.308563 306.759369,138.446396 325.402313,135.894470 
z"/>
<path fill="#10BAA0" opacity="1.000000" stroke="none" 
	d="
M798.703491,889.954712 
	C796.159607,886.637329 794.954895,882.091858 792.052551,879.331177 
	C778.888123,866.809082 765.249634,854.785095 751.771912,842.592773 
	C744.417847,835.940002 736.991089,829.366516 729.692078,822.653931 
	C719.952576,813.696899 710.463623,804.460327 700.546143,795.707397 
	C696.181580,791.855286 691.026367,788.898865 686.113525,784.864441 
	C700.696533,781.514465 715.438293,779.046631 730.088074,776.118835 
	C779.943909,766.155273 828.336487,751.952820 872.140076,725.184998 
	C883.427185,718.287659 894.117188,710.413330 906.963379,701.713318 
	C904.911499,705.432922 903.829712,707.463440 902.685364,709.458130 
	C868.403259,769.215881 834.115051,828.970154 799.824585,888.723145 
	C799.659302,889.011230 799.449707,889.273865 798.703491,889.954712 
z"/>
<path fill="#0399C5" opacity="1.000000" stroke="none" 
	d="
M967.775146,525.193054 
	C952.997620,529.732910 938.235107,533.320984 923.557068,537.226562 
	C900.549255,543.348450 877.606628,549.714783 854.621338,555.921936 
	C831.317871,562.215027 808.026978,568.560059 784.655029,574.589294 
	C780.259583,575.723206 775.508545,575.478943 769.978577,575.797607 
	C778.341736,555.140808 787.767700,534.609863 796.894775,513.946899 
	C800.515808,505.749146 803.473755,497.258484 808.115967,488.431519 
	C813.399963,487.483978 817.418457,487.450592 821.185059,486.459747 
	C859.431824,476.398254 897.637451,466.180603 935.854614,456.006714 
	C951.658630,476.392578 963.699646,498.538086 967.775146,525.193054 
z"/>
<path fill="#0498C4" opacity="1.000000" stroke="none" 
	d="
M274.973816,155.319504 
	C278.915131,158.848160 281.805450,162.988556 285.489929,166.224823 
	C298.664764,177.796906 312.068695,189.109955 325.461578,200.431564 
	C341.630219,214.099609 357.948212,227.591660 374.063538,241.321899 
	C385.405884,250.985535 396.446899,261.002289 407.753387,270.708832 
	C418.546021,279.974243 429.716431,288.809723 440.304810,298.298401 
	C445.353973,302.823212 449.438263,308.424744 453.994385,314.188538 
	C437.169220,315.285583 420.304535,315.604004 403.450958,316.224884 
	C392.228333,316.638336 381.021606,317.483337 368.906250,317.976379 
	C365.584747,310.008759 358.845123,305.813660 353.257599,300.851349 
	C341.632690,290.527252 329.568176,280.697845 317.673828,270.677582 
	C306.032990,260.870850 294.320038,251.148773 282.747711,241.261993 
	C271.415375,231.580261 260.306213,221.636414 248.929398,212.008072 
	C243.158417,207.123993 237.013565,202.681656 230.316299,197.944565 
	C236.126740,185.256744 246.291855,175.907135 257.237366,167.357620 
	C262.681885,163.104919 268.589203,159.444733 274.973816,155.319504 
z"/>
<path fill="#1086A6" opacity="1.000000" stroke="none" 
	d="
M719.745789,660.487671 
	C731.259338,657.818481 742.358704,656.051453 753.174927,653.207703 
	C785.438416,644.725342 817.580933,635.783813 849.789368,627.090942 
	C884.228882,617.795959 918.683655,608.557129 953.152405,599.371338 
	C955.989075,598.615356 958.984009,598.453064 962.714355,598.017090 
	C957.726135,615.218994 948.176819,630.327271 937.385132,644.725586 
	C935.214539,647.621582 932.731384,650.283264 929.038574,653.528503 
	C920.498169,654.989014 913.119690,655.245605 906.156372,657.078918 
	C865.154114,667.874512 824.243347,679.017700 783.312622,690.084106 
	C760.286316,696.309814 737.344055,702.859436 714.239929,708.779053 
	C702.422058,711.806946 690.855713,716.386841 678.337402,716.082153 
	C691.958984,697.687317 705.580566,679.292419 719.745789,660.487671 
z"/>
<path fill="#039FCD" opacity="1.000000" stroke="none" 
	d="
M935.784302,455.296051 
	C897.637451,466.180603 859.431824,476.398254 821.185059,486.459747 
	C817.418457,487.450592 813.399963,487.483978 808.619141,487.935303 
	C812.973755,471.173492 818.520874,454.528534 823.377930,437.684601 
	C834.382874,399.519867 841.080078,360.681580 839.704102,320.791077 
	C839.350342,310.536316 837.991333,300.315979 837.083496,290.080750 
	C836.890869,287.909546 836.652283,285.742432 837.193787,283.243561 
	C870.213684,340.322968 904.849426,396.364563 935.784302,455.296051 
z"/>
<path fill="#1086A6" opacity="1.000000" stroke="none" 
	d="
M540.791748,320.002136 
	C538.931885,317.149933 538.569702,313.668396 536.640198,312.004181 
	C521.139221,298.634888 505.267670,285.696808 489.661957,272.447205 
	C478.575897,263.034882 467.814056,253.241150 456.747498,243.805328 
	C445.190460,233.951294 433.343719,224.436646 421.804474,214.562286 
	C410.251160,204.675964 399.006561,194.429214 387.469604,184.523361 
	C375.946533,174.629440 364.211670,164.982513 352.604462,155.186081 
	C347.553253,150.922882 342.492859,146.659775 337.661743,142.155197 
	C336.626801,141.190186 336.565491,139.180969 336.090637,136.939850 
	C345.413086,136.167130 354.700562,136.107346 364.899323,136.021561 
	C374.732513,137.161301 383.654388,138.327072 393.299316,140.562607 
	C395.746918,144.281631 396.988007,147.483780 399.278076,149.486481 
	C410.481293,159.283981 422.044434,168.668427 433.325714,178.378586 
	C444.871002,188.315964 456.104401,198.617828 467.714081,208.477844 
	C483.092865,221.538910 498.840637,234.166473 514.178833,247.274033 
	C530.538818,261.254791 546.476196,275.730042 562.834473,289.712860 
	C583.203369,307.123962 603.898621,324.154083 624.195923,341.646942 
	C626.331604,343.487518 626.738281,347.334259 627.947083,350.250244 
	C614.782715,344.207367 601.987427,337.089447 588.355469,332.408386 
	C573.154724,327.188629 557.193359,324.183807 540.791748,320.002136 
z"/>
<path fill="#1C778F" opacity="1.000000" stroke="none" 
	d="
M217.708008,884.105896 
	C206.740799,862.395813 201.414169,838.998901 197.993484,815.197571 
	C191.275314,768.451843 196.826447,722.642334 209.222961,677.341858 
	C221.811142,631.341064 239.540756,587.397705 261.862305,544.883057 
	C263.347687,546.946655 264.058990,548.910217 263.929321,550.816650 
	C263.436279,558.067139 262.795288,565.313171 261.981262,572.535156 
	C260.538300,585.336731 259.012238,598.130310 257.365570,610.907166 
	C255.678116,624.000122 253.661682,637.051514 252.052063,650.153442 
	C250.440521,663.270935 249.360855,676.455078 247.674881,689.562012 
	C245.317032,707.892334 242.413391,726.153015 240.107666,744.489380 
	C237.182053,767.755493 234.726837,791.080322 231.872025,814.355774 
	C229.380280,834.671204 226.608719,854.952332 223.977692,875.250793 
	C223.449051,879.329346 222.872070,883.329712 217.708008,884.105896 
z"/>
<path fill="#15809D" opacity="1.000000" stroke="none" 
	d="
M217.943756,884.785400 
	C222.872070,883.329712 223.449051,879.329346 223.977692,875.250793 
	C226.608719,854.952332 229.380280,834.671204 231.872025,814.355774 
	C234.726837,791.080322 237.182053,767.755493 240.107666,744.489380 
	C242.413391,726.153015 245.317032,707.892334 247.674881,689.562012 
	C249.360855,676.455078 250.440521,663.270935 252.052063,650.153442 
	C253.661682,637.051514 255.678116,624.000122 257.365570,610.907166 
	C259.012238,598.130310 260.538300,585.336731 261.981262,572.535156 
	C262.795288,565.313171 263.436279,558.067139 263.929321,550.816650 
	C264.058990,548.910217 263.347687,546.946655 262.395935,544.452637 
	C265.912323,535.308777 270.055298,526.721741 274.198303,518.134644 
	C274.853699,518.193176 275.509064,518.251709 276.164459,518.310181 
	C270.954407,558.047241 274.602295,596.763184 287.616760,635.533936 
	C280.327942,646.671326 281.956787,658.427856 280.150604,669.379395 
	C278.003967,682.395142 277.118408,695.613770 275.414185,708.709045 
	C273.796967,721.136047 271.634857,733.492981 270.067017,745.925354 
	C268.414612,759.028503 267.399200,772.212585 265.713623,785.310852 
	C263.356171,803.629944 260.429962,821.876526 258.122253,840.201416 
	C255.194214,863.452332 252.772263,886.767029 249.840744,910.017517 
	C249.062256,916.191772 247.216858,922.231506 245.861328,928.333008 
	C239.003815,918.764526 231.942017,909.333252 225.381943,899.565002 
	C222.460388,895.214661 220.549255,890.185791 217.943756,884.785400 
z"/>
<path fill="#0E8CB1" opacity="1.000000" stroke="none" 
	d="
M344.029907,743.228516 
	C342.804840,746.481201 340.571777,748.929199 340.220337,751.622803 
	C337.913116,769.304565 336.150879,787.056641 333.932556,804.750977 
	C332.290833,817.845520 330.062408,830.866272 328.399506,843.958557 
	C326.734253,857.069031 325.558716,870.241028 323.961639,883.360901 
	C322.366272,896.466797 320.390106,909.526428 318.808838,922.633850 
	C317.068329,937.061157 315.587585,951.519897 313.991638,966.843323 
	C300.347137,965.243469 288.501434,958.510132 276.238586,950.539917 
	C276.741211,943.269775 277.662598,937.398438 278.438232,931.507996 
	C280.331268,917.131592 282.180756,902.749268 284.002197,888.363586 
	C285.576752,875.927673 287.053406,863.479309 288.637512,851.044617 
	C290.386963,837.311707 292.218597,823.589355 293.997681,809.860229 
	C295.608276,797.431519 297.191742,784.999329 298.795410,772.569702 
	C300.524963,759.164612 302.350739,745.771240 303.973572,732.353333 
	C305.478790,719.907898 306.562195,707.406982 308.327881,695.001221 
	C308.698669,692.395996 311.234650,690.098999 312.772949,687.660034 
	C323.146027,705.952454 333.519135,724.244934 344.029907,743.228516 
z"/>
<path fill="#0F86A7" opacity="1.000000" stroke="none" 
	d="
M312.605988,686.942871 
	C311.234650,690.098999 308.698669,692.395996 308.327881,695.001221 
	C306.562195,707.406982 305.478790,719.907898 303.973572,732.353333 
	C302.350739,745.771240 300.524963,759.164612 298.795410,772.569702 
	C297.191742,784.999329 295.608276,797.431519 293.997681,809.860229 
	C292.218597,823.589355 290.386963,837.311707 288.637512,851.044617 
	C287.053406,863.479309 285.576752,875.927673 284.002197,888.363586 
	C282.180756,902.749268 280.331268,917.131592 278.438232,931.507996 
	C277.662598,937.398438 276.741211,943.269775 275.796997,950.046936 
	C264.128052,946.296875 255.659912,937.399414 246.153671,928.926758 
	C247.216858,922.231506 249.062256,916.191772 249.840744,910.017517 
	C252.772263,886.767029 255.194214,863.452332 258.122253,840.201416 
	C260.429962,821.876526 263.356171,803.629944 265.713623,785.310852 
	C267.399200,772.212585 268.414612,759.028503 270.067017,745.925354 
	C271.634857,733.492981 273.796967,721.136047 275.414185,708.709045 
	C277.118408,695.613770 278.003967,682.395142 280.150604,669.379395 
	C281.956787,658.427856 280.327942,646.671326 287.635559,636.310181 
	C296.309937,652.664307 304.374512,669.445068 312.605988,686.942871 
z"/>
<path fill="#1F9E94" opacity="1.000000" stroke="none" 
	d="
M742.268799,588.231934 
	C742.352478,582.968628 741.999939,577.655823 742.591187,572.450195 
	C746.200317,540.676758 741.270508,509.923981 732.558105,478.779449 
	C734.750610,476.046814 737.330261,474.403839 737.790771,472.297607 
	C745.263550,438.115234 752.584412,403.898407 759.704468,369.640472 
	C769.914001,320.517609 779.978027,271.364258 789.946106,222.191849 
	C790.736572,218.292358 792.390503,216.213058 796.278137,215.893372 
	C805.489807,231.495758 810.578552,248.600113 813.901184,267.248230 
	C811.708679,271.240082 809.509888,273.926483 808.782776,276.965057 
	C806.247864,287.559479 804.228638,298.277100 802.001404,308.945465 
	C796.806091,333.832062 791.642334,358.725342 786.394287,383.600830 
	C780.325317,412.367188 774.149292,441.110962 768.075500,469.876312 
	C761.797974,499.606720 755.740051,529.384888 749.194458,559.055786 
	C748.125122,563.903137 747.766479,568.127930 750.208801,572.438477 
	C747.884644,577.391602 745.560547,582.344788 742.711670,587.734009 
	C742.186951,588.170166 742.268738,588.231934 742.268799,588.231934 
z"/>
<path fill="#1F9E94" opacity="1.000000" stroke="none" 
	d="
M650.011353,969.788391 
	C636.449890,967.569336 622.853638,965.537903 609.345703,963.030701 
	C604.543640,962.139404 599.956238,960.091858 594.624634,957.470093 
	C592.110901,953.370972 590.785583,949.785828 588.282715,947.477539 
	C576.828430,936.913574 564.945740,926.815674 553.401794,916.346680 
	C536.927551,901.406433 520.630371,886.271240 504.225586,871.254211 
	C497.127716,864.756897 490.009308,858.279602 482.796722,851.910400 
	C466.644928,837.647278 450.326660,823.571045 434.274323,809.197388 
	C423.883942,799.893555 413.896881,790.140747 403.622925,780.704712 
	C398.987732,776.447449 394.331818,772.140625 389.236908,768.480469 
	C385.605011,765.871216 381.225220,764.303040 377.179169,762.270264 
	C372.358337,755.165649 367.537506,748.061096 362.716675,740.956482 
	C362.942291,740.491028 363.167908,740.025513 363.393524,739.559998 
	C366.299530,740.923035 369.481079,741.894043 372.067230,743.712036 
	C390.067627,756.366211 409.202179,766.817383 430.013367,774.063721 
	C436.268097,776.241638 442.622986,778.131775 449.508911,781.299377 
	C450.953522,784.180908 451.429291,786.327087 452.750092,787.588318 
	C464.494507,798.803528 476.353210,809.900146 488.252411,820.951782 
	C494.555420,826.805847 500.950531,832.563843 507.399780,838.256775 
	C523.514465,852.481873 539.803955,866.511169 555.797668,880.870483 
	C572.058105,895.469299 587.956787,910.470703 604.193787,925.096069 
	C613.031921,933.056946 622.678345,940.160217 631.148865,948.476685 
	C637.888062,955.093323 646.360413,960.376465 650.011353,969.788391 
z"/>
<path fill="#268F8E" opacity="1.000000" stroke="none" 
	d="
M750.744812,571.998718 
	C747.766479,568.127930 748.125122,563.903137 749.194458,559.055786 
	C755.740051,529.384888 761.797974,499.606720 768.075500,469.876312 
	C774.149292,441.110962 780.325317,412.367188 786.394287,383.600830 
	C791.642334,358.725342 796.806091,333.832062 802.001404,308.945465 
	C804.228638,298.277100 806.247864,287.559479 808.782776,276.965057 
	C809.509888,273.926483 811.708679,271.240082 813.942627,268.062256 
	C819.913452,285.368286 821.501160,303.518066 822.206299,321.790192 
	C823.829834,363.860809 815.817688,404.503540 803.805115,444.515106 
	C791.143433,486.688446 773.899536,527.022095 754.301331,566.387451 
	C753.413574,568.170593 752.292969,569.837769 750.744812,571.998718 
z"/>
<path fill="#20778E" opacity="1.000000" stroke="none" 
	d="
M894.291809,688.100037 
	C863.511047,714.550964 827.605774,731.421631 789.305664,743.499695 
	C748.925537,756.233704 707.521484,764.268372 665.370667,768.200989 
	C642.260254,770.357178 619.092468,771.898132 595.453308,772.181274 
	C608.121033,765.420105 620.788818,758.658997 635.081909,751.873779 
	C640.993469,751.617981 645.420105,751.991333 649.538330,751.035706 
	C659.841736,748.644775 670.007507,745.659180 680.224609,742.897949 
	C720.775391,731.938782 761.325012,720.975464 801.874268,710.010742 
	C825.181946,703.708252 848.431335,697.176392 871.828979,691.227905 
	C879.110962,689.376526 886.792969,689.098389 894.291809,688.100037 
z"/>
<path fill="#177C98" opacity="1.000000" stroke="none" 
	d="
M894.907715,687.856812 
	C886.792969,689.098389 879.110962,689.376526 871.828979,691.227905 
	C848.431335,697.176392 825.181946,703.708252 801.874268,710.010742 
	C761.325012,720.975464 720.775391,731.938782 680.224609,742.897949 
	C670.007507,745.659180 659.841736,748.644775 649.538330,751.035706 
	C645.420105,751.991333 640.993469,751.617981 635.737061,751.769592 
	C648.881897,740.013489 662.997009,728.337402 677.724731,716.371704 
	C690.855713,716.386841 702.422058,711.806946 714.239929,708.779053 
	C737.344055,702.859436 760.286316,696.309814 783.312622,690.084106 
	C824.243347,679.017700 865.154114,667.874512 906.156372,657.078918 
	C913.119690,655.245605 920.498169,654.989014 928.532043,654.002197 
	C918.094055,665.204834 906.808838,676.409241 894.907715,687.856812 
z"/>
<path fill="#177C98" opacity="1.000000" stroke="none" 
	d="
M628.332520,350.796875 
	C626.738281,347.334259 626.331604,343.487518 624.195923,341.646942 
	C603.898621,324.154083 583.203369,307.123962 562.834473,289.712860 
	C546.476196,275.730042 530.538818,261.254791 514.178833,247.274033 
	C498.840637,234.166473 483.092865,221.538910 467.714081,208.477844 
	C456.104401,198.617828 444.871002,188.315964 433.325714,178.378586 
	C422.044434,168.668427 410.481293,159.283981 399.278076,149.486481 
	C396.988007,147.483780 395.746918,144.281631 394.014313,140.906921 
	C411.110779,142.579758 427.057404,148.765381 443.541565,156.331909 
	C446.815735,167.055908 456.053589,170.600449 462.332916,176.666473 
	C473.264679,187.226868 485.602966,196.318542 497.171295,206.236267 
	C508.753998,216.166336 520.019226,226.466599 531.597534,236.401917 
	C548.698303,251.076004 565.766724,265.799683 583.244446,280.015991 
	C589.243958,284.895935 594.417542,291.737579 603.307922,292.007507 
	C614.885376,308.465576 626.479309,324.912140 638.032410,341.387268 
	C642.910706,348.343842 647.703003,355.360687 651.782471,363.209045 
	C650.375305,364.207184 649.719971,364.346405 649.064697,364.485657 
	C642.282471,360.104950 635.500244,355.724243 628.332520,350.796875 
z"/>
<path fill="#268F8E" opacity="1.000000" stroke="none" 
	d="
M377.412537,762.944031 
	C381.225220,764.303040 385.605011,765.871216 389.236908,768.480469 
	C394.331818,772.140625 398.987732,776.447449 403.622925,780.704712 
	C413.896881,790.140747 423.883942,799.893555 434.274323,809.197388 
	C450.326660,823.571045 466.644928,837.647278 482.796722,851.910400 
	C490.009308,858.279602 497.127716,864.756897 504.225586,871.254211 
	C520.630371,886.271240 536.927551,901.406433 553.401794,916.346680 
	C564.945740,926.815674 576.828430,936.913574 588.282715,947.477539 
	C590.785583,949.785828 592.110901,953.370972 593.988403,957.085205 
	C576.291504,953.993408 560.878113,944.896118 545.312988,936.307678 
	C521.638428,923.244690 500.554749,906.682861 480.797791,888.223145 
	C452.540039,861.820801 427.425476,832.714478 404.485260,801.682861 
	C395.258514,789.201660 386.576050,776.318176 377.412537,762.944031 
z"/>
<path fill="#11AB9A" opacity="1.000000" stroke="none" 
	d="
M796.186157,215.176300 
	C792.390503,216.213058 790.736572,218.292358 789.946106,222.191849 
	C779.978027,271.364258 769.914001,320.517609 759.704468,369.640472 
	C752.584412,403.898407 745.263550,438.115234 737.790771,472.297607 
	C737.330261,474.403839 734.750610,476.046814 732.375183,478.021698 
	C727.272461,467.885468 722.951538,457.632874 718.518494,446.681335 
	C722.971313,445.014130 723.310974,441.205841 724.069702,437.633972 
	C728.522827,416.668427 733.075012,395.723572 737.449280,374.741638 
	C742.430725,350.848022 747.168396,326.903473 752.178467,303.015991 
	C759.354553,268.801147 766.640503,234.609055 773.993652,200.431808 
	C774.964294,195.920471 776.606812,191.553680 778.057129,186.326828 
	C784.148804,195.175568 790.121521,204.817413 796.186157,215.176300 
z"/>
<path fill="#209791" opacity="1.000000" stroke="none" 
	d="
M344.013580,338.969879 
	C362.722900,337.251556 381.418396,335.354828 400.148529,333.905426 
	C407.330872,333.349640 414.592285,333.814880 423.055725,333.814880 
	C417.805908,336.313385 413.092682,338.497009 408.433502,340.790527 
	C403.689636,343.125641 398.998962,345.568848 392.721161,348.048096 
	C387.264862,348.711426 383.183044,348.726318 379.508789,349.957489 
	C336.136963,364.491150 292.858582,379.303619 249.490295,393.847931 
	C202.969406,409.449554 156.397995,424.901733 109.781883,440.215942 
	C106.170982,441.402222 102.033600,440.985870 98.140923,441.314392 
	C107.994423,429.132019 119.857002,419.165680 133.677490,410.518555 
	C138.611877,410.508667 142.644409,410.766510 146.192886,409.578461 
	C171.081436,401.245880 195.827744,392.489166 220.700638,384.108856 
	C258.495209,371.374939 296.358795,358.845978 334.182861,346.199524 
	C338.203461,344.855286 342.834473,344.227753 344.013580,338.969879 
z"/>
<path fill="#11AB9A" opacity="1.000000" stroke="none" 
	d="
M650.555542,969.945374 
	C646.360413,960.376465 637.888062,955.093323 631.148865,948.476685 
	C622.678345,940.160217 613.031921,933.056946 604.193787,925.096069 
	C587.956787,910.470703 572.058105,895.469299 555.797668,880.870483 
	C539.803955,866.511169 523.514465,852.481873 507.399780,838.256775 
	C500.950531,832.563843 494.555420,826.805847 488.252411,820.951782 
	C476.353210,809.900146 464.494507,798.803528 452.750092,787.588318 
	C451.429291,786.327087 450.953522,784.180908 450.092682,781.650635 
	C461.303650,784.378784 473.049530,784.684387 485.232971,786.915649 
	C487.263428,789.748840 488.000275,792.935608 489.983673,794.786499 
	C502.338654,806.315796 514.964966,817.554688 527.517090,828.872314 
	C535.150391,835.754822 542.882446,842.529419 550.443787,849.489746 
	C560.697937,858.928894 570.668945,868.680969 581.054260,877.971375 
	C596.851501,892.103149 612.930237,905.919739 628.826965,919.940979 
	C635.040955,925.421814 641.199219,930.975952 647.182922,936.705566 
	C658.148315,947.205322 668.965210,957.860107 679.923584,969.117065 
	C671.349915,969.836975 662.696777,969.890137 653.130859,969.932495 
	C651.845398,969.981934 651.472595,970.042114 650.555542,969.945374 
z"/>
<path fill="#1EA296" opacity="1.000000" stroke="none" 
	d="
M97.601280,441.568054 
	C102.033600,440.985870 106.170982,441.402222 109.781883,440.215942 
	C156.397995,424.901733 202.969406,409.449554 249.490295,393.847931 
	C292.858582,379.303619 336.136963,364.491150 379.508789,349.957489 
	C383.183044,348.726318 387.264862,348.711426 392.065735,348.207886 
	C376.193146,359.470947 359.117279,370.273712 344.335999,384.596405 
	C340.588013,380.476715 337.026276,382.021515 333.644714,383.187103 
	C325.188568,386.101959 316.824585,389.286865 308.350281,392.145935 
	C235.469193,416.734375 162.584091,441.311218 89.648354,465.736725 
	C85.343170,467.178497 80.591148,467.285980 76.047066,468.014404 
	C83.051926,459.283508 90.056778,450.552612 97.601280,441.568054 
z"/>
<path fill="#11AB9A" opacity="1.000000" stroke="none" 
	d="
M75.486328,468.384399 
	C80.591148,467.285980 85.343170,467.178497 89.648354,465.736725 
	C162.584091,441.311218 235.469193,416.734375 308.350281,392.145935 
	C316.824585,389.286865 325.188568,386.101959 333.644714,383.187103 
	C337.026276,382.021515 340.588013,380.476715 343.735168,384.839172 
	C336.969391,393.448456 330.041412,401.354156 322.549683,409.609253 
	C321.570740,406.306122 319.541382,405.717102 316.372620,406.819733 
	C309.483765,409.216919 302.553772,411.495758 295.644348,413.833954 
	C252.309372,428.499298 208.970886,443.154297 165.642670,457.839630 
	C135.190063,468.160950 104.761459,478.553223 74.295113,488.833771 
	C70.560188,490.094086 66.657974,490.858673 61.991810,491.785248 
	C65.742088,484.063171 70.333839,476.408783 75.486328,468.384399 
z"/>
<path fill="#268F8E" opacity="1.000000" stroke="none" 
	d="
M343.215057,338.788910 
	C342.834473,344.227753 338.203461,344.855286 334.182861,346.199524 
	C296.358795,358.845978 258.495209,371.374939 220.700638,384.108856 
	C195.827744,392.489166 171.081436,401.245880 146.192886,409.578461 
	C142.644409,410.766510 138.611877,410.508667 134.337189,410.329468 
	C149.872116,396.548553 167.970993,386.803497 186.691177,378.239471 
	C217.338028,364.219330 249.592117,355.073395 282.547028,348.541901 
	C302.380707,344.610962 322.452026,341.878815 343.215057,338.788910 
z"/>
<path fill="#20778E" opacity="1.000000" stroke="none" 
	d="
M603.099976,291.404449 
	C594.417542,291.737579 589.243958,284.895935 583.244446,280.015991 
	C565.766724,265.799683 548.698303,251.076004 531.597534,236.401917 
	C520.019226,226.466599 508.753998,216.166336 497.171295,206.236267 
	C485.602966,196.318542 473.264679,187.226868 462.332916,176.666473 
	C456.053589,170.600449 446.815735,167.055908 444.053314,156.818283 
	C467.823608,165.142563 488.846252,179.040207 509.077606,194.228333 
	C528.282471,208.645889 545.486389,225.325180 561.785400,242.864578 
	C571.379272,253.188675 579.846619,264.553772 588.961243,275.331787 
	C593.439880,280.627838 598.238342,285.653442 603.099976,291.404449 
z"/>
<path fill="#1EA296" opacity="1.000000" stroke="none" 
	d="
M649.421387,365.006714 
	C649.719971,364.346405 650.375305,364.207184 652.021423,363.892273 
	C653.626831,364.401062 654.357605,365.015686 654.822815,365.789948 
	C655.277283,366.546295 655.460693,367.465637 656.398804,370.095856 
	C653.339417,367.984955 651.558777,366.756348 649.421387,365.006714 
z"/>
<path fill="#1F9E94" opacity="1.000000" stroke="none" 
	d="
M742.159119,588.127136 
	C742.131287,588.084106 741.522949,588.577026 741.522949,588.577026 
	C741.522949,588.577026 741.814941,588.211548 742.041870,588.221741 
	C742.268738,588.231934 742.186951,588.170166 742.159119,588.127136 
z"/>
</svg>