<svg width="1819" height="383" viewBox="0 0 1819 383" fill="none" xmlns="http://www.w3.org/2000/svg">
<path d="M381.515 191.271C381.515 296.623 296.11 382.028 190.758 382.028C85.4051 382.028 0 296.623 0 191.271C0 85.9183 85.4051 0.513184 190.758 0.513184C296.11 0.513184 381.515 85.9183 381.515 191.271Z" fill="url(#paint0_linear_3239_67140)"/>
<mask id="mask0_3239_67140" style="mask-type:alpha" maskUnits="userSpaceOnUse" x="0" y="-2" width="384" height="384">
<path d="M383.628 190.186C383.628 296.122 297.75 382 191.814 382C85.878 382 0 296.122 0 190.186C0 84.2505 85.878 -1.62744 191.814 -1.62744C297.75 -1.62744 383.628 84.2505 383.628 190.186Z" fill="black"/>
</mask>
<g mask="url(#mask0_3239_67140)">
<path d="M343.878 236.095C348.299 177.155 305.567 141.791 205.37 175.682C240.733 180.102 268.731 215.466 276.098 213.993C283.464 212.519 283.796 203.15 286.412 191.89C292.306 211.046 307.04 224.307 311.462 222.834C315.883 221.36 316.173 216.793 317.356 209.572C320.303 221.36 343.878 249.357 343.878 236.095Z" fill="white"/>
<path d="M199.476 163.894C211.264 113.795 246.628 41.5937 305.568 51.9082C324.723 56.3287 242.208 141.792 199.476 163.894Z" fill="white"/>
<path d="M111.065 96.1133C111.065 96.1133 71.9784 93.1664 75.7006 84.3254C82.3769 68.4701 122.775 65.4184 150.85 85.7989C172.348 101.405 184.793 134.056 180.319 165.368C159.691 141.792 125.308 135.898 122.853 128.53C121.674 124.994 130.22 118.216 134.641 115.269C125.8 117.725 107.528 121.752 105.171 118.216C102.813 114.679 108.118 102.007 111.065 96.1133Z" fill="white"/>
<path d="M66.8608 196.311C55.7802 216.911 49.1789 237.569 37.3906 237.569C27.077 237.569 34.4443 185.25 66.8608 168.942C95.5155 154.526 138.269 162.565 165.585 172.735C136.828 182.528 112.539 212.52 103.698 209.573C94.8573 206.626 103.698 187.47 103.698 187.47C103.698 187.47 75.7018 221.361 69.8078 219.887C63.9138 218.414 66.8608 196.311 66.8608 196.311Z" fill="white"/>
<path d="M198.002 202.205C196.528 194.837 198.002 187.47 190.635 187.47C183.267 187.47 184.741 193.364 183.267 202.205C181.813 210.925 162.517 424.703 203.897 424.703C230.42 424.703 199.476 209.572 198.002 202.205Z" fill="white"/>
</g>
<path d="M554.076 212.232H511.572V185.424H554.076C560.644 185.424 565.991 184.354 570.115 182.216C574.239 180.001 577.256 176.946 579.166 173.05C581.075 169.155 582.03 164.764 582.03 159.875C582.03 154.911 581.075 150.29 579.166 146.013C577.256 141.736 574.239 138.299 570.115 135.702C565.991 133.105 560.644 131.807 554.076 131.807H523.487V271.691H489.117V104.884H554.076C567.136 104.884 578.326 107.252 587.644 111.987C597.038 116.646 604.217 123.1 609.182 131.349C614.146 139.597 616.629 149.03 616.629 159.646C616.629 170.415 614.146 179.733 609.182 187.6C604.217 195.467 597.038 201.539 587.644 205.816C578.326 210.093 567.136 212.232 554.076 212.232ZM736.075 133.411L690.707 271.691H654.16L716.14 104.884H739.397L736.075 133.411ZM773.767 271.691L728.284 133.411L724.618 104.884H748.104L810.428 271.691H773.767ZM771.705 209.597V236.52H683.604V209.597H771.705ZM980.053 244.883V271.691H896.077V244.883H980.053ZM907.19 104.884V271.691H872.82V104.884H907.19ZM1062.38 104.884H1091.48L1134.33 227.355L1177.17 104.884H1206.27L1146.01 271.691H1122.64L1062.38 104.884ZM1046.68 104.884H1075.67L1080.94 224.261V271.691H1046.68V104.884ZM1192.99 104.884H1222.08V271.691H1187.71V224.261L1192.99 104.884ZM1411.07 244.883V271.691H1322.28V244.883H1411.07ZM1333.51 104.884V271.691H1299.14V104.884H1333.51ZM1399.5 172.821V198.942H1322.28V172.821H1399.5ZM1410.96 104.884V131.807H1322.28V104.884H1410.96ZM1478.05 104.884H1540.26C1553.01 104.884 1563.97 106.793 1573.14 110.612C1582.38 114.431 1589.48 120.083 1594.45 127.568C1599.41 135.053 1601.89 144.256 1601.89 155.178C1601.89 164.114 1600.36 171.79 1597.31 178.206C1594.33 184.545 1590.09 189.853 1584.59 194.131C1579.17 198.331 1572.79 201.692 1565.46 204.212L1554.58 209.941H1500.5L1500.27 183.132H1540.49C1546.52 183.132 1551.52 182.063 1555.49 179.924C1559.46 177.786 1562.44 174.807 1564.43 170.988C1566.49 167.169 1567.52 162.74 1567.52 157.699C1567.52 152.352 1566.53 147.731 1564.54 143.836C1562.56 139.941 1559.54 136.962 1555.49 134.9C1551.45 132.838 1546.37 131.807 1540.26 131.807H1512.42V271.691H1478.05V104.884ZM1571.3 271.691L1533.27 197.338L1569.58 197.109L1608.08 270.087V271.691H1571.3ZM1743.11 133.411L1697.74 271.691H1661.19L1723.17 104.884H1746.43L1743.11 133.411ZM1780.8 271.691L1735.32 133.411L1731.65 104.884H1755.14L1817.46 271.691H1780.8ZM1778.74 209.597V236.52H1690.63V209.597H1778.74Z" fill="url(#paint1_linear_3239_67140)"/>
<defs>
<linearGradient id="paint0_linear_3239_67140" x1="8.89543" y1="304.432" x2="381.515" y2="304.432" gradientUnits="userSpaceOnUse">
<stop stop-color="#DAA980"/>
<stop offset="0.307292" stop-color="#C25C63"/>
<stop offset="1" stop-color="#4751E7"/>
</linearGradient>
<linearGradient id="paint1_linear_3239_67140" x1="505.56" y1="272.759" x2="1818.22" y2="272.759" gradientUnits="userSpaceOnUse">
<stop stop-color="#DAA980"/>
<stop offset="0.307292" stop-color="#C25C63"/>
<stop offset="1" stop-color="#4751E7"/>
</linearGradient>
</defs>
</svg>
