<?xml version="1.0" standalone="no"?>
<!DOCTYPE svg PUBLIC "-//W3C//DTD SVG 20010904//EN"
 "http://www.w3.org/TR/2001/REC-SVG-20010904/DTD/svg10.dtd">
<svg version="1.0" xmlns="http://www.w3.org/2000/svg"
 width="874.000000pt" height="466.000000pt" viewBox="0 0 874.000000 466.000000"
 preserveAspectRatio="xMidYMid meet">

<g transform="translate(0.000000,466.000000) scale(0.100000,-0.100000)"
fill="#000000" stroke="none">
<path d="M905 4650 c-3 -5 -13 -10 -21 -10 -9 0 -35 -13 -58 -30 -128 -87
-105 -307 39 -375 84 -39 190 -28 261 27 66 53 94 189 55 274 -20 44 -85 104
-113 104 -9 0 -20 5 -23 10 -3 6 -35 10 -70 10 -35 0 -67 -4 -70 -10z"/>
<path d="M0 4100 l0 -330 964 0 c870 0 964 2 970 16 3 9 6 155 6 325 0 346 5
325 -73 290 -23 -10 -64 -29 -92 -41 -27 -12 -75 -33 -105 -47 -30 -14 -73
-33 -95 -43 -22 -10 -65 -29 -95 -43 -110 -50 -171 -77 -174 -77 -2 0 -48 -21
-102 -46 -55 -25 -112 -51 -129 -59 -16 -7 -47 -21 -68 -30 -37 -17 -39 -17
-80 3 -94 45 -244 112 -251 112 -3 0 -45 18 -93 41 -84 39 -115 53 -218 99
-25 11 -65 29 -90 40 -97 43 -132 59 -197 89 -37 17 -69 31 -72 31 -3 0 -6
-148 -6 -330z"/>
<path d="M3 2453 c2 -599 7 -1104 11 -1123 32 -157 76 -283 156 -445 111 -225
171 -316 365 -555 93 -116 284 -312 296 -304 11 6 12 1454 1 1471 -6 9 -59 13
-187 15 l-180 3 -3 76 -3 77 28 5 c15 4 99 10 185 13 l158 7 5 31 c3 17 5 117
3 221 l-3 190 -175 2 c-96 1 -181 2 -187 3 -18 0 -18 144 -1 157 7 6 81 13
165 17 83 3 163 10 177 16 l26 10 -2 597 -3 598 -418 3 -417 2 3 -1087z"/>
<path d="M1107 3533 c-4 -3 -7 -273 -7 -600 l0 -593 28 -11 c15 -6 95 -13 177
-16 83 -3 156 -10 163 -16 7 -6 12 -36 12 -83 0 -64 -2 -74 -17 -75 -10 0 -88
0 -173 1 -85 1 -163 -2 -173 -5 -15 -7 -17 -27 -17 -214 0 -113 4 -211 8 -217
4 -7 63 -14 147 -17 77 -4 159 -10 183 -13 l43 -7 -3 -76 -3 -76 -180 -3
c-128 -2 -181 -6 -187 -15 -10 -16 -10 -1464 0 -1471 17 -10 261 254 378 409
230 303 366 575 426 848 l23 102 0 1075 0 1075 -411 3 c-226 1 -413 -1 -417
-5z"/>
<path d="M2877 3079 c-16 -9 -18 -25 -17 -127 1 -64 1 -123 1 -129 -1 -9 -18
-13 -51 -13 l-50 0 0 -84 0 -85 51 -3 51 -3 -1 -227 c-2 -241 5 -293 43 -336
36 -41 79 -52 202 -52 l114 0 0 85 0 85 -54 0 c-58 0 -82 14 -91 53 -3 12 -4
105 -3 207 l3 185 73 3 73 3 -3 82 -3 82 -70 5 -70 5 -5 135 -5 135 -85 2
c-47 2 -93 -2 -103 -8z"/>
<path d="M4203 3083 c-10 -4 -13 -120 -13 -534 l0 -530 103 3 102 3 5 184 c5
202 3 197 60 121 14 -18 54 -70 90 -116 36 -45 84 -107 108 -138 l43 -56 125
0 c98 0 124 3 118 13 -4 6 -81 103 -171 215 -90 112 -163 210 -163 217 0 8 70
84 155 170 85 85 155 160 155 165 0 6 -47 10 -122 10 l-122 0 -138 -142 -137
-143 0 276 c-1 243 -3 278 -17 283 -19 7 -163 7 -181 -1z"/>
<path d="M6715 3078 c-3 -7 -6 -69 -7 -138 l-3 -125 -55 -5 -55 -5 0 -80 0
-80 55 -5 55 -5 5 -262 c5 -245 6 -263 26 -290 35 -48 68 -58 202 -61 l122 -4
0 86 0 86 -51 0 c-93 0 -89 -10 -89 235 l0 215 70 0 71 0 -3 83 -3 82 -67 3
-68 3 0 129 c0 118 -2 130 -19 140 -29 15 -180 13 -186 -2z"/>
<path d="M3566 2809 c-62 -15 -155 -69 -192 -113 -172 -201 -111 -543 116
-648 107 -49 189 -58 292 -34 208 50 323 219 304 450 -14 170 -120 300 -278
342 -59 15 -182 17 -242 3z m218 -197 c60 -41 85 -100 86 -199 0 -45 -4 -85
-10 -88 -5 -3 -10 -14 -10 -24 0 -20 -54 -82 -87 -99 -30 -16 -128 -15 -161 2
-72 38 -107 108 -107 216 1 84 17 129 62 171 44 41 64 48 128 48 49 0 67 -5
99 -27z"/>
<path d="M5181 2798 c-201 -68 -304 -330 -218 -558 24 -64 118 -165 181 -194
52 -24 141 -45 191 -45 50 0 140 21 189 44 57 27 132 100 160 157 43 86 42 88
-73 88 -100 0 -100 0 -117 -29 -52 -87 -210 -97 -289 -17 -18 18 -55 92 -55
111 0 13 36 15 290 15 l290 0 0 56 c0 146 -60 263 -172 335 -96 62 -255 77
-377 37z m248 -160 c44 -24 99 -94 84 -109 -5 -5 -86 -8 -179 -7 l-169 3 3 25
c3 30 46 77 87 95 48 21 127 18 174 -7z"/>
<path d="M6154 2809 c-18 -5 -46 -23 -64 -39 -41 -38 -48 -38 -52 3 l-3 32
-100 0 -100 0 -3 -392 -2 -393 105 0 105 0 0 253 c1 320 10 353 108 377 71 16
120 -3 150 -60 21 -43 22 -54 22 -307 l0 -263 105 0 105 0 0 274 c0 176 -4
294 -12 328 -22 97 -81 164 -163 187 -47 13 -157 13 -201 0z"/>
<path d="M8152 2806 c-130 -42 -191 -138 -169 -267 15 -86 96 -149 232 -179
175 -38 212 -52 226 -84 28 -61 -21 -106 -116 -106 -73 0 -127 28 -157 80
l-23 40 -97 0 c-98 0 -98 0 -98 -25 0 -14 4 -33 9 -43 5 -9 15 -30 22 -47 34
-73 131 -137 247 -161 83 -17 131 -17 202 0 82 20 105 31 150 72 49 45 65 74
74 135 12 82 -2 128 -54 180 -52 52 -92 68 -250 100 -58 11 -118 28 -135 38
-39 22 -45 64 -14 97 19 20 32 24 79 24 71 0 114 -21 146 -71 l24 -39 90 0 90
0 0 29 c0 69 -80 168 -170 210 -46 21 -72 26 -160 28 -69 2 -120 -2 -148 -11z"/>
<path d="M7157 2804 c-12 -12 -8 -538 4 -596 24 -110 70 -161 175 -193 97 -29
194 -11 256 47 22 21 42 38 44 38 2 0 4 -18 4 -40 l0 -40 105 0 105 0 0 395 0
396 -102 -3 -103 -3 -5 -265 c-3 -171 -9 -274 -17 -291 -39 -89 -179 -104
-235 -26 -22 31 -23 40 -28 307 l-5 275 -95 3 c-53 1 -99 0 -103 -4z"/>
<path d="M2926 1608 c-21 -29 -20 -51 2 -71 38 -35 102 -9 102 40 0 49 -76 72
-104 31z"/>
<path d="M7645 1618 c-153 -55 -217 -240 -140 -405 27 -59 85 -107 149 -124
53 -14 157 -6 187 15 28 19 50 21 47 4 -2 -9 12 -13 47 -13 l50 0 0 140 0 140
-112 3 -113 3 0 -46 0 -45 55 0 c52 0 55 -1 55 -26 0 -15 -12 -38 -29 -55 -26
-25 -37 -29 -86 -29 -66 0 -105 18 -137 62 -19 28 -23 45 -23 113 0 68 4 85
23 113 34 47 75 65 136 59 43 -4 55 -10 82 -41 30 -35 35 -37 86 -34 50 3 53
4 50 28 -6 40 -54 93 -112 122 -44 22 -69 27 -120 27 -36 0 -78 -5 -95 -11z"/>
<path d="M4798 1553 c-3 -62 -5 -68 -28 -73 -20 -5 -26 -13 -28 -42 -3 -33 -1
-37 25 -40 l28 -3 5 -137 c6 -163 9 -167 108 -168 l62 0 0 40 c0 35 -3 40 -23
40 -41 0 -47 18 -47 127 l0 103 36 0 c35 0 35 1 32 38 -3 34 -6 37 -35 40
l-32 3 -3 67 -3 67 -47 3 -47 3 -3 -68z"/>
<path d="M6575 1600 c-4 -11 -6 -35 -5 -53 3 -57 1 -66 -22 -69 -18 -2 -24
-10 -26 -40 -3 -33 -1 -37 24 -40 l28 -3 -2 -105 c-3 -113 7 -164 35 -186 11
-8 44 -13 81 -14 l62 0 0 40 c0 35 -3 40 -24 40 -40 0 -47 20 -44 126 l3 99
33 3 c32 3 33 5 30 40 -3 32 -7 38 -33 42 -29 5 -30 7 -35 70 l-5 65 -47 3
c-40 3 -47 0 -53 -18z"/>
<path d="M7153 1608 c-6 -7 -27 -60 -46 -118 -20 -58 -59 -170 -87 -250 -27
-80 -50 -146 -50 -147 0 -2 26 -3 58 -3 l58 0 15 48 15 47 97 3 96 3 14 -48
14 -48 58 -3 c56 -3 57 -2 52 20 -4 21 -110 334 -124 368 -4 8 -16 42 -27 75
l-21 60 -56 3 c-37 2 -59 -1 -66 -10z m77 -155 c0 -9 9 -43 21 -75 30 -84 26
-93 -41 -89 -30 1 -56 4 -58 6 -2 2 3 23 11 47 8 23 20 62 26 86 12 41 41 60
41 25z"/>
<path d="M3251 1470 c-31 -19 -35 -20 -43 -6 -6 11 -23 16 -53 16 l-45 0 0
-195 0 -195 50 0 50 0 0 125 c0 160 10 185 75 185 34 0 47 -5 55 -19 5 -11 10
-81 10 -155 l0 -136 56 0 55 0 -3 148 c-4 200 -23 237 -126 248 -37 4 -54 0
-81 -16z"/>
<path d="M4015 1476 c-97 -36 -152 -169 -111 -267 37 -89 89 -123 191 -123 59
0 76 4 105 24 38 26 70 59 70 71 0 4 3 14 6 23 5 13 -2 16 -41 16 -36 0 -54
-6 -77 -25 -48 -40 -115 -29 -143 24 -8 17 -15 32 -15 35 0 3 64 7 143 8 l142
3 -1 53 c-2 63 -31 111 -87 142 -49 28 -130 35 -182 16z m146 -92 c38 -35 25
-44 -66 -44 -65 0 -85 3 -85 13 0 15 26 41 50 50 24 10 81 -1 101 -19z"/>
<path d="M4445 1480 c-58 -19 -85 -55 -85 -112 0 -63 40 -94 150 -118 63 -14
80 -25 80 -51 0 -37 -76 -53 -118 -23 -12 8 -22 22 -22 30 0 10 -14 14 -56 14
-53 0 -55 -1 -49 -22 22 -75 83 -112 185 -112 64 -1 80 3 109 23 59 42 74 117
32 164 -22 26 -49 39 -101 49 -89 17 -96 20 -108 38 -30 49 64 66 113 20 24
-23 105 -29 105 -7 0 24 -40 76 -71 92 -38 20 -124 28 -164 15z"/>
<path d="M5192 1475 c-24 -10 -39 -12 -52 -5 -10 6 -37 10 -59 10 l-41 0 0
-196 0 -195 50 3 51 3 2 136 c1 98 6 141 16 152 16 20 76 23 88 5 4 -7 10 -76
13 -153 l5 -140 53 -3 52 -3 0 138 c1 161 6 176 67 171 l38 -3 3 -152 3 -153
55 0 56 0 -4 165 -3 165 -32 32 c-28 28 -39 32 -87 32 -42 1 -61 -4 -87 -23
-29 -22 -33 -22 -44 -8 -26 36 -89 45 -143 22z"/>
<path d="M5794 1483 c-32 -6 -105 -72 -120 -110 -8 -18 -14 -60 -14 -94 0 -76
26 -127 84 -166 35 -23 52 -27 111 -27 48 0 80 5 102 17 33 17 83 81 83 104 0
18 -96 17 -107 -1 -11 -19 -47 -36 -77 -36 -31 0 -86 45 -86 71 0 18 9 19 140
19 l140 0 0 43 c0 47 -27 113 -57 139 -41 37 -128 55 -199 41z m132 -104 c13
-13 24 -26 24 -31 0 -4 -40 -8 -90 -8 -49 0 -90 3 -90 6 0 16 24 46 43 54 33
14 87 4 113 -21z"/>
<path d="M6267 1470 c-45 -24 -47 -24 -47 -4 0 12 -10 14 -47 12 l-48 -3 -3
-192 -2 -193 50 0 50 0 0 118 c0 154 14 187 80 187 62 0 70 -18 70 -177 l0
-128 50 0 50 0 0 148 c0 169 -11 205 -70 234 -46 23 -87 23 -133 -2z"/>
<path d="M2920 1286 l0 -196 50 0 50 0 -2 193 -3 192 -47 3 -48 3 0 -195z"/>
<path d="M3500 1471 c0 -6 5 -23 11 -38 18 -44 26 -64 47 -123 11 -30 34 -91
50 -135 l30 -80 46 -3 c33 -2 46 1 46 10 0 7 14 49 31 93 17 44 40 105 51 135
11 30 23 62 28 70 4 9 11 30 15 48 l7 33 -53 -3 -53 -3 -35 -108 c-20 -63 -38
-104 -43 -99 -5 5 -23 54 -41 108 l-32 99 -52 3 c-31 2 -53 -1 -53 -7z"/>
</g>
</svg>
